<svg xmlns="http://www.w3.org/2000/svg" viewBox="0 0 200 200"><defs></defs><path d="M180.961 158.022c.028.43.7.433.673 0q-.518-7.695-.711-15.4a658.46 658.46 0 0 1-.2-14.94q-.015-4.365-.01-8.729a.337.337 0 0 0-.673 0c0 5.091 0 10.183.055 15.274.055 4.994.167 9.987.38 14.976q.19 4.409.486 8.819zm3.321-39.074q0 7.542.229 15.082c.144 4.987.343 9.972.55 14.956l.375 9.036c.017.432.691.434.673 0-.212-5.212-.441-10.422-.64-15.634a723.864 723.864 0 0 1-.436-14.8q-.075-4.318-.077-8.637a.337.337 0 0 0-.674 0zM90.8 174.546c-.229-4.263-.3-8.531-.433-12.8q-.065-2.025-.156-4.049c-.019-.432-.692-.434-.673 0 .2 4.363.259 8.73.42 13.094q.069 1.876.169 3.752c.02.434.693.436.673.003zm4.51 0c0-5.734-.5-11.454-.5-17.187a.337.337 0 0 0-.673 0c0 5.733.495 11.453.5 17.187a.337.337 0 0 0 .673 0zm4.425 0c0-5.736-.335-11.464-.687-17.187-.027-.431-.7-.434-.673 0 .351 5.723.684 11.451.687 17.187a.337.337 0 0 0 .673 0zM6.672 145.578c-.2-5.07-.318-10.144-.482-15.215q-.072-2.219-.161-4.436c-.017-.432-.69-.434-.673 0 .2 5.071.318 10.144.482 15.216q.072 2.217.16 4.435c.018.432.691.434.674 0zm4.043-.018a.337.337 0 0 0 .674 0c0-4.494-.421-8.959-.589-13.445a127.845 127.845 0 0 1-.086-4.675.337.337 0 0 0-.673 0q0 3.8.229 7.6c.123 2.085.278 4.169.361 6.256q.086 2.13.084 4.264z" fill="#000000"></path><path d="M85.625 106.079a1.992 1.992 0 0 0-.792 1.26c-.006.607.817.753 1.259.91l1.971.7 8.093 2.875 8.093 2.876a81.539 81.539 0 0 0 7.818 2.539 18.216 18.216 0 0 0 7.969.416 26.6 26.6 0 0 0 7.279-3.174 99.417 99.417 0 0 0 12.275-8q-3.851-.723-7.678-1.553-7.383-1.608-14.672-3.606-7.227-1.972-14.357-4.287-.846.42-1.7.833-.71.345-1.422.686a.285.285 0 0 1-.084.041q-1.513.726-3.027 1.455a.285.285 0 0 1-.068.033c-3.187 1.539-6.353 3.12-9.384 4.953a10.2 10.2 0 0 0-1.573 1.043zm24.875 4.881a3.088 3.088 0 0 1-2.871.354 491.677 491.677 0 0 1-3.556-1.161l-1.649-.54a4.944 4.944 0 0 1-1.3-.478 1.229 1.229 0 0 1-.31-1.667 2.931 2.931 0 0 1 1.139-.77 3.164 3.164 0 0 1 1.576-.548 5.458 5.458 0 0 1 1.48.4q.727.236 1.459.464c1.034.325 2.069.642 3.1.967.721.227 1.757.348 2 1.2.254.887-.469 1.325-1.078 1.781zm-9.7-8.76 5.429 1.666.1.032a62.873 62.873 0 0 0 1.914-1.031c.439-.249.876-.506 1.3-.785-1.864-.642-3.723-1.3-5.571-1.992-.4-.151-.227-.8.179-.65q2.6.975 5.219 1.887c.278.1.56.185.839.28.18-.137.356-.277.525-.427.323-.287.8.188.476.476-.08.071-.165.135-.247.2q3.055 1.034 6.138 1.98c.337-.213.682-.413 1.017-.631.364-.238.7.345.339.581-.166.109-.338.207-.505.314q2.982.906 5.98 1.758a16.521 16.521 0 0 0 1.407-1.14c.318-.293.8.182.476.476a16 16 0 0 1-1.069.89q1.909.535 3.821 1.06a.337.337 0 0 1-.179.649c-1.443-.392-2.882-.8-4.321-1.2a31.623 31.623 0 0 1-2.989 1.832l4.436 1.362c.413.127.236.777-.179.649l-5.086-1.561c-.6.32-1.2.634-1.792.95-.382.2-.722-.378-.339-.581.4-.216.814-.431 1.224-.648l-5.894-1.81c-.474.264-.939.54-1.418.795-.383.2-.723-.379-.34-.582.293-.156.577-.327.868-.486l-6.149-1.888c-.411.208-.821.414-1.223.624-.384.2-.725-.382-.34-.582l.632-.328-4.856-1.491c-.412-.126-.235-.776.178-.648z" fill="#aceac7"></path><path d="M123.222 106.358c-.212-.06-.425-.116-.637-.177q-2.7-.774-5.392-1.606-1.448.908-2.931 1.757l5.921 1.819a34.794 34.794 0 0 0 3.039-1.793zm-6.875-2.05q-3.016-.939-6.006-1.957a22.761 22.761 0 0 1-3.068 1.835l6.1 1.873q1.504-.845 2.974-1.751z" fill="#aceac7"></path><path d="M132.486 75.514a33.81 33.81 0 0 1 3.68 1.22 8.392 8.392 0 0 1 2.983 1.808 5.244 5.244 0 0 1 .923 1.416 6.507 6.507 0 0 1 .611-.269 5.987 5.987 0 0 0-1.057-1.623 7.97 7.97 0 0 0-2.546-1.672 28.567 28.567 0 0 0-3.2-1.175c-2.264-.7-4.587-1.181-6.9-1.683l-3.516-.763c-.066.214-.126.431-.18.649l1.622.352c2.534.549 5.082 1.053 7.58 1.74zm-21.571-4.779 5.569 1.209c.01-.23.009-.46 0-.688l-4.078-.885c-1.234-.268-2.491-.608-3.758-.828q.167.38.331.759c.655.137 1.303.298 1.936.433zm29.935 15.877c-.009.557-.02 1.113-.028 1.668-.056 3.89-.2 7.78-.391 11.666q-.149 2.97-.345 5.937l-3.345-.757-5.043-1.142c0 .064-.006.128-.01.191v.074a.342.342 0 0 1-.348.336.349.349 0 0 1-.078-.011l-2.013-.456a.332.332 0 0 1-.235-.235c-.026-.1-.044-.21-.067-.315l-.048-.219-1.112-.252-8.222-1.861c-1.182-.314-2.365-.619-3.542-.946q-6.023-1.674-11.971-3.582l-.829-.267-.085-.028c-.163-3.585-.263-7.173-.363-10.761-.058-2.053-.116-4.107-.189-6.16q-.052-1.452-.116-2.9c-.036-.8-.091-1.614-.09-2.42a30.991 30.991 0 0 0-.679-.192v.463c.022.973.09 1.946.131 2.918a485.9 485.9 0 0 1 .214 6.276c.065 2.225.123 4.451.19 6.676.007.237.018.474.026.71.055 1.78.112 3.56.191 5.339l.007.134c-.4.174-.785.395-1.17.583q-.865.421-1.736.837l.115.038a.349.349 0 0 1 .1.607l1.422-.686q.85-.412 1.7-.833 7.129 2.306 14.357 4.287 7.289 1.99 14.672 3.606 3.826.836 7.678 1.553a99.532 99.532 0 0 1-12.275 8 26.6 26.6 0 0 1-7.279 3.174 18.216 18.216 0 0 1-7.969-.416 81.539 81.539 0 0 1-7.818-2.539l-8.093-2.876-8.093-2.875-1.971-.7c-.441-.157-1.265-.3-1.259-.91a1.992 1.992 0 0 1 .792-1.26 10.2 10.2 0 0 1 1.576-1.04c3.031-1.833 6.2-3.414 9.384-4.953a.3.3 0 0 1-.2 0l-.79-.271q-1.168.566-2.331 1.145c-1.755.88-3.493 1.8-5.192 2.78a28.525 28.525 0 0 0-2.509 1.531 3.307 3.307 0 0 0-1.349 1.71 1.365 1.365 0 0 0 .907 1.622c.923.387 1.895.681 2.838 1.016l6.053 2.151 12.227 4.343c3.727 1.321 7.634 2.643 11.643 2.472a15.375 15.375 0 0 0 5.611-1.379c1.819-.807 3.565-1.8 5.3-2.778a96.877 96.877 0 0 0 9.6-6.194q1.12-.822 2.219-1.674l.036-.027a.254.254 0 0 0 .1-.287c.087-1.314.158-2.629.232-3.944.012-.23.028-.46.04-.689.129-2.371.244-4.743.327-7.116q.105-2.975.154-5.95c.011-.713.027-1.43.037-2.147-.246.063-.471.133-.696.205z" fill="#000000"></path><path d="M99.488 98.6c-.27-.087-.537-.179-.806-.267l-.089.043L96.45 99.4l.109.037a.356.356 0 0 1 .094.613q1.512-.73 3.027-1.456a.294.294 0 0 1-.192.006zm10.091 9.378c-1.034-.325-2.069-.642-3.1-.967q-.73-.229-1.459-.464a5.458 5.458 0 0 0-1.48-.4 3.164 3.164 0 0 0-1.576.548 2.931 2.931 0 0 0-1.139.77 1.229 1.229 0 0 0 .31 1.667 4.944 4.944 0 0 0 1.3.478q.825.269 1.649.54c1.184.39 2.369.78 3.556 1.161a3.088 3.088 0 0 0 2.871-.354c.609-.456 1.332-.894 1.078-1.781-.253-.85-1.289-.971-2.01-1.198zm.584 2.4a2.383 2.383 0 0 1-2.218.328c-.819-.257-1.634-.528-2.45-.795l-2.615-.859c-.385-.126-.777-.24-1.158-.376a.559.559 0 0 1-.43-.533c0-.4.4-.538.693-.7s.589-.327.89-.474c.743-.365 1.57.1 2.291.328.825.265 1.652.522 2.48.779.938.291 1.89.56 2.818.884.289.1.533.281.489.626-.046.38-.52.591-.79.793zm18.406-3.231q-1.912-.521-3.821-1.06c.367-.284.727-.576 1.069-.89.319-.294-.158-.769-.476-.476a16.521 16.521 0 0 1-1.407 1.14q-3-.849-5.98-1.758c.167-.108.339-.206.505-.314.362-.236.025-.819-.339-.581-.335.218-.68.417-1.017.631q-3.082-.95-6.138-1.98c.082-.069.167-.132.247-.2.324-.288-.153-.763-.476-.476-.169.15-.345.29-.525.427-.279-.095-.561-.183-.839-.28q-2.622-.91-5.219-1.887c-.406-.152-.582.5-.179.65 1.848.692 3.707 1.35 5.571 1.992a21.66 21.66 0 0 1-1.3.785c-.631.357-1.272.7-1.914 1.031l-.1-.032-5.431-1.669c-.415-.128-.592.522-.179.649l4.857 1.491q-.317.163-.632.328c-.385.2-.044.782.34.582.4-.21.812-.416 1.223-.624l6.149 1.888c-.291.159-.575.33-.868.486-.383.2-.043.785.34.581.479-.254.944-.53 1.418-.794l5.894 1.81c-.41.217-.82.432-1.224.647-.383.2-.043.786.339.582.593-.316 1.193-.63 1.792-.95l5.086 1.561c.415.128.592-.522.179-.649l-4.437-1.362a31.512 31.512 0 0 0 2.99-1.832c1.439.405 2.878.81 4.321 1.2a.337.337 0 0 0 .179-.649zm-15.2-1.088-6.1-1.873a22.761 22.761 0 0 0 3.068-1.835q2.991 1.017 6.006 1.957-1.466.906-2.971 1.751zm6.811 2.092-5.921-1.819q1.484-.847 2.931-1.757 2.688.828 5.392 1.606c.212.061.425.117.637.177-.975.653-2 1.237-3.039 1.793z" fill="#000000"></path><path d="M110.569 74.273a63.793 63.793 0 0 0-1.59-3.971l-.331-.759-.378-.856c-.816-1.835-1.593-3.7-2.555-5.461a17.469 17.469 0 0 0-3.381-4.5 16.545 16.545 0 0 0-4.216-2.808 25.885 25.885 0 0 0-10.074-2.231c-3.771-.135-7.836.262-11.055 2.407-2.757 1.838-4.922 5.03-4.459 8.467a5.661 5.661 0 0 0 2.97 4.214 20.541 20.541 0 0 0 5.409 2.039c3.9.949 7.934 1.1 11.911 1.516a55.049 55.049 0 0 1 6.266 1.011c.869.194 1.747.4 2.617.635.228.061.453.126.679.192a22.3 22.3 0 0 1 2.524.879 8.891 8.891 0 0 1 4.165 3.369 14.6 14.6 0 0 1 1.777 4.869c.175.839.314 1.684.448 2.529a.342.342 0 0 0 .65 0 23.414 23.414 0 0 0-1.377-11.541zM80.236 58h.374a.337.337 0 0 1 0 .674h-.374a.337.337 0 0 1 0-.674zm.323 3.84.187-.187a.337.337 0 0 1 .476.476l-.187.187a.337.337 0 0 1-.476-.476zm5.662-2.9h.187a.337.337 0 0 1 0 .673h-.187a.337.337 0 0 1 0-.673zm4.264.149a.337.337 0 0 1-.673 0V58.9a.337.337 0 0 1 .673 0z" fill="#9cf0f0"></path><path d="M117.1 72.664c-.187 1.871-.674 3.722-.385 5.611a9.612 9.612 0 0 0 2.075 4.631 9.2 9.2 0 0 0 1.834 1.7 16.311 16.311 0 0 0 2.28 1.239A7.949 7.949 0 0 1 126.8 89a15.551 15.551 0 0 1 1.44 4.843c.54 3.2.623 6.5 1.375 9.671l1.415.32a147.291 147.291 0 0 0-.219-16.518 17.866 17.866 0 0 0-.243-2.2 6.892 6.892 0 0 0-1.78-3.89 3.914 3.914 0 0 0-2.053-.944 5.762 5.762 0 0 1-2.539-.819 5 5 0 0 1-1.819-3.659 11.607 11.607 0 0 1 1.175-5.221 14.38 14.38 0 0 0 1.263-5.541 11.372 11.372 0 0 0-1.361-5.228 11.219 11.219 0 0 0-8.454-5.69 6.816 6.816 0 0 0-5.081 1.029 4.306 4.306 0 0 0-1.185 4.386c.854 3.687 4.539 5.406 6.9 7.994a5.5 5.5 0 0 1 1.35 2.423 8.158 8.158 0 0 1 .116 2.708zm1.894 1.381a.337.337 0 0 1 .674 0v.187a.337.337 0 0 1-.674 0zm-2.431-9.539v-.187a.337.337 0 0 1 .673 0v.187a.337.337 0 0 1-.673 0z" fill="#ffd35c"></path><path d="M116.114 74.908a11 11 0 0 0 .39 5.293 10.3 10.3 0 0 0 2.821 4.237 23.645 23.645 0 0 0 4.528 2.643 5.894 5.894 0 0 1 2.051 1.742 8.528 8.528 0 0 1 1.108 2.612c.921 3.322 1.052 6.789 1.565 10.183q.132.871.318 1.731l.048.219c.023.105.041.211.067.315a.332.332 0 0 0 .235.235l2.013.456a.342.342 0 0 0 .416-.247.333.333 0 0 0 .01-.078v-.074c0-.063.006-.127.01-.191a146.444 146.444 0 0 0-.211-16.669c-.153-2.739-.751-6.447-3.739-7.481-.944-.326-2.012-.241-2.9-.749a3.438 3.438 0 0 1-1.39-1.636 6.2 6.2 0 0 1-.174-4.027c.054-.218.114-.435.18-.649.026-.084.049-.169.077-.252a32.216 32.216 0 0 0 1.836-5.72 12.008 12.008 0 0 0-.5-5.382 11.786 11.786 0 0 0-7.29-7.372c-2.931-1.036-7.765-1.285-9.272 2.126a6.037 6.037 0 0 0 .13 4.68 11.7 11.7 0 0 0 3.351 4.172c.72.627 1.465 1.225 2.181 1.857a8.492 8.492 0 0 1 1.943 2.171 4.906 4.906 0 0 1 .562 2.2c.009.228.01.458 0 .688-.036 1.004-.233 2.018-.364 2.967zm-.481-7.375c-2.364-2.588-6.049-4.307-6.9-7.994a4.306 4.306 0 0 1 1.185-4.386A6.811 6.811 0 0 1 115 54.125a11.216 11.216 0 0 1 8.46 5.686 11.372 11.372 0 0 1 1.361 5.228 14.38 14.38 0 0 1-1.263 5.541 11.608 11.608 0 0 0-1.175 5.222 5 5 0 0 0 1.817 3.658 5.762 5.762 0 0 0 2.539.819 3.921 3.921 0 0 1 2.053.944 6.892 6.892 0 0 1 1.78 3.89 17.866 17.866 0 0 1 .243 2.2 147.291 147.291 0 0 1 .219 16.518l-1.415-.32c-.752-3.168-.835-6.466-1.376-9.671A15.523 15.523 0 0 0 126.8 89a7.949 7.949 0 0 0-3.9-3.153 16.311 16.311 0 0 1-2.28-1.239 9.2 9.2 0 0 1-1.834-1.7 9.612 9.612 0 0 1-2.075-4.631c-.289-1.889.2-3.74.385-5.611a8.158 8.158 0 0 0-.112-2.708 5.5 5.5 0 0 0-1.351-2.425z" fill="#000000"></path><path d="M68.969 37.9a13.607 13.607 0 0 0 4.832-1c1.592-.527 3.181-1.06 4.787-1.543a37.91 37.91 0 0 1 9.739-1.822 23.124 23.124 0 0 1 8.5 1.413 25.74 25.74 0 0 1 5.237 2.566A44.847 44.847 0 0 0 95.744 31a23.174 23.174 0 0 0-7.377-3.986 24.744 24.744 0 0 0-16.091.279 21.311 21.311 0 0 0-3.8 1.84 8 8 0 0 0-3.043 2.991 4.029 4.029 0 0 0 .065 4.1 4.475 4.475 0 0 0 3.471 1.676zm4.945-5.191a.337.337 0 0 1 .673 0v.191a.337.337 0 0 1-.673 0zm-3.166 1.633.187.187a.337.337 0 0 1-.476.476l-.187-.187a.337.337 0 0 1 .476-.476z" fill="#fee992"></path><path d="M65.663 37.379c2.524 2.082 5.9.977 8.652.064a71.752 71.752 0 0 1 10-2.8 23.5 23.5 0 0 1 9.527.128 25.426 25.426 0 0 1 8.144 3.481 19.622 19.622 0 0 1 1.685 1.24.281.281 0 0 0 .46-.012.286.286 0 0 0 .081-.4.3.3 0 0 0-.065-.069 65.785 65.785 0 0 0-6.437-7.207 25.063 25.063 0 0 0-7.376-4.786 25.427 25.427 0 0 0-16.481-.95 23.766 23.766 0 0 0-3.953 1.516 14.529 14.529 0 0 0-3.635 2.374 6.168 6.168 0 0 0-1.995 3.7 4.113 4.113 0 0 0 1.393 3.721zm-.234-5.256a8 8 0 0 1 3.043-2.991 21.311 21.311 0 0 1 3.8-1.84 24.744 24.744 0 0 1 16.091-.279A23.174 23.174 0 0 1 95.744 31a44.847 44.847 0 0 1 6.315 6.519 25.792 25.792 0 0 0-5.237-2.566 23.124 23.124 0 0 0-8.5-1.413 37.91 37.91 0 0 0-9.739 1.822c-1.606.483-3.195 1.016-4.787 1.543a13.607 13.607 0 0 1-4.832 1 4.475 4.475 0 0 1-3.475-1.682 4.029 4.029 0 0 1-.06-4.1z" fill="#000000"></path><path d="m88.81 43.415-4.622-1.177c-1.305-.332-2.608-.671-3.936-.9-2.377-.405-4.971-.512-7.162.659a10.741 10.741 0 0 0-2.932 2.652A6.383 6.383 0 0 1 67 46.99c-1.352.311-2.486-.549-3.664-1.055a4.652 4.652 0 0 0-3.686-.018 8.471 8.471 0 0 0-3.1 2.264 4.381 4.381 0 0 0-1.275 3.387 4.088 4.088 0 0 0 1.949 2.84 6.709 6.709 0 0 0 3.818.838 12.345 12.345 0 0 0 7.2-2.746c2.092-1.693 3.32-4.185 5.4-5.89 3.615-2.971 8.839-3.633 13.333-2.89q.837.138 1.66.346a.326.326 0 0 0 .4-.228v-.017a.309.309 0 0 0-.191-.394zm-26.38 7.812a.337.337 0 0 1-.673 0v-.187a.337.337 0 0 1 .673 0zm-2.9.051-.187.187a.337.337 0 0 1-.476-.476l.187-.187a.337.337 0 0 1 .476.476z" fill="#76d3de"></path><path d="M42.607 71.851a2.326 2.326 0 0 0 2.068.81c1.791-.178 2.847-2.029 3.521-3.483.406-.875.77-1.77 1.25-2.61a16.789 16.789 0 0 1 1.454-2.115 20.617 20.617 0 0 1 3.368-3.326c.491-.387 1-.762 1.534-1.1a19.037 19.037 0 0 0-3.108.644 15.833 15.833 0 0 0-6.039 3.371 18.067 18.067 0 0 0-3.737 4.829c-.468.871-.989 2.071-.311 2.98zm1.942-3.791a.337.337 0 0 1 .673 0v.187a.337.337 0 0 1-.673 0z" fill="#fee992"></path><path d="M41.668 71.366a2.451 2.451 0 0 0 1.422 1.69 3.706 3.706 0 0 0 4.31-1.276c1.317-1.536 1.816-3.576 2.866-5.28a18.575 18.575 0 0 1 3.6-4.172 14.665 14.665 0 0 1 3.7-2.5c.309-.134.149-.645-.17-.627a19.228 19.228 0 0 0-7.918 2.054 16.51 16.51 0 0 0-5.178 4.303 20.143 20.143 0 0 0-1.967 2.971 4.284 4.284 0 0 0-.665 2.837zm4.986-7.326a15.833 15.833 0 0 1 6.039-3.371 19.037 19.037 0 0 1 3.108-.644c-.532.34-1.043.716-1.534 1.1a20.583 20.583 0 0 0-3.367 3.329 16.706 16.706 0 0 0-1.453 2.114c-.48.84-.844 1.735-1.25 2.611-.674 1.454-1.73 3.3-3.521 3.482a2.326 2.326 0 0 1-2.068-.81c-.678-.909-.157-2.109.31-2.982a18.067 18.067 0 0 1 3.736-4.829z" fill="#000000"></path><path d="M27.567 60.612a9.973 9.973 0 0 0 2.533-1.867c1.779-1.593 3.468-3.29 5.129-5 .826-.852 1.654-1.711 2.458-2.591a64.549 64.549 0 0 1-6.009 2.745 30.6 30.6 0 0 0-3.654 1.839 7.108 7.108 0 0 0-2.913 2.753 1.622 1.622 0 0 0 .223 1.966 2.146 2.146 0 0 0 2.233.155z" fill="#9cf0f0"></path><path d="M25.736 61.41c1.434.434 2.775-.455 3.837-1.323a66.177 66.177 0 0 0 5.1-4.818 73.6 73.6 0 0 0 5.127-5.541.338.338 0 0 0-.477-.476c-2.234 1.813-5.078 2.794-7.685 3.928a32.058 32.058 0 0 0-3.957 1.972 8.173 8.173 0 0 0-3.049 2.789 2.8 2.8 0 0 0-.358 2.039 2.1 2.1 0 0 0 1.462 1.43zm-.624-2.924a7.108 7.108 0 0 1 2.913-2.753 30.529 30.529 0 0 1 3.654-1.839 64.549 64.549 0 0 0 6.009-2.745c-.8.88-1.633 1.739-2.458 2.591-1.661 1.715-3.35 3.412-5.129 5a9.973 9.973 0 0 1-2.534 1.867 2.146 2.146 0 0 1-2.232-.16 1.622 1.622 0 0 1-.223-1.966zm39.937 14.949a2.106 2.106 0 0 0 2.263-.336 1.962 1.962 0 1 0-3.124-1.6 2.062 2.062 0 0 0 .861 1.936zm1.312-3.174a1.389 1.389 0 0 1 .965 1.655 1.52 1.52 0 0 1-1.615 1.032c-.745-.109-.834-.822-.85-1.452a1.286 1.286 0 0 1 1.318-1.253 1.385 1.385 0 0 1 .182.018zM46.607 56.374a2.094 2.094 0 0 0-.99-2.611 1.5 1.5 0 0 0-1.37-.165 1.578 1.578 0 0 0-.816 1.15 2.357 2.357 0 0 0 .827 2.365 1.686 1.686 0 0 0 2.3-.639c.015-.033.032-.066.049-.1zm-2.527-1.447a.92.92 0 0 1 .469-.725.972.972 0 0 1 .878.25 1.307 1.307 0 0 1 .486 1.765.95.95 0 0 1-1.309.3.9.9 0 0 1-.136-.1 1.786 1.786 0 0 1-.388-1.49zm13.605-15.785a2.522 2.522 0 0 0-.182-2.854 1.927 1.927 0 0 0-2.826.413.21.21 0 0 0-.015.03.273.273 0 0 0-.038.038 2.38 2.38 0 0 0 .42 2.706 1.709 1.709 0 0 0 2.641-.333zM55.2 37.131c.418-.5 1.3-.957 1.832-.367a1.851 1.851 0 0 1 .132 1.936 1.032 1.032 0 0 1-1.378.482 1.047 1.047 0 0 1-.355-.282 1.748 1.748 0 0 1-.231-1.769z" fill="#000000"></path><path d="M33.552 41.1a3.291 3.291 0 0 0 1.274-3.59 1.993 1.993 0 0 0-1.271-1.61 3.244 3.244 0 0 0-2.092.484 2.806 2.806 0 0 0-1.779 2.7 3.253 3.253 0 0 0 1 1.961 2.425 2.425 0 0 0 2.868.055z" fill="#fee992"></path><path d="M33.846 41.713a3.965 3.965 0 0 0 1.643-4.323 2.74 2.74 0 0 0-1.6-2.09 3.688 3.688 0 0 0-2.769.505A3.5 3.5 0 0 0 29 38.878a3.868 3.868 0 0 0 1.226 2.669 3.088 3.088 0 0 0 3.62.166zm-2.383-5.327a3.244 3.244 0 0 1 2.092-.484 1.993 1.993 0 0 1 1.271 1.611 3.291 3.291 0 0 1-1.274 3.59 2.425 2.425 0 0 1-2.872-.051 3.253 3.253 0 0 1-1-1.961 2.806 2.806 0 0 1 1.779-2.7zM10.543 58.33a.335.335 0 0 0 .027.045c1.13 1.256 4.182-.15 3.226-1.89a1.751 1.751 0 0 0-1.655-1.005 2.167 2.167 0 0 0-1.527.968 1.6 1.6 0 0 0-.1 1.859c.011.01.021.014.029.023zm1.865-2.178a.988.988 0 0 1 .737 1.423 1.609 1.609 0 0 1-2.067.348c-.505-.761.51-1.894 1.33-1.771z" fill="#000000"></path><path d="M48.048 90.448a2.509 2.509 0 0 0 3.028-.229 3.121 3.121 0 0 0 1.28-3.3 2.743 2.743 0 0 0-5.31-.349 3.519 3.519 0 0 0 1.002 3.878z" fill="#ffd35c"></path><path d="M48.992 91.546A3.683 3.683 0 0 0 51.107 91a3.879 3.879 0 0 0 1.985-3.8 3.662 3.662 0 0 0-2.842-3.15 3.569 3.569 0 0 0-3.85 2.35 4.233 4.233 0 0 0 .975 4.353 2.794 2.794 0 0 0 1.617.793zm-1.946-4.972a2.743 2.743 0 0 1 5.31.349 3.121 3.121 0 0 1-1.28 3.3 2.509 2.509 0 0 1-3.028.229 3.519 3.519 0 0 1-1-3.874zM130.92 70.3l-.383-2.8c-.059-.427-.708-.245-.65.179l.384 2.8c.058.43.707.248.649-.179zm3.22-10.852a22.565 22.565 0 0 1-.577-4.022c-.023-.431-.7-.434-.674 0a23.724 23.724 0 0 0 .6 4.2c.101.423.751.244.651-.178zm-27.534-12.334a27.088 27.088 0 0 1 4.413 1.466c.394.17.737-.41.34-.582a28.119 28.119 0 0 0-4.574-1.533c-.421-.102-.601.548-.179.649zm-1.421-14.724 3.986 1.736c.394.171.737-.409.34-.581l-3.986-1.736c-.393-.172-.737.408-.34.581zM93.41 39.651c.432.038.43-.636 0-.673l-3.93-.342c-.432-.037-.429.636 0 .674zM78.343 52.069l-4.485 1.508c-.409.137-.233.788.179.649l4.485-1.508c.408-.137.233-.788-.179-.649zM64.137 62.193a13.74 13.74 0 0 0-3.252 1.55c-.362.236-.025.819.34.582a13.073 13.073 0 0 1 3.091-1.483c.41-.133.234-.784-.179-.649zM49.542 48.635l5.249-1.647c.412-.129.236-.779-.179-.649l-5.249 1.647c-.412.13-.236.78.179.649zm14.624-5.351a13.416 13.416 0 0 1 2.788-1.131.337.337 0 0 0-.179-.649 14.2 14.2 0 0 0-2.949 1.2c-.381.206-.041.788.34.58z" fill="#000000"></path><path d="M158.754 101.921a.271.271 0 0 1 .022-.089.242.242 0 0 1 .1-.1c.013-.008.015-.022.029-.029l.037-.015a12.63 12.63 0 0 1 2.409-.769 14.156 14.156 0 0 1-.42-2.859 2.2 2.2 0 0 1-1.077.188c-.43-.032-.432-.706 0-.673a1.628 1.628 0 0 0 1.069-.28 26.732 26.732 0 0 1 .2-2.828 2.488 2.488 0 0 1 .718-1.678 5.606 5.606 0 0 0-.3-1.271c-.15-.408.5-.582.65-.179a6.048 6.048 0 0 1 .311 1.286 1.6 1.6 0 0 1 .931.983 7.606 7.606 0 0 1 .489 2.481c.077 1.455.274 2.9.408 4.349.14-.016.279-.033.419-.047a36.944 36.944 0 0 1 .056-3.49l-.049-.956c-.12-2.319-.259-4.642-.313-6.964a40.73 40.73 0 0 1-4.158 1.16 45.608 45.608 0 0 1-16.354.6q.094 1.836.211 3.672.468 7.276 1.233 14.531a24.606 24.606 0 0 0 3.547.439 78.743 78.743 0 0 0 8.8.015q.854-.039 1.709-.092l-.692-7.316c-.006-.024.011-.042.015-.069zm1.2-10.728.5 3.118c.068.424-.581.606-.649.179l-.5-3.118c-.067-.424.582-.606.65-.179zm-13.749 4.45-.328-3.87c-.036-.432.638-.428.674 0l.327 3.87c.037.432-.636.428-.672 0zm7.146.714a14.514 14.514 0 0 1-.484-3.835.337.337 0 0 1 .674 0 13.758 13.758 0 0 0 .459 3.656.337.337 0 0 1-.649.179z" fill="#fcafb7"></path><path d="M165.233 92.056c-.055-1.174-.114-2.349-.135-3.524a.336.336 0 0 0-.027-.075v-.036a.4.4 0 0 0-.034-.073.327.327 0 0 0-.037-.048v-.005a.271.271 0 0 0-.232-.1 84.2 84.2 0 0 0-11.33.347.341.341 0 0 1-.456.159.323.323 0 0 1-.124-.1q-2.375.243-4.732.6-2.329.357-4.638.841a.275.275 0 0 0-.144.086l-.008.009a.238.238 0 0 0-.037.051.274.274 0 0 0-.058.178c.2 4.055.5 8.105.85 12.149l.064.72c.058.652.114 1.305.175 1.957q.19 2.022.4 4.042a.349.349 0 0 0 .247.325 35.12 35.12 0 0 0 7.574.629q3.472.025 6.944-.2l-.009-.1-.054-.565q-.855.053-1.709.093a78.983 78.983 0 0 1-8.8-.016 24.606 24.606 0 0 1-3.547-.439q-.76-7.252-1.233-14.531-.118-1.836-.211-3.672a45.609 45.609 0 0 0 16.354-.6 40.73 40.73 0 0 0 4.158-1.16c.054 2.322.193 4.645.313 6.964l.049.956a32.147 32.147 0 0 1 .478-3.911c-.018-.326-.036-.638-.051-.951z" fill="#000000"></path><path d="m174.2 104.705-2.328 2.326c-.3.3-.683.878-1.177.744a1.172 1.172 0 0 1-.5-.374c-.223-.233-.443-.469-.665-.7-.42-.444-.821-.944-1.278-1.35-.177-.157-.168-.168-.353-.011l-.372.319c-.212.184-.421.37-.63.557q-1.351 1.22-2.6 2.547a.341.341 0 0 1-.476 0 6.365 6.365 0 0 1-1.852-3.576 18.345 18.345 0 0 1-2.034 1.345.3.3 0 0 1-.092.03l.576 6.089.051.013a4.5 4.5 0 0 0 .365.066c.361.053.726.082 1.09.109a53.823 53.823 0 0 0 6.376.039 28.145 28.145 0 0 0 6.171-.789q.157-3.386.316-6.77a1.741 1.741 0 0 1-.588-.614zm-12.476 3.655h-.25a.337.337 0 0 1 0-.673h.25a.337.337 0 0 1 0 .673z" fill="#ff8684"></path><path d="M162 104.335a.342.342 0 0 1 .575.238 5.655 5.655 0 0 0 1.49 3.464 44.895 44.895 0 0 1 2.359-2.3 10.277 10.277 0 0 1 1.316-1.131c.483-.3.829.095 1.145.428l1.278 1.35c.077.081.587.733.687.722.047 0 .2-.207.235-.242l.311-.31 2.689-2.686a.34.34 0 0 1 .563.149 1.148 1.148 0 0 0 .181.438l.122-2.605a30.86 30.86 0 0 1-2.947.878 24.869 24.869 0 0 1-12.549-.281l.321 3.391a17.662 17.662 0 0 0 2.224-1.503zm2.255.7a.337.337 0 0 1 .673 0v.068a.337.337 0 0 1-.673 0z" fill="#ff8684"></path><path d="m145.878 91.773.328 3.87c.036.428.709.432.673 0l-.327-3.87c-.036-.428-.71-.432-.674 0zm7.664.749a.337.337 0 0 0-.674 0 14.514 14.514 0 0 0 .484 3.835.337.337 0 0 0 .649-.179 13.758 13.758 0 0 1-.459-3.656zm6.909 1.789-.5-3.118c-.068-.427-.717-.245-.649.179q.247 1.558.5 3.118c.068.427.717.245.649-.179zm-7.02-5.769a.327.327 0 0 0 .016-.128q-.725-9.172-.659-18.382.019-2.6.1-5.193c.014-.433-.659-.432-.673 0q-.291 9.2.209 18.393.142 2.592.347 5.182a.327.327 0 0 0 .078.185.341.341 0 0 0 .58-.057z" fill="#000000"></path><path d="M160.945 78.2a19.251 19.251 0 0 0-6.165 3.195 10.978 10.978 0 0 0 2.057.481 19.974 19.974 0 0 0 5.869-.072 10.623 10.623 0 0 0 4.325-1.405 6.071 6.071 0 0 0-1.5-3.333 4.325 4.325 0 0 0-3.1-1.595 6.852 6.852 0 0 0-3.472 1.185 13.591 13.591 0 0 0-4.07 3.817 20.071 20.071 0 0 1 5.882-2.923c.411-.129.587.521.174.65zm-4.773-14.275q.488-.279.965-.575.928-.575 1.816-1.209a32.594 32.594 0 0 0 3.494-2.9c.315-.3.791.177.476.476a33.607 33.607 0 0 1-4.117 3.343q-1.118.768-2.3 1.443c-.2.114-.455.287-.721.416a8.362 8.362 0 0 0 8.7-2.346 16.107 16.107 0 0 0 4.059-6.116 11.249 11.249 0 0 0-8.193 1.105 12.27 12.27 0 0 0-5.279 6.772.331.331 0 0 1 .191.13 6.348 6.348 0 0 1 .909-.539zm-9.282-5.807a9.732 9.732 0 0 0 3.348 1.673 7.752 7.752 0 0 0 1.576.294 2.5 2.5 0 0 1-.722-.717c-.467-.646-.917-1.3-1.364-1.966-.926-1.368-1.831-2.75-2.743-4.127-.24-.363.343-.7.581-.34.779 1.176 1.554 2.354 2.339 3.526q.564.843 1.142 1.678c.207.3.412.6.627.889.126.172.312.444.54.518-.1-1.063-.209-2.125-.394-3.177a12.465 12.465 0 0 0-2.425-5.9 6.99 6.99 0 0 0-4.608-2.648 12.718 12.718 0 0 0-.694 3.068 9.5 9.5 0 0 0 .337 3.856 7.071 7.071 0 0 0 2.46 3.373zm-3.013 11.994a10.808 10.808 0 0 0 3.657.185 12.984 12.984 0 0 0 1.532-.242 15.969 15.969 0 0 1-6.4-3.7c-.315-.3.162-.774.476-.476a15.271 15.271 0 0 0 6.719 3.708.327.327 0 0 1 .088.043 21.651 21.651 0 0 0-1.332-3.038 10.744 10.744 0 0 0-4.368-4.585 7.133 7.133 0 0 0-6.416.174 8.819 8.819 0 0 0 .518 2.79 8.3 8.3 0 0 0 2.009 2.968 7.837 7.837 0 0 0 3.517 2.173z" fill="#97a0b2"></path><path d="M138.5 119.842a7.923 7.923 0 0 0-1.966-3.554 3.757 3.757 0 0 0-3.535-.983c-2.243.665-3.688 2.913-4.26 5.061a9.133 9.133 0 0 0-.2 3.847.34.34 0 0 0 .422.232.312.312 0 0 0 .073-.03c3.065-1.479 6.259-2.676 9.306-4.193a.281.281 0 0 0 .165-.223.5.5 0 0 0-.006-.11.357.357 0 0 0 .001-.047zm-9.354 3.786a8.425 8.425 0 0 1 1.22-5.352 5.717 5.717 0 0 1 2.041-1.985 2.966 2.966 0 0 1 3.357.23 6.329 6.329 0 0 1 2 3.234c-2.833 1.389-5.774 2.529-8.622 3.873z" fill="#000000"></path><path d="M133.692 117.022a3.61 3.61 0 0 0-1.181.822c-.3.312.174.789.476.476a3.143 3.143 0 0 1 1.045-.716c.397-.171.054-.751-.34-.582zm-13.254 13.105a3.424 3.424 0 0 0-.954-1.382 8.819 8.819 0 0 0-2.253-1.291q-1.3-.628-2.624-1.224a9.844 9.844 0 0 0-2.81-1.029 4.377 4.377 0 0 0-2.7.873c-.014.009-.02.025-.033.035s-.028 0-.04.011c-.989.629-1.892 1.392-2.9 2-1.193.716-2.412 1.391-3.615 2.088s-2.395 1.389-3.591 2.087-2.4 1.348-3.551 2.086c-.017.011-.025.029-.039.042s-.028 0-.04.011c-.839.58-1.412 1.415-.874 2.423a5.22 5.22 0 0 0 2.365 2.007c.953.477 1.952.873 2.93 1.3l1.583.684a13.063 13.063 0 0 0 1.547.643 3.163 3.163 0 0 0 1.71 0 6.191 6.191 0 0 0 1.683-.928c.015-.01.023-.028.036-.04l.04-.01a7.282 7.282 0 0 0 .965-.637l1.067-.709q.96-.638 1.919-1.28 2.073-1.386 4.141-2.776 2.469-1.654 4.945-3.3c.015-.01.023-.028.037-.041a1.84 1.84 0 0 0 .349-.215c.535-.361.928-.737.707-1.428zm-13.8.923a10.847 10.847 0 0 0 .742 3.529c.157.405-.494.578-.65.179a11.438 11.438 0 0 1-.766-3.708c-.017-.434.657-.432.674 0zm1.887 2.66a13.276 13.276 0 0 1-1.023-3.073c-.085-.424.564-.6.649-.179a12.547 12.547 0 0 0 .955 2.912c.184.39-.4.731-.582.34zm-4.271 7.156a2.7 2.7 0 0 1-1.715-.216q-1.7-.729-3.39-1.465a17.487 17.487 0 0 1-2.992-1.464 3.429 3.429 0 0 1-1.191-1.263c-.272-.578.085-1.014.524-1.346 1.633.837 3.327 1.538 4.933 2.433 1.656.923 3.278 1.907 4.97 2.766a3.517 3.517 0 0 1-1.139.555zm14.973-9.781a52.356 52.356 0 0 1-4.442-2.247c-1.51-.852-3.086-1.568-4.62-2.372l-.21-.113a4.331 4.331 0 0 1 1.084-.446 2.935 2.935 0 0 1 1.736.25c1.176.461 2.322 1.025 3.463 1.566.561.266 1.122.535 1.677.812a4.261 4.261 0 0 1 1.268.863 2.637 2.637 0 0 1 .606.908c.135.407-.242.594-.562.779z" fill="#000000"></path><path d="M61.471 121.893c4.376-2.537 8.657-5.233 12.994-7.835-.751-.236-1.5-.471-2.25-.717a9.694 9.694 0 0 0-2.862-.744 5.972 5.972 0 0 0-2.521.712q-1.218.543-2.42 1.118-2.469 1.182-4.869 2.5-2.337 1.281-4.6 2.689-.6.369-1.187.748a2.977 2.977 0 0 0-.742.573c-.513.635.083 1.416.713 1.663q1.959.706 3.911 1.435a170.17 170.17 0 0 0 3.833-2.142zm2.054-5.605 2.643.79a.337.337 0 0 1-.179.65l-2.643-.791a.337.337 0 0 1 .179-.649zm16.322 14.441q2.055-1.238 4.127-2.45c4.574-2.681 9.188-5.293 13.751-7.99a342.492 342.492 0 0 1-4.123-.972c-6.1-1.487-12.181-3.108-18.186-4.959q-1.888 1.128-3.765 2.275c-4.329 2.64-8.647 5.3-13.09 7.744q1.962.729 3.925 1.454a154.8 154.8 0 0 0 16.657 5.326zm20.653-9.315a.655.655 0 0 0-.523-.609l-1.186-.266q-2.073 1.231-4.161 2.441c-4.826 2.8-9.676 5.553-14.454 8.433a8.894 8.894 0 0 0 2.538.357 6.186 6.186 0 0 0 2.926-.955c2.827-1.7 5.675-3.362 8.5-5.059a233.82 233.82 0 0 0 4.153-2.542 93.874 93.874 0 0 0 1.726-1.111c.263-.171.497-.349.481-.689z" fill="#b26ee6"></path><path d="m63.346 116.937 2.643.791a.337.337 0 0 0 .179-.65l-2.643-.79a.337.337 0 0 0-.179.649zm5.77-13.018.006.013s.002-.009-.006-.013z" fill="#000000"></path><path d="M69.586 86.925c-.2 0-.4.006-.594.013-.421.018-.843.024-1.265.029a.343.343 0 0 0-.336.337c-.075 2.235-.031 4.48.052 6.717l.028.731.034.862a53.21 53.21 0 0 0 .642 7.348c.083.452.17 1.277.623 1.539.564.326.728-.443.785-.821a25.663 25.663 0 0 0 .207-2.68c.058-1.329.086-2.66.107-3.99.018-1.135.024-2.271.032-3.406 0-.25.005-.5.007-.749q.014-2.793.015-5.588a.342.342 0 0 0-.337-.342zm-.461 17.013v-.006l-.006-.013c.008 0 .006.009.006.013v-.007.013zm-.003-.006v.006-.013zm-.309-20.891c-1.413-.11-1.379 1.734-1.42 2.69a.34.34 0 0 0 .336.337c.34 0 .679-.008 1.019-.018.279-.009.558-.012.838-.012a.342.342 0 0 0 .337-.337c0-.955.25-2.553-1.11-2.66zm5.246 25.342c-.39-.882-.921-1.694-1.308-2.579a.327.327 0 0 0-.29-.166c-2.323.1-4.648.092-6.97.209a.335.335 0 0 0-.291.167c-.385.908-.83 1.789-1.216 2.7a.343.343 0 0 0 .137.465.348.348 0 0 0 .154.042 47.226 47.226 0 0 0 9.478-.294.339.339 0 0 0 .161-.045.333.333 0 0 0 .1-.079.379.379 0 0 0 .042-.067.36.36 0 0 0 .029-.055.18.18 0 0 0 .006-.032.3.3 0 0 0 .015-.094.343.343 0 0 0-.047-.172zm-32.665 10.608c-2.929-.145-5.851-.378-8.778-.479a10.889 10.889 0 0 1-1.073.645c-.09.047-.178.1-.27.144a7.612 7.612 0 0 1-3.078.843 6.916 6.916 0 0 1-2.863-.556c-.163-.067-.32-.144-.478-.221a10.083 10.083 0 0 1-1.018-.563 63.514 63.514 0 0 0-7.619 1.253.339.339 0 0 0 0 .649 48.593 48.593 0 0 0 19.782.24 56.179 56.179 0 0 0 5.484-1.294.338.338 0 0 0-.089-.661z" fill="#000000"></path><path d="M18.624 110.9a10.236 10.236 0 0 0 2.98 5.157 11.011 11.011 0 0 0 4.676 3.158 6.713 6.713 0 0 0 5.452-.93 11.223 11.223 0 0 0 5.255-8.121c-1.278.254-2.56.5-3.846.7a38.71 38.71 0 0 1-14.517.036z" fill="#ff9f48"></path><path d="M37.97 112.18a.337.337 0 0 0-.179.65c.86.236 2.422.813 1.788 2-.505.95-1.887.893-2.809.83-.433-.029-.431.644 0 .674 1.3.088 2.994-.012 3.518-1.448.569-1.553-1.109-2.373-2.318-2.706zm-2.544-2.396c-.8-.109-1.594-.2-2.4-.272a41.714 41.714 0 0 0-13.29.923 27.519 27.519 0 0 0 2.786.386 48.608 48.608 0 0 0 12.904-1.037zm58.961-12.91q2.142.744 4.3 1.458c.269.088.536.18.806.267a.3.3 0 0 0 .192 0 .285.285 0 0 0 .084-.041.35.35 0 0 0-.1-.607l-.115-.038c-6.34-2.058-12.561-4.477-18.959-6.359q-2.037-.6-4.107-1.084c-.305-.071-.608-.153-.914-.219-.423-.091-.6.558-.179.649.043.009.085.021.128.031a93.084 93.084 0 0 1 9.1 2.589c3.277 1.071 6.514 2.224 9.764 3.354zM91.176 98.3l4.414 1.515.79.271a.3.3 0 0 0 .2 0 .285.285 0 0 0 .068-.033.355.355 0 0 0-.094-.613l-.104-.04c-6.144-2.1-12.268-4.264-18.479-6.161q-2.262-.69-4.542-1.318c-.179-.049-.357-.1-.536-.15a.34.34 0 0 0-.327.56.31.31 0 0 0 .148.089c6.236 1.69 12.355 3.788 18.462 5.88zM6.134 158.606l27.8-.385 7.921-.11a.337.337 0 0 0 0-.673l-27.8.385-7.922.11a.337.337 0 0 0 0 .673z" fill="#000000"></path><path d="M39.09 156.017c-1.169-2.432-4.863-6.714-14.4-6.714-10.526 0-14.195 3.347-16.453 6.947 14.045-.325 18.222-.106 30.853-.233z" fill="#ffd35c"></path><path d="M22.793 160.108c.01 4.812 0 9.625 0 14.438a.337.337 0 0 0 .673 0c0-4.813.01-9.626 0-14.438a.337.337 0 0 0-.673 0zm3.227 14.438c0-4.814.108-9.625 0-14.438a.337.337 0 0 0-.673 0c.107 4.813 0 9.624 0 14.438a.337.337 0 0 0 .673 0zm86.765-77.872a2.77 2.77 0 0 0 1.368-2.706 2.629 2.629 0 0 0-2.005-2.238 2.561 2.561 0 0 0-2.8 1.684 3.016 3.016 0 0 0 .719 3.117 2.187 2.187 0 0 0 2.718.143zm-2.793-3.081a1.821 1.821 0 0 1 2.327-1.1 1.73 1.73 0 0 1 .179.074 2.024 2.024 0 0 1 .808 2.607c-.385.767-1.5 1.56-2.378 1.151a2.241 2.241 0 0 1-.936-2.732zm65.108 3.126-1.8.481a18.811 18.811 0 0 0 .379-2.476l1.449-.973c.358-.241.021-.824-.34-.582l-1.1.738a5.963 5.963 0 0 0-.064-.719 1.43 1.43 0 0 0-.644-1.088.34.34 0 0 0-.134-.08c-.042-.013-.078-.011-.119-.021l.175-1.092c.067-.424-.581-.607-.65-.179l-.2 1.243c-.865.164-1.415 1.086-1.723 1.94a22.648 22.648 0 0 0-.934 5.023c-.051.436-.1.873-.155 1.309.225.006.45.012.676.021.65.027 1.3.068 1.948.136.225.024.448.058.671.087.225-.879.437-1.761.624-2.649a.311.311 0 0 0 .244.03l1.87-.5a.337.337 0 0 0-.179-.649zm-5.739-3.119-1.179.362c0-.4 0-.795.006-1.193a17.916 17.916 0 0 0 .061-1.9 1.185 1.185 0 0 0-.331-.713v-.836a.337.337 0 0 0-.673 0v.491a1.271 1.271 0 0 0-1.441.879c-.209.76-.378 1.53-.523 2.3a32.147 32.147 0 0 0-.478 3.911 36.944 36.944 0 0 0-.056 3.49c.224-.021.448-.045.672-.062a36.414 36.414 0 0 1 2.087-.094q.335-.006.669-.008c.046-1.852.011-3.706 0-5.559l1.361-.419c.417-.123.241-.773-.175-.649zm-5.441 2.493a7.632 7.632 0 0 0-.489-2.481 1.606 1.606 0 0 0-.931-.983 6.048 6.048 0 0 0-.311-1.286c-.149-.4-.8-.229-.65.179a5.551 5.551 0 0 1 .3 1.271 2.494 2.494 0 0 0-.717 1.678 26.732 26.732 0 0 0-.2 2.828 1.628 1.628 0 0 1-1.069.28c-.432-.033-.43.641 0 .673a2.2 2.2 0 0 0 1.077-.188 14.156 14.156 0 0 0 .42 2.859c.136-.031.272-.064.409-.092.083-.017.168-.027.251-.043q.821-.16 1.652-.272c.222-.029.445-.049.668-.074-.136-1.45-.33-2.894-.41-4.349zm-6.833 17.393a5.813 5.813 0 0 0-1.146 1.473c-.208.381.373.721.581.34a5.241 5.241 0 0 1 1.041-1.337c.318-.295-.163-.771-.476-.476zm6.005 1.557h-2a.337.337 0 0 0 0 .674h2a.337.337 0 0 0 0-.674zm-3.792 2.623-.39 1.742c-.094.422.555.6.65.179l.389-1.742c.097-.423-.549-.603-.649-.179zm8.823-2.309a8.319 8.319 0 0 1-1.912.048c-.432-.036-.429.637 0 .674a9.089 9.089 0 0 0 2.091-.073c.427-.062.246-.706-.179-.649zm-15.537-2.317c-.144-.405-.8-.231-.649.179l.624 1.745c.145.405.8.231.649-.179z" fill="#000000"></path><path d="M175.605 101.228a.234.234 0 0 0-.033-.049.32.32 0 0 0-.042-.055l-.008-.008a.257.257 0 0 0-.194-.08 20.368 20.368 0 0 0-2.791-.549c-.223-.029-.446-.063-.671-.087-.648-.068-1.3-.109-1.948-.136-.226-.009-.451-.015-.676-.021-.195 0-.39-.015-.584-.017h-.483q-.335 0-.669.008c-.7.013-1.392.041-2.087.094-.224.017-.448.041-.672.062-.14.014-.279.032-.419.047-.223.025-.446.045-.668.074q-.831.111-1.652.272c-.083.016-.168.026-.251.043-.137.028-.273.061-.409.092a12.63 12.63 0 0 0-2.409.769l-.037.015c-.014.007-.016.021-.029.029a.236.236 0 0 0-.1.1.271.271 0 0 0-.022.089c0 .027-.022.045-.018.077l.692 7.316.054.565.009.1.179 1.886c.03.319.056.639.091.957a.413.413 0 0 0 .246.4 3.232 3.232 0 0 0 .962.2 33.1 33.1 0 0 0 3.817.194 59.961 59.961 0 0 0 5.052-.158 24.338 24.338 0 0 0 5.046-.782.346.346 0 0 0 .247-.325v-.067l.032-.688.478-10.217a.3.3 0 0 0-.033-.15zm-3.6 1.5c1-.238 1.978-.542 2.947-.878l-.122 2.605a1.148 1.148 0 0 1-.181-.438.341.341 0 0 0-.421-.232.346.346 0 0 0-.142.083l-2.689 2.686-.311.31c-.034.035-.188.237-.235.242-.1.011-.61-.641-.687-.722l-1.278-1.35c-.316-.333-.662-.731-1.145-.428a10.277 10.277 0 0 0-1.316 1.131 44.51 44.51 0 0 0-2.359 2.3 5.661 5.661 0 0 1-1.49-3.464.342.342 0 0 0-.575-.238 17.662 17.662 0 0 1-2.224 1.5l-.321-3.391a24.869 24.869 0 0 0 12.544.284zm2.469 9.358a28.145 28.145 0 0 1-6.171.789 53.823 53.823 0 0 1-6.376-.039 15.29 15.29 0 0 1-1.09-.109 4.5 4.5 0 0 1-.365-.066l-.051-.013-.576-6.089a.3.3 0 0 0 .092-.03 18.345 18.345 0 0 0 2.034-1.345 6.365 6.365 0 0 0 1.852 3.576.341.341 0 0 0 .476 0q1.251-1.323 2.6-2.547.314-.28.63-.557l.372-.319c.185-.157.176-.146.353.011.457.406.858.906 1.278 1.35.222.234.442.47.665.7a1.172 1.172 0 0 0 .5.374c.494.134.879-.447 1.177-.744l2.328-2.326a1.741 1.741 0 0 0 .589.611q-.162 3.387-.321 6.773z" fill="#000000"></path><path d="M161.721 107.687h-.25a.337.337 0 0 0 0 .673h.25a.337.337 0 0 0 0-.673zm3.204-2.587v-.068a.337.337 0 0 0-.673 0v.068a.337.337 0 0 0 .673 0z" fill="#000000"></path><path d="M89.033 49.926a17.5 17.5 0 0 0 3-4.161 23.341 23.341 0 0 0 2.191 6.075.339.339 0 0 0 .581 0q1.618-2.8 3.338-5.544a19 19 0 0 0 1.457 3.595c.2.383.784.043.581-.339a18.3 18.3 0 0 1-1.595-4.175.34.34 0 0 0-.615-.08q-1.765 2.8-3.424 5.659a22.754 22.754 0 0 1-2.056-6.279.34.34 0 0 0-.615-.081 16.942 16.942 0 0 1-3.32 4.854c-.302.31.174.786.477.476z" fill="#ff8684"></path><path d="m53.437 77.972.045-3.116 2.733 1.589a.339.339 0 0 0 .463-.127.322.322 0 0 0 .031-.074l.75-4.081a6.9 6.9 0 0 0 2.467 1.165c.42.1.6-.546.179-.649a6.242 6.242 0 0 1-2.639-1.355.34.34 0 0 0-.481.008.355.355 0 0 0-.082.14l-.762 4.151-2.818-1.638a.34.34 0 0 0-.463.13.335.335 0 0 0-.044.161l-.052 3.7a.337.337 0 0 0 .673 0z" fill="#ff9f48"></path><path d="m40.553 35.8.847-4.039a20.219 20.219 0 0 0 1.713 2.91.341.341 0 0 0 .47.112.333.333 0 0 0 .112-.112 16.275 16.275 0 0 1 3.973-4.411 20.843 20.843 0 0 0 1.945 2.191.34.34 0 0 0 .48-.005.368.368 0 0 0 .049-.063c.308-.574.64-1.135.985-1.687a8.464 8.464 0 0 1 1.8-2.333c.342-.258.006-.843-.34-.581a8.913 8.913 0 0 0-1.952 2.427c-.3.474-.579.962-.853 1.452a13.011 13.011 0 0 1-1.756-2.061.339.339 0 0 0-.461-.12 17.094 17.094 0 0 0-4.158 4.42 20.219 20.219 0 0 1-1.835-3.379.34.34 0 0 0-.616.08l-1.052 5.019c-.089.42.56.601.649.18z" fill="#b26ee6"></path><path d="m80.746 61.65-.187.187a.337.337 0 0 0 .476.476l.187-.187a.337.337 0 0 0-.476-.476zm5.662-2.717h-.187a.337.337 0 0 0 0 .673h.187a.337.337 0 0 0 0-.673zm3.404-.033v.187a.337.337 0 0 0 .673 0V58.9a.337.337 0 0 0-.673 0zM80.61 58h-.374a.337.337 0 0 0 0 .674h.374a.337.337 0 0 0 0-.674zm36.621 6.506v-.187a.337.337 0 0 0-.673 0v.187a.337.337 0 0 0 .673 0zm2.432 9.726v-.187a.337.337 0 0 0-.674 0v.187a.337.337 0 0 0 .674 0zM70.459 35.006a.337.337 0 0 0 .476-.476l-.187-.187a.337.337 0 0 0-.476.476zm4.128-2.106v-.19a.337.337 0 0 0-.673 0v.19a.337.337 0 0 0 .673 0zM59.339 51.465l.187-.187a.337.337 0 0 0-.476-.476l-.187.187a.337.337 0 0 0 .476.476zm3.091-.238v-.187a.337.337 0 0 0-.673 0v.187a.337.337 0 0 0 .673 0zm-17.208 17.02v-.187a.337.337 0 0 0-.673 0v.187a.337.337 0 0 0 .673 0zm127.086 87.396a5.647 5.647 0 0 1 1.616-1.067c.395-.175.053-.756-.34-.582a6.222 6.222 0 0 0-1.752 1.173c-.316.298.161.774.476.476zm4.955-4.979-1.105-.771c-.357-.249-.693.335-.34.581l1.106.772c.356.248.693-.335.339-.582zm10.708 3.422a3.267 3.267 0 0 0 1.651-.65c.339-.26 0-.845-.34-.581a2.642 2.642 0 0 1-1.311.557c-.425.051-.43.725 0 .674zm.569-4.552 1.123.746c.362.241.7-.342.34-.581l-1.123-.747c-.362-.24-.7.343-.34.582zm4.56 1.941 1.495.564c.406.153.582-.5.179-.649l-1.5-.564c-.403-.154-.574.497-.174.649zm-1.48-5.815.921-1.691c.207-.381-.374-.721-.581-.34l-.921 1.691c-.207.38.374.721.581.34zm-24.786 5.473c-.432-.038-.43.636 0 .674a.8.8 0 0 1 .629.41.337.337 0 0 0 .582-.34 1.507 1.507 0 0 0-1.211-.744zm-11.673 6.317a2.179 2.179 0 0 1 .791-.845c.368-.227.031-.81-.34-.582a2.851 2.851 0 0 0-1.032 1.087c-.206.381.375.722.581.34zm8.661 2.72-.549-1.874a.337.337 0 0 0-.649.179l.549 1.874a.337.337 0 0 0 .649-.179zm4.242-19.362-1.908-.633c-.413-.137-.589.513-.179.649l1.908.634c.415.136.589-.514.179-.65zm4.111-11.477-1.5 1.871c-.268.335.2.815.476.476l1.5-1.87c.268-.336-.206-.815-.476-.477zM27.314 104.443a1.223 1.223 0 0 0 1.052-.872 1.87 1.87 0 0 0-.223-1.352 9.543 9.543 0 0 1-1-1.5c-.139-.408-.789-.233-.65.179a6.862 6.862 0 0 0 .983 1.525c.231.349.486 1.092-.049 1.3a3.694 3.694 0 0 0-.793.264.943.943 0 0 0-.387.564 1.964 1.964 0 0 0 .395 1.449c.235.362.819.025.581-.34a1.834 1.834 0 0 1-.326-.747c-.037-.313.14-.404.417-.47z" fill="#000000"></path><path d="M184.709 114.367c-3.185-.91-6.364-1.843-9.543-2.774l-.032.688v.067a.346.346 0 0 1-.247.325 24.338 24.338 0 0 1-5.046.782c-1.68.127-3.367.173-5.052.158a33.13 33.13 0 0 1-3.818-.194 3.232 3.232 0 0 1-.961-.2.413.413 0 0 1-.246-.4c-.035-.318-.061-.638-.091-.957l-.179-1.886q-3.467.231-6.944.2a35.12 35.12 0 0 1-7.574-.629.349.349 0 0 1-.247-.325q-.213-2.021-.4-4.042c-.061-.652-.117-1.305-.175-1.957l-.064-.72-3.074-.9c-.013.23-.028.459-.04.689-.074 1.315-.145 2.63-.232 3.944a.256.256 0 0 1-.1.287l-.036.027q-1.1.851-2.219 1.674a96.775 96.775 0 0 1-9.6 6.194c-1.73.979-3.476 1.971-5.295 2.778a15.38 15.38 0 0 1-5.611 1.379c-4.009.171-7.916-1.151-11.644-2.471q-6.115-2.167-12.227-4.344l-6.052-2.151c-.943-.335-1.915-.629-2.838-1.016a1.363 1.363 0 0 1-.907-1.622 3.3 3.3 0 0 1 1.349-1.71 28.768 28.768 0 0 1 2.509-1.531c1.7-.984 3.436-1.9 5.192-2.78q1.161-.582 2.331-1.145-2.207-.756-4.414-1.515c-6.107-2.1-12.226-4.194-18.462-5.881a.317.317 0 0 1-.149-.089.34.34 0 0 1 .328-.56c.179.049.357.1.536.151q2.28.626 4.542 1.317c6.21 1.9 12.335 4.062 18.479 6.161q1.069-.516 2.143-1.028l.089-.043q-2.154-.711-4.3-1.458c-3.25-1.129-6.493-2.283-9.763-3.355a92.926 92.926 0 0 0-9.1-2.589l-.127-.031c-.424-.091-.244-.74.179-.649.306.066.609.148.914.22q2.068.485 4.107 1.083c6.4 1.882 12.619 4.3 18.959 6.359q.868-.417 1.736-.837c.385-.188.773-.409 1.17-.583l-.007-.134a413.275 413.275 0 0 1-.192-5.339c-.007-.236-.018-.473-.025-.71q-1.437-.417-2.873-.837c-4.444-1.291-8.884-2.6-13.342-3.847a52.404 52.404 0 0 0-.566-.157.31.31 0 0 0-.24.029h-.019c-3.092 1.594-6.26 3.051-9.4 4.551-1.961.937-3.926 1.864-5.889 2.8 0 .249 0 .5-.007.748-.007 1.135-.013 2.271-.031 3.406-.021 1.33-.049 2.661-.107 3.99a25.663 25.663 0 0 1-.207 2.685c-.057.379-.221 1.147-.785.821-.454-.262-.54-1.087-.624-1.539a53.364 53.364 0 0 1-.641-7.348l-.034-.862-.028-.73-9.967 4.735q-10.733 5.076-21.481 10.12l-.509.239c.4.053.791.117 1.186.179.268.042.536.078.8.124l.029.011.014.006a.264.264 0 0 1 .2.266.307.307 0 0 1 .007.042c0 .017-.005.035-.006.052v.017a11.79 11.79 0 0 1-2.163 5.814 11.953 11.953 0 0 1-2.935 2.885c2.927.1 5.849.334 8.778.479a.338.338 0 0 1 .089.661q-2.709.782-5.484 1.294a48.61 48.61 0 0 1-19.782-.239.34.34 0 0 1 0-.65 63.715 63.715 0 0 1 7.619-1.253 14.178 14.178 0 0 1-2.691-2.256c-.162-.17-.321-.344-.475-.519l-3.784 1.757c-3.686 1.7-7.359 3.461-11.107 5.025a32.05 32.05 0 0 1-.54.219.34.34 0 0 0 0 .649c12.306 4.99 24.806 9.565 37.326 13.991 7.974 2.819 15.971 5.571 23.96 8.347q7.533 2.618 15.063 5.243 3.332 1.163 6.66 2.33l3.05 1.072a6.108 6.108 0 0 0 2.377.714 6.111 6.111 0 0 0 1.293-.6l1.45-.677 2.884-1.35q2.775-1.3 5.548-2.605 5.451-2.564 10.9-5.134c7.025-3.308 14.054-6.608 21.11-9.846 14.008-6.429 28.137-12.6 42.526-18.132q2.657-1.022 5.325-2.013a.343.343 0 0 0 .209-.435.357.357 0 0 0-.216-.2zm-18.5 1.038a8.319 8.319 0 0 0 1.912-.048c.425-.062.606.587.179.649a9.089 9.089 0 0 1-2.091.073c-.427-.037-.43-.71.002-.674zm-5.114-.362h2a.337.337 0 0 1 0 .674h-2a.337.337 0 0 1 0-.674zm-2.184 4.365.39-1.742c.094-.424.743-.244.649.179l-.389 1.742c-.095.423-.744.243-.65-.179zm-2.972-4.449a5.813 5.813 0 0 1 1.146-1.473c.317-.3.794.181.476.476a5.241 5.241 0 0 0-1.041 1.337c-.208.381-.789.041-.581-.34zm-3.355-1.919.624 1.745c.147.41-.5.584-.649.179l-.624-1.745c-.146-.41.5-.584.649-.179zm-23.851 7.326c.572-2.148 2.017-4.4 4.26-5.061a3.757 3.757 0 0 1 3.535.983 7.923 7.923 0 0 1 1.966 3.554.357.357 0 0 1 0 .047.5.5 0 0 1 .006.11.281.281 0 0 1-.165.223c-3.047 1.517-6.241 2.714-9.306 4.193a.341.341 0 0 1-.464-.129.364.364 0 0 1-.031-.073 9.133 9.133 0 0 1 .2-3.847zm-22.611 7.749c1.005-.6 1.908-1.366 2.9-2 .012-.008.027-.005.04-.011s.019-.026.033-.035a4.377 4.377 0 0 1 2.7-.873 9.844 9.844 0 0 1 2.81 1.029q1.32.6 2.624 1.224a8.819 8.819 0 0 1 2.253 1.291 3.424 3.424 0 0 1 .954 1.382c.221.691-.172 1.067-.707 1.423a1.836 1.836 0 0 1-.349.214c-.014.013-.022.032-.037.042q-2.476 1.643-4.945 3.3l-4.141 2.776q-.959.642-1.919 1.28-.532.356-1.067.709a7.282 7.282 0 0 1-.965.637l-.04.01c-.013.012-.021.03-.036.04a6.194 6.194 0 0 1-1.683.929 3.173 3.173 0 0 1-1.71 0 13.063 13.063 0 0 1-1.547-.643l-1.583-.684c-.978-.423-1.977-.819-2.93-1.3a5.22 5.22 0 0 1-2.365-2.007c-.538-1.008.035-1.843.874-2.423.012-.008.027 0 .04-.011a.388.388 0 0 1 .039-.042c1.154-.738 2.367-1.4 3.551-2.086s2.393-1.393 3.591-2.087 2.422-1.372 3.615-2.088zm-30.686-14.428a.471.471 0 0 1 .084 0c.306.077.608.188.911.28q.992.3 1.986.594 2.047.6 4.1 1.175 8.046 2.239 16.192 4.1c.036.008.055.034.083.051a1.263 1.263 0 0 1 .3.036l1.062.238a1.334 1.334 0 0 1 .972 1.617 1.352 1.352 0 0 1-.066.2 1.845 1.845 0 0 1-.772.761q-.534.351-1.073.694c-3.091 1.971-6.257 3.825-9.41 5.693l-2.3 1.365c-.72.429-1.43.91-2.182 1.282a6.531 6.531 0 0 1-2.864.683 13.931 13.931 0 0 1-3.247-.581c-.023-.006-.034-.024-.053-.034a.507.507 0 0 1-.054.009 8.459 8.459 0 0 1-1.186-.295q-1.267-.326-2.525-.685c-6.012-1.714-11.868-3.926-17.725-6.1a.312.312 0 0 1-.1-.071 2.836 2.836 0 0 1-.685-.219l-1.087-.4q-1.128-.416-2.258-.824a1.987 1.987 0 0 1-1.395-1.939c.077-.837.864-1.274 1.5-1.678a99.1 99.1 0 0 1 10.556-5.854q1.394-.665 2.807-1.285a5.409 5.409 0 0 1 2.675-.561 12.058 12.058 0 0 1 2.714.753q1.48.486 2.97.946a.3.3 0 0 1 .072.049zm-2.975-8.049a.327.327 0 0 1 .29.166c.387.885.918 1.7 1.308 2.58a.336.336 0 0 1 .044.167.3.3 0 0 1-.015.094c0 .011 0 .021-.006.032a.36.36 0 0 1-.029.055.379.379 0 0 1-.042.067.333.333 0 0 1-.1.079.34.34 0 0 1-.162.045 47.213 47.213 0 0 1-9.477.294.342.342 0 0 1-.332-.353.347.347 0 0 1 .041-.154c.385-.908.831-1.789 1.216-2.7a.332.332 0 0 1 .291-.166c2.322-.118 4.647-.11 6.97-.21zm-32.173 9.253c-.524 1.436-2.215 1.536-3.518 1.448-.431-.03-.433-.7 0-.674.922.063 2.3.12 2.809-.83.634-1.192-.928-1.769-1.788-2a.337.337 0 0 1 .179-.65c1.209.328 2.887 1.148 2.318 2.706zm25.423-41.943a1.52 1.52 0 0 0 1.615-1.032 1.389 1.389 0 0 0-.965-1.655 1.285 1.285 0 0 0-1.482 1.053 1.233 1.233 0 0 0-.018.182c.016.63.105 1.343.85 1.452zM45.913 56.217a1.307 1.307 0 0 0-.486-1.765.972.972 0 0 0-.878-.25.92.92 0 0 0-.469.725 1.786 1.786 0 0 0 .388 1.49.95.95 0 0 0 1.342-.064.972.972 0 0 0 .103-.136zM57.159 38.7a1.851 1.851 0 0 0-.132-1.936c-.532-.59-1.414-.131-1.832.367a1.748 1.748 0 0 0 .231 1.769 1.032 1.032 0 0 0 1.451.156 1.051 1.051 0 0 0 .282-.356zM13.145 57.575a.986.986 0 0 0-.433-1.326.957.957 0 0 0-.3-.1c-.82-.123-1.835 1.01-1.33 1.771a1.609 1.609 0 0 0 2.063-.345zM117.7 89.074c.538.389 1.529.411 1.839-.274a1.688 1.688 0 0 0-.366-1.708 1.393 1.393 0 0 0-1.9-.169.158.158 0 0 1-.068.053.955.955 0 0 0-.135 1.125 2.191 2.191 0 0 0 .63.973z" fill="#ffd2d2"></path><path d="M141.906 79.409a4.144 4.144 0 0 0-1.223.28 6.507 6.507 0 0 0-.611.269 11.832 11.832 0 0 0-1.477.91 7.723 7.723 0 0 0-2.255 2.456c-1.253 2.172-1.536 4.755-1.77 7.207a.266.266 0 0 0 .01.174l.006.018a.282.282 0 0 0 .024.036.331.331 0 0 0 .4.108.353.353 0 0 0 .074-.04l.028-.018a.351.351 0 0 0 .071-.083l.011-.018a.329.329 0 0 0 .028-.044c.713-1.838 2.766-2.942 4.487-3.648.375-.153.755-.283 1.136-.4q.338-.108.678-.208l.988-.289a3.115 3.115 0 0 0 2.305-1.787 4.667 4.667 0 0 0-.472-3.227 2.542 2.542 0 0 0-2.438-1.696zm-13.883-31.551a16.661 16.661 0 0 0-2.857-6 10.622 10.622 0 0 0-4.791-3.429 7.89 7.89 0 0 0-5.652.034c-1.7.718-3.519 2.667-2.375 4.595a5.216 5.216 0 0 0 2.262 1.8c1 .5 2.006.991 3 1.512a20.114 20.114 0 0 1 5.442 3.842 19.655 19.655 0 0 1 3.539 6.282c.72 1.775 1.313 3.6 1.977 5.4.138.373.279.745.428 1.114 0 .006.008.01.011.016a.344.344 0 0 0 .447.193.348.348 0 0 0 .066-.035.258.258 0 0 0 .137-.29q-.048-4.019-.464-8.02a44.646 44.646 0 0 0-1.17-7.014zM20.485 70.509a3.187 3.187 0 0 0-2.4 2.626 3.446 3.446 0 0 0 1.439 4.006 5.01 5.01 0 0 0 2.278.458 4.632 4.632 0 0 0 2.289-.515 3.211 3.211 0 0 0 1.429-2.008 3.148 3.148 0 0 0-.584-2.62 4.645 4.645 0 0 0-4.451-1.947zM112.5 92.564a1.822 1.822 0 0 0-2.431.85 1.992 1.992 0 0 0-.075.179 2.241 2.241 0 0 0 .936 2.729c.879.409 1.993-.384 2.378-1.151a2.024 2.024 0 0 0-.808-2.607z" fill="#6dd3a8"></path></svg>