<svg xmlns="http://www.w3.org/2000/svg" viewBox="0 0 200 200"><defs></defs><path d="M107.717 99.767c-1.03-5.2-3.482-10.529-8.126-13.1-3.159-1.746-6.911-1.993-10.52-2.007-10-.038-20.444 1.6-28.493 7.522 3.69 3.245 6.685 7.288 10.745 10.055C75.667 100 80.092 97.725 84.9 96.86s10.154-.125 13.832 3.1c3.076 2.693 4.52 6.6 5.211 10.714h5.088c-.415-3.641-.603-7.316-1.314-10.907z" fill="#7d4ab4"></path><path d="M113.977 57.426c-.816-5.189-4.982-7.634-8.8-6.36-10.167 3.38-19.148 4.759-25.741 10.5-1.109.966.378 2.729 1.727 3.314a7.044 7.044 0 0 0 4.334-.014 62.907 62.907 0 0 0 11.852-3.821 25.596 25.596 0 0 0-.936 1.766 4.612 4.612 0 0 0-.613 3.34c.471 1.406 2.088 2.029 3.532 2.369a32.022 32.022 0 0 0 7.742.848c4.467-.057 5.783-1.6 6.525-5.365a18.956 18.956 0 0 0 .378-6.577z" fill="#ffceb6"></path><path d="M113.5 51.14c-3.808-3.971-10.042-3.58-14.844-3.867-1.328-.079-6.323-.008-7.165.457a1.061 1.061 0 0 0-.587 1.084 1.459 1.459 0 0 0 .816.852 9.691 9.691 0 0 0 3.085 1.07 7.245 7.245 0 0 0-1.508.046.66.66 0 0 0-.062 1.293A47.914 47.914 0 0 0 102.1 53.5c-.731 0-.894-.02-1.372.018-1.187.091-1.6 1.179-.115 1.719 3.931 1.424 7.477.385 11.623.853a2.3 2.3 0 0 0 2.573-1.993 3.966 3.966 0 0 0-1.309-2.957z" fill="#b26ee6"></path><path d="M108.147 58.358a29.947 29.947 0 0 0 3.842 2.239c.537.262 1.05-.683.511-.946a30.033 30.033 0 0 1-3.843-2.24c-.208-.142-.536.014-.665.253a.517.517 0 0 0 .155.694zm.822 6.802a2.887 2.887 0 0 0 4.164.375c.263-.226-.118-.6-.38-.38a2.352 2.352 0 0 1-3.4-.376c-.217-.272-.595.111-.384.381z" fill="#000000"></path><path d="M112.535 61.165a3.48 3.48 0 0 0 .553 3.273.768.768 0 0 0 .8.132 1.15 1.15 0 0 0 .462-1.012 11.3 11.3 0 0 0-.146-2.73z" fill="#ff9f48"></path><path d="M103.483 59.669a1.831 1.831 0 0 0-2.07-.835 2.74 2.74 0 0 0-1.773 1.817c-.74 2.175 1.144 3.733 2.638 2.955.307-.161.035-.625-.271-.465a1.356 1.356 0 0 1-1.6-.379 2.325 2.325 0 0 1 1.019-3.368 1.3 1.3 0 0 1 1.6.546c.157.304.622.033.457-.271z" fill="#000000"></path><path d="M63.328 147.909h-2.845a2.423 2.423 0 0 0 0 4.846h2.845a2.423 2.423 0 0 0 0-4.846zm60.672 0h-2.84a2.423 2.423 0 0 0 0 4.846H124a2.423 2.423 0 1 0 0-4.846zm14.542-68.472h-31.708a2.423 2.423 0 1 0 0 4.845h14.274v24.808h-57.57c-.026-5.364.057-5.206-.064-5.635h10.177a2.423 2.423 0 1 0 0-4.846H50.16a2.423 2.423 0 1 0 0 4.846h10.283c-.1.358-.065 41.6-.065 41.5a1.585 1.585 0 0 0 1.58 1.58h60.73a1.585 1.585 0 0 0 1.58-1.58V84.282h14.274a2.423 2.423 0 0 0 0-4.845z" fill="#aceac7"></path><path d="M105.468 118.678a7.748 7.748 0 1 0-1.777 14.958l1.163 6.733-3.383 2a.269.269 0 0 0 .271.464l7.759-4.593a.269.269 0 0 0-.272-.463l-3.882 2.3-1.127-6.523a7.746 7.746 0 0 0 1.248-14.876zm4.521 7.267a7.229 7.229 0 0 1-5.86 7.08l-1.049-6.076a1.052 1.052 0 1 0-.54.02q.529 3.068 1.06 6.134a7.209 7.209 0 1 1 6.389-7.158z" fill="#000000"></path><path d="M121.055 109.612q-2.733 0-5.465-.032a14.5 14.5 0 0 0-1.364-1.073c-.286-.2-.555.27-.271.464s.542.392.8.6c-3.22-.034-12.549-.126-13.994-.127a16.586 16.586 0 0 0-14.582 15.174 19.787 19.787 0 0 0-.043 1.363c.249 6.383-.011 12.629.24 19.056.014.345.551.347.537 0-.193-4.941-.08-9.886-.137-14.83-.045-3.895-.65-7.866 2.2-12.586a16.132 16.132 0 0 1 11.606-7.64c4.936 0 9.871.086 14.807.135a13.985 13.985 0 0 1 4.014 6.267c.1.329.62.189.518-.143a14.539 14.539 0 0 0-3.733-6.116c.112 0 3.354.024 4.864.025a.269.269 0 0 0 .003-.537z" fill="#000000"></path><path d="M112.662 128.8a10.244 10.244 0 0 0-.791-8.351.269.269 0 0 0-.464.271 9.706 9.706 0 0 1 .736 7.937c-.113.33.406.472.519.143zm4.279 4.97a13.025 13.025 0 0 1-5.61 6.211c-.3.169-.032.633.271.465a13.488 13.488 0 0 0 5.8-6.405c.139-.314-.324-.589-.461-.271zm-.141-7.486a11.043 11.043 0 0 0-.441-5.94c-.117-.323-.637-.183-.518.142a10.522 10.522 0 0 1 .441 5.654c-.065.339.453.483.518.144zm24.067-64.674a159.258 159.258 0 0 0-7.31 15.9h-21.509a.717.717 0 0 0 0 1.434h21.092c.893 0 1.317.153 1.679-.761a156.047 156.047 0 0 1 7.281-15.849c.436-.816-.8-1.54-1.233-.724z" fill="#000000"></path><path d="M71.357 91.412c-1.912-1.831-3.513-3.38-2.715-5.834-4.735.247-10.026-1.578-12.232-5.734-3.785 4.371-6.625 9.675-4.029 14.822 1.928 3.824 6.321 6.445 9.985 8.833 12.556 8.186 25.091 16.2 30.81 30.879l6.349-3.257c-6.489-15.207-16.283-28.306-28.168-39.709z" fill="#b26ee6"></path><path d="M100.1 131.109c-10.964-25.824-28.6-39.538-30.521-42.447a3.038 3.038 0 0 1-.314-3.237c.071-.169-.006-.422-.232-.405-4.9.374-10.269-1.436-12.34-5.788a.269.269 0 0 0-.421-.054 24.44 24.44 0 0 0-4.314 6.359 11.683 11.683 0 0 0-.844 7.226c1.6 6.8 9.29 9.469 21.629 18.359 8.808 6.347 16.192 13.59 20.036 23.7a.274.274 0 0 0 .4.161q3.417-1.754 6.833-3.5a.277.277 0 0 0 .088-.374zm-6.927 3.269c-7.5-19.244-27.935-27.882-36.61-34.884-3.952-3.19-6.11-6.791-4.784-11.818a19.915 19.915 0 0 1 4.628-7.832c2.206 4.153 7.5 5.98 12.232 5.734-.8 2.461.807 4.006 2.715 5.834 11.859 11.378 21.663 24.472 28.168 39.709l-6.346 3.257zm72.496-63.291c-.781-.036-1.5 3.479-.579 3.785.6.2.959-.5 1.06-1.353.05-.451.182-2.402-.481-2.432zm.736-.775c.141-1.716.278-4.384 1.118-5.887a4.148 4.148 0 0 1 4.243-2.279c2.978.671 5.116 6.621.16 6.118a6.755 6.755 0 0 0-2.667-.035 5.53 5.53 0 0 0-2.854 2.083zm-.005 5.257a3.492 3.492 0 0 1 2.182 1.159 9.673 9.673 0 0 1 1.023 5.674 4.071 4.071 0 0 1-1.976 2.908 2.682 2.682 0 0 1-3.293-.6 3.252 3.252 0 0 1-.164-3.142c.75-1.841 2.888-3.801 2.228-5.999zm-2.923-2.397c-.67.47-1.493.933-2.128.417a2.937 2.937 0 0 1-.988-2.168 6.024 6.024 0 0 1 1.248-3.709 1.306 1.306 0 0 1 1.423-.281 1.554 1.554 0 0 1 .553 1.79 19.764 19.764 0 0 0-.635 1.919c-.1.668-.139 1.919.527 2.032z" fill="#000000"></path><path d="M179.611 73.631c.735.793.627 2.141.641 3.136.084 6.053.348 24.967.4 28.372a.538.538 0 0 0 1.075 0c-.445-31.945-.234-30.455-.959-31.734a3.637 3.637 0 0 0-3.233-1.534 67.672 67.672 0 0 0-10.442.206.552.552 0 0 0-.537.538.541.541 0 0 0 .537.537 69.422 69.422 0 0 1 8.971-.273c1.383.048 2.845-.006 3.547.752z" fill="#ff9f48"></path><path d="M183.093 107.6c-.714-1.975-2.905-2.431-4.446.188a18.119 18.119 0 0 0-1.946 7.693c-.864 9.87-.351 19.807.188 29.7.629 4.519 5.685 3.677 5.665-.326.852-37.255.99-36.009.539-37.255z" fill="#ff9f48"></path><path d="m123.337 63.357-1.485 4.737c-.1.332.415.473.518.143l1.485-4.736c.104-.332-.415-.473-.518-.144zm4.916 2.971a23.9 23.9 0 0 0-5.125 2.864c-.276.2-.008.67.271.464a23.411 23.411 0 0 1 5-2.81c.313-.129.174-.646-.146-.518zm1.726 4.822a25.435 25.435 0 0 0-5.76-.338c-.344.019-.346.556 0 .537a24.924 24.924 0 0 1 5.617.319c.339.059.483-.459.143-.518zm-18.932-10.306a.685.685 0 1 0 .685.684.684.684 0 0 0-.685-.684z" fill="#000000"></path><path d="M90.623 64.666a1.147 1.147 0 0 0-.094 1.855 1.055 1.055 0 1 0 .094-1.855zm-.637-1.513c-2.779-2.053-3.367-5.785-5.386-8.473a9.979 9.979 0 0 0-11.624-3.059c-2.28 1-4.075 2.821-6.083 4.29-4.82 3.529-8.377 2.691-11.437-1.588-1.842-2.572-3.142-5.4-6.2-6.4a27.858 27.858 0 0 1-4.756 3.95 10.571 10.571 0 0 1 1.347 3.085c3.866 1.186 5.941 5.077 8.75 7.655a8.486 8.486 0 0 0 5.75 2.552c5.171-.146 7.571-6.091 12.043-8.07a9.559 9.559 0 0 1 7.123-.07c4.606 1.712 6.208 5.306 7.94 6.821a2.368 2.368 0 0 0 2.391.472.681.681 0 0 0 .142-1.165z" fill="#7d4ab4"></path><path d="M145.881 81.169A3.158 3.158 0 0 0 151 82.822c1.03-.876 1.537-2.549 2.864-2.611 2.091-.095 3.431 3.742 5.892 3.028a3.284 3.284 0 0 0 1.68-1.506c.46-.678 1.147-1.716 2.115-1.457a.269.269 0 0 0 .143-.518 2.005 2.005 0 0 0-1.909.649c-.507.492-.809 1.14-1.268 1.671a1.7 1.7 0 0 1-2 .562 5.676 5.676 0 0 1-1.859-1.425c-.948-.954-2.295-2.015-3.691-1.305-1.166.592-1.527 2.036-2.612 2.721a2.64 2.64 0 0 1-3.959-1.606.269.269 0 0 0-.515.144zm5.599-5.019a2.31 2.31 0 0 1 2.677-.329c.745.427 1.5 1.316 2.451.926 1.02-.418 1.272-2.614 2.674-1.144a4.087 4.087 0 0 0 1.092.986c1.072.52 1.649-.564 1.924-.837.1-.1.635-.432.676-.076.038.339.576.344.537 0a.782.782 0 0 0-.91-.684c-.55.073-.815.584-1.166.942-.516.527-1.068.08-1.46-.358a2.8 2.8 0 0 0-1.21-.966c-.972-.283-1.413.66-1.917 1.273-.857 1.04-1.668-.171-2.579-.611a2.868 2.868 0 0 0-3.169.5c-.253.235.128.614.38.378zm.237-14.201a2.438 2.438 0 0 0 2.561 1.3c1.233-.207 1.893-1.637 2.984-.977.772.466 1.421 1.449 2.452 1.058.925-.352 1.466-1.635 2.261-1.327.588.228.838.958 1.354 1.3a1.132 1.132 0 0 0 1.519-.04c.219-.265-.159-.648-.38-.381-.368.448-.989-.1-1.242-.414a2.592 2.592 0 0 0-1.154-1c-.917-.27-1.506.594-2.12 1.1-1.394 1.14-1.9-1.266-3.51-.994-1.093.183-1.618 1.436-2.971 1.126a1.876 1.876 0 0 1-1.29-1.021c-.148-.314-.612-.041-.464.27z" fill="#000000"></path><path d="M99.437 142.65c4.718-3.158 9.25-5.834 14.106-8.611a1.131 1.131 0 0 0-.366-2.088 20.729 20.729 0 0 0-17.068 4.91 1.13 1.13 0 0 0-.233 1.335l2.012 4.038a1.061 1.061 0 0 0 1.549.416z" fill="#59679c"></path><path d="M130.893 130.029c20.437.128 18.417 2.921 22.52-.6l5.14-4.413c.189-.161.026-.448-.189-.458l-18.832-.918a.242.242 0 0 0-.253.291l-8.522 5.595a.271.271 0 0 0 .136.503zm26.785-4.965-3.979 3.415c-4.766 4.09-1.289 1.251-21.929 1.026l8.087-5.309z" fill="#000000"></path><path d="M144.124 133.657a38.457 38.457 0 0 0 6.526-.15c3.486-.735 5.534-4.124 8.365-6.077.282-.194.014-.66-.272-.464a32.119 32.119 0 0 0-3.641 3.207c-2.815 2.649-4.212 2.994-7.037 3a138.2 138.2 0 0 1-17.314-1.076c-.342-.043-.339.5 0 .538q6.658.831 13.373 1.022z" fill="#000000"></path><path d="M158.937 130.266c-7.46 5.183-7.908 5.8-9.607 5.84-.564.015 1.306.134-18.244-1.245-.345-.025-.343.513 0 .538 0 0 15.843 1.184 17.787 1.242 2.166.065 2.974-.789 4.865-2.1q2.735-1.9 5.47-3.806c.282-.201.014-.667-.271-.469z" fill="#000000"></path><path d="M148.9 138.343c3.822-.065 6.112-2.265 8.739-5.031.237-.251-.142-.632-.381-.381-4.775 5.033-6.362 5-10.9 4.8l-15.418-.669c-.346-.015-.345.523 0 .537.823.033 17.099.758 17.96.744z" fill="#000000"></path><path d="M151.871 140.814c1.04-.327 1.215-.622 7.095-6.05.255-.235-.126-.615-.38-.381l-4.354 4.021c-1.814 1.677-2.2 2.256-4.667 1.972a128.351 128.351 0 0 0-18.151-1.06.269.269 0 0 0 0 .538c13.926-.192 18.309 1.635 20.457.96z" fill="#000000"></path><path d="M149.226 144.157c3.115.257 4.586.558 7.146-2.2 1.132-1.223 2.193-2.7 3.795-3.336.318-.126.18-.646-.143-.518-2.9 1.149-4.111 4.664-6.809 5.486-1.285.392-.963.283-21.265-1.4-.344-.029-.342.508 0 .537z" fill="#000000"></path><path d="M160.214 140.927c-1.83 1.706-3.818 3.517-6.258 4.083-2.1.485-7.183-.294-21.68.28-.345.014-.347.551 0 .537 19.6-.775 20.188.8 23.777-1.027a20.591 20.591 0 0 0 4.541-3.493c.253-.237-.128-.616-.38-.38zm-11.923-11.396c-.231.256.148.638.38.381a49.566 49.566 0 0 1 4.473-4.379c.262-.227-.12-.606-.38-.381a50.242 50.242 0 0 0-4.473 4.379zm-1.145-.025c-.2.284.267.553.464.272a20 20 0 0 1 4.117-4.32c.272-.213-.111-.591-.38-.381a20.416 20.416 0 0 0-4.201 4.429zm-1.24-.069q1.806-2.025 3.614-4.047c.23-.258-.149-.639-.38-.381q-1.806 2.025-3.614 4.048c-.226.258.149.643.38.38zm-1.96-.381c-.217.266.161.648.381.381a26.6 26.6 0 0 1 3.364-3.431c.264-.225-.117-.6-.38-.381a26.933 26.933 0 0 0-3.365 3.431zm-.685-.072a18.343 18.343 0 0 1 3.343-3.747c.264-.224-.118-.6-.38-.379a18.8 18.8 0 0 0-3.427 3.855c-.197.287.273.557.464.271zm-5.875-.166c-.232.255.147.637.38.38a37.632 37.632 0 0 1 4.5-4.2c.271-.214-.111-.592-.38-.38a37.638 37.638 0 0 0-4.5 4.2zm2.383-3.697q-1.983 1.767-3.966 3.538c-.258.23.123.609.38.379l3.967-3.537c.258-.231-.123-.61-.381-.38zm-113.198 1.861-15.244 1.758a.288.288 0 0 0-.164.494.2.2 0 0 0 .012.258 25.811 25.811 0 0 0 2.951 3.24 3.856 3.856 0 0 0 3.751 1.33c3.178-.334 13.089-1.605 14.872-1.855a.27.27 0 0 0 .16-.395 29.319 29.319 0 0 0-2.678-3.658c-1.331-1.549-1.858-1.381-3.66-1.172zm2.934 1.162a23.516 23.516 0 0 1 2.72 3.6c-2.913.407-11.78 1.5-13.3 1.669-1.877.209-2.67.469-4.056-.728a23.515 23.515 0 0 1-3.219-3.441c3.015-.347 15.224-1.778 16.005-1.843a1.9 1.9 0 0 1 1.85.743z" fill="#000000"></path><path d="M33.255 133.565a105.547 105.547 0 0 1-14.29 2.85c-3 .383-3.285.4-3.605.234-.256-.132.032.144-4.56-4.941-.233-.257-.612.124-.381.38l3.5 3.879c.458.507.908 1.186 1.633 1.3 1.187.185 10.385-1.156 17.843-3.183a.268.268 0 0 0-.14-.519z" fill="#000000"></path><path d="m33.789 137.738-17.613 1.84c-.691.072-1.622.323-2.183-.219-.224-.216.068.166-3.146-4.492-.2-.283-.661-.014-.465.271 4.038 5.852 2.9 5.282 7.11 4.84l16.3-1.7c.337-.038.34-.578-.003-.54z" fill="#000000"></path><path d="M12.893 142.882a2.162 2.162 0 0 0 1.935.434l18.218-1.8c.34-.034.344-.571 0-.537l-18.031 1.781c-1.09.107-1.494.232-2.053-.7a34.519 34.519 0 0 1-1.766-3.448c-.14-.316-.6-.043-.463.271a23.4 23.4 0 0 0 2.16 3.999z" fill="#000000"></path><path d="M9.8 142.91c1.151.545 1.543 2.049 2.891 2.3a5.871 5.871 0 0 0 2.424-.35c5.935-1.433 12.35.015 18.227-2.074.324-.115.185-.635-.142-.519-4.71 1.674-9.831 1.043-14.753 1.516-4.85.464-5.348 1.822-6.889.045a4.906 4.906 0 0 0-1.487-1.38c-.313-.148-.587.314-.271.462z" fill="#000000"></path><path d="M33.355 146.059c-7.864-.244-18.127 2.919-20.128 2.476-.885-.2-1.455-1.132-2.011-1.777l-1.944-2.256c-.226-.262-.605.12-.38.381 4.049 4.7 3.057 4.663 8.13 3.791 5.468-.944 10.747-2.25 16.333-2.078.345.011.345-.526 0-.537zm-2.577-18.737c4.718 1.257 6.244-.574 11.088-1.546 2.228-.445 4.413-.984 5.436-3.089s.485-4.365-.174-6.6c-.671-2.28-1.536-1.685-3.839-1.138l-6.413 1.52a.271.271 0 0 0 0 .518 4.463 4.463 0 0 1 2.845 6.5.268.268 0 0 0-.218-.052 2 2 0 0 1-2.162-1.215c-.085-.22-.465-.288-.518 0-.254 1.378-2.085 1.509-3.066 2.132a3.587 3.587 0 0 0-1.2 1.462c-.333.618-.87 1.338-1.508 1.05-.312-.147-.586.316-.271.458zm7.043-10.528c2.033-.481 6.669-1.581 6.954-1.649.863-.2 1.342-.462 1.717.69.651 2.005 1.233 4.256.5 6.228-.779 2.083-2.749 2.686-4.91 3.124a28.792 28.792 0 0 0-4.347 1.19c3.829-2.369 4.279-7.594.086-9.583zm-3.875 8.068c.986-.677 2.594-.827 3.2-1.938a2.545 2.545 0 0 0 2.313 1.039 6.777 6.777 0 0 1-3.8 2.774 9.8 9.8 0 0 1-3.4.346c.785-.614.885-1.67 1.687-2.221z" fill="#000000"></path><path d="M47.629 126.613c-8.238-.564-11.51 3.4-15.7 1.864-.326-.119-.466.4-.143.519 4.391 1.606 7.477-2.424 15.847-1.845.341.023.339-.515-.004-.538z" fill="#000000"></path><path d="M32.212 129.836c-.336-.083-.479.435-.143.518 5.452 1.346 10.893-4.066 15.939-1.788.312.141.586-.322.271-.464-5.421-2.449-10.687 3.061-16.067 1.734zm9.102.725c-2.811.725-4.055 2.028-5.9 2.18-.342.028-.345.566 0 .538 1.953-.162 3.272-1.416 5.72-2.112a13.6 13.6 0 0 1 6.318-.267c.339.066.483-.452.144-.518a14.216 14.216 0 0 0-6.282.179zm7.286 3.59-13.438 1.906c-.341.048-.2.566.143.518l13.437-1.906c.339-.049.193-.569-.142-.518zM35.068 138.2q6.209-1.042 12.416-2.088c.341-.057.2-.575-.143-.517l-12.416 2.087c-.34.054-.196.571.143.518zm12.981 1.707a116.7 116.7 0 0 1-13.271.619.269.269 0 0 0 0 .538 117.862 117.862 0 0 0 13.271-.619c.34-.036.344-.574 0-.538zM17.2 109.644c2.8 2.263 3.163 6.037 2.86 9.622-.027.326.447.338.524.049.026.239.365.388.484.125.694-1.542 1.442-3.219 2.909-4.179 1.512-.989 3.208-.405 4.364-1.584a.383.383 0 0 0 .2-.336 6.7 6.7 0 0 0-3.145-8.814c-2.589-1.275-5.216-.26-7.043-1.617a.279.279 0 0 0-.18-.258 6.239 6.239 0 0 0-5.108.3c-1.723.906-2.622 2.706-4.167 3.82a3.306 3.306 0 0 1-2.989.67c-.328-.112-.469.407-.143.519 1.827.632 3.549-.662 4.72-1.934 1.447-1.572 2.275-2.773 4.5-3.168a5.659 5.659 0 0 1 2.841.244.221.221 0 0 0 .085.145c1.811 1.41 4.206.761 6.273 1.374a6.2 6.2 0 0 1 3.808 8.652 3.554 3.554 0 0 1-2.167.79c-2.9.416-4.012 2.415-5.22 5.1.256-3.159.007-6.71-2.237-9.16a6.831 6.831 0 0 0-3.629-2.127c-3.343-.661-4.852 1.995-7.4 1.727a1.959 1.959 0 0 1-1.8-1.54c-.039-.34-.577-.344-.537 0a2.66 2.66 0 0 0 3.2 2.051c1.775-.249 3.189-1.581 4.971-1.78a5.545 5.545 0 0 1 4.026 1.309z" fill="#000000"></path><path d="M21.181 112.787c-.34.039-.343.576 0 .538a8.079 8.079 0 0 0 6.108-4.054c.168-.3-.3-.575-.464-.272a7.522 7.522 0 0 1-5.644 3.788zm4.363-5.543a8.185 8.185 0 0 1-4.231 3.914c-.317.127-.179.647.143.518a8.734 8.734 0 0 0 4.552-4.161c.155-.308-.308-.581-.464-.271zm-.121-1.344c-2.338.091-3.613 2.51-5.82 2.943-.34.067-.2.584.143.518 2.179-.428 3.616-2.842 5.677-2.923.345-.011.347-.548 0-.538zm-2.303-.708a10.241 10.241 0 0 0-4.714 2.641c-.247.243.133.623.38.38a9.7 9.7 0 0 1 4.477-2.5.269.269 0 0 0-.143-.521zM101.177 85a.269.269 0 0 0-.271.464 18.23 18.23 0 0 1 6.371 6.095c.184.292.649.022.464-.271A18.8 18.8 0 0 0 101.177 85zm7.237 4.762q-2.213-2.476-4.42-4.955c-.231-.258-.61.123-.38.381l4.42 4.954c.231.258.61-.123.38-.38zM91.7 102.671a20.987 20.987 0 0 0-8.879 5.211c-.247.244.134.623.379.381a20.414 20.414 0 0 1 8.643-5.073.269.269 0 0 0-.143-.519zm-3.537 6.671a11.546 11.546 0 0 0-3.845 3.31c-.207.278.259.546.464.272a10.938 10.938 0 0 1 3.652-3.118c.306-.162.035-.626-.271-.464zm-5.432 14.981a.269.269 0 0 0-.518-.143 11.736 11.736 0 0 0 .869 8.42c.157.307.621.036.464-.272a11.159 11.159 0 0 1-.815-8.005zm93.979 21.648q-6.209.939-12.418 1.882c-.175-.181-.333-.046-.63.113s-.074.534.207.492l12.984-1.969c.341-.052.196-.57-.143-.518zm14.904 5.673a99.179 99.179 0 0 0-11.629-5.336c-.323-.123-.463.4-.143.519a98.063 98.063 0 0 1 11.5 5.281c.305.164.577-.299.272-.464zm3.127-5.544q-5.056-.191-10.111-.376c-.346-.012-.345.525 0 .538l10.111.376c.346.013.345-.524 0-.538zM173.1 116.238a18.091 18.091 0 0 1 5.274.3c.338.07.482-.448.143-.519a18.58 18.58 0 0 0-5.176-.332 16.085 16.085 0 0 1-.024-3.37l5.46.184c.346.012.346-.526 0-.538l-5.705-.191a.276.276 0 0 0-.269.268 16.141 16.141 0 0 0 .029 3.929c.021.131.113.283.268.269zm5.2 3.545v1.9a.269.269 0 0 0 .537 0v-1.9a.269.269 0 0 0-.537 0zm.54 8.217v-1.9a.269.269 0 0 0-.537 0v1.9a.269.269 0 0 0 .537 0zm.007 4.951-.1 1.791c-.02.346.518.344.538 0l.1-1.791c.015-.351-.519-.344-.538 0z" fill="#000000"></path><path d="M114.116 70.2c-1.512-.954-3.47-.7-5.2-.277a32.882 32.882 0 0 0-18.21 12l-.507-1.109a11.391 11.391 0 0 0-4.089 8.1c1.593 2.115 3.781 2.542 5.658 1.4 6.3-3.834 8.178-12.138 14.1-16.3a2.731 2.731 0 0 1 1.7-.646c1.1.077 1.856 1.3 2.953 1.368 1.422.092 2.746-1.773 3.971-1.047.732.434.751 1.466.9 2.361a.482.482 0 0 0 .956-.064c.068-2.239-.348-4.598-2.232-5.786z" fill="#ffceb6"></path><path d="M91.013 80.2a125.951 125.951 0 0 0-2.192-13.145 8.185 8.185 0 0 0-2.3-3.593 6.892 6.892 0 0 0-4.48-3.432 9.627 9.627 0 0 0-4.973.838 63.639 63.639 0 0 0-20.333 12.338 1.226 1.226 0 0 1-.549.588 3.364 3.364 0 0 0-.009.839c1.157 4.091 5.164 8.411 9.051 9.305 5.137 1.182 10.472-.845 14.848-3.232a26.8 26.8 0 0 1-.8-4.013c-.041-.327.5-.348.537 0 .52 4.347 1.627 6.272 3.841 12.384a2.538 2.538 0 0 0 2.6 1.723c-.754-3.686 1.299-8.308 4.759-10.6z" fill="#ff9f48"></path></svg>