<svg xmlns="http://www.w3.org/2000/svg" viewBox="0 0 200 200"><defs></defs><path d="m47.434 109.821-.128-.013c-.225-.021-5.39.663-5.613.7L13.4 115.346a2.6 2.6 0 0 0-2.043 1.8c-.622 2.02-1.384 5.546.026 7.585 2.061 2.978 23.238 7.356 24.753 6.97 1.385-.354 23.148-4.1 29.863-6.978a2.587 2.587 0 0 0 1.553-2.272c.087-2.02.09-5.578-.8-7.361-1.183-2.362-16.142-4.944-19.318-5.269z" fill="#b26ee6"></path><path d="M35.88 64.238c-1.77.139-1.322-8.381-3.65-8.943s-16.986.562-18.682 2.88c-.934 1.276-1.029 3.163-1.11 4.681-.06 1.124.214 2.348.076 3.449-.227 1.8-2.509 2.257-3.84 2.935a5.983 5.983 0 0 0-3.092 3.675c-.919 2.955-.539 6.583-.276 9.645.945 10.98 3.575 21.976 6.568 32.568l.513.624a2.58 2.58 0 0 1 1.011-.406l28.3-4.837c.223-.038 5.388-.722 5.613-.7l.128.013c-.018-2.339-.33-39.415-2.575-43.406-2.322-4.116-7.215-2.316-8.984-2.178zm-2.815 12.839-12.43 2.8a2.341 2.341 0 0 1-2.846-2.077l-.4-4.5a2.343 2.343 0 0 1 1.857-2.5l12.7-2.627a2.341 2.341 0 0 1 2.815 2.218l.138 4.326a2.344 2.344 0 0 1-1.834 2.36z" fill="#dcbeff"></path><path d="m63.685 118.706-6.679 1.4q-6.544 1.359-13.1 2.673c-1.9.377-3.8.751-5.706 1.1-.69.128-1.381.253-2.073.37a10.031 10.031 0 0 1-1.681.183 28.868 28.868 0 0 1-5.564-.62c-2.289-.416-4.559-.935-6.817-1.494q-4.665-1.155-9.271-2.535l-.152-.046a.387.387 0 0 0-.205.745c2.614.8 5.253 1.517 7.9 2.2 2.258.58 4.527 1.123 6.812 1.584a45.016 45.016 0 0 0 6.174.913 10.9 10.9 0 0 0 2.2-.054c.574-.082 1.146-.185 1.718-.286 1.748-.311 3.491-.65 5.233-.992 4.417-.868 8.827-1.772 13.234-2.685q4.026-.834 8.05-1.681l.128-.027c.49-.105.284-.854-.201-.748zM15.179 76.99a171.163 171.163 0 0 1 1.747 10.059c.3 2.121.547 4.251.707 6.388.037.493.81.5.773 0-.283-3.766-.824-7.512-1.465-11.232q-.718-4.17-1.623-8.306a99.962 99.962 0 0 0-.345-1.534c-.114-.484-.859-.279-.745.2.345 1.472.653 2.948.951 4.425zm21.89-3.606a172.987 172.987 0 0 1 1.747 10.059c.3 2.122.546 4.252.707 6.389.037.493.81.5.772 0-.283-3.766-.823-7.512-1.464-11.232q-.72-4.17-1.624-8.306c-.112-.512-.225-1.024-.345-1.535-.113-.484-.858-.279-.745.206.345 1.466.653 2.943.952 4.419z"></path><path d="m87.983 142.894-19.29-4.031a1.449 1.449 0 0 0-.783.053l-11.9 4.223a1.453 1.453 0 0 0-.965 1.438l1.448 30.906A1.455 1.455 0 0 0 57.5 176.8l18.945 6.081a1.457 1.457 0 0 0 1.155-.116l10.432-5.847a1.452 1.452 0 0 0 .743-1.251l.363-31.333a1.454 1.454 0 0 0-1.155-1.44z" fill="#aceac7"></path><path d="M91.883 129.717q-.014-3.5-.046-7a276.417 276.417 0 0 0-.082-4.9c-.008-.268-.016-.536-.026-.8-.019-.5-.792-.5-.773 0 .054 1.43.073 2.862.092 4.293q.043 3.271.055 6.544.02 4.091.023 8.18v9.2q-.006 4.78-.02 9.56-.014 4.711-.032 9.422-.016 4.26-.037 8.519-.016 3.555-.036 7.109l-.028 5.046c-.005.787-.029 1.578-.014 2.365v.1a.387.387 0 0 0 .773 0q0-.81.01-1.62l.025-4.451.035-6.664.037-8.261q.02-4.6.034-9.2.015-4.82.023-9.641.009-4.657.007-9.314-.003-4.245-.02-8.487zm-72.667-21.104a194.097 194.097 0 0 0-.083-4.108q-.01-.337-.026-.675c-.022-.5-.795-.5-.772 0 .054 1.2.073 2.4.092 3.6q.042 2.745.054 5.489.021 3.43.023 6.86.006 3.858 0 7.715-.006 4.026-.02 8.052-.014 3.936-.032 7.872-.017 3.588-.037 7.176l-.036 5.962-.028 4.232c-.005.661-.028 1.324-.015 1.984v.085a.386.386 0 0 0 .772 0l.01-1.359.026-3.732q.018-2.794.034-5.589.021-3.464.038-6.928.02-3.875.033-7.75.015-4.028.024-8.056.008-3.922.006-7.844 0-3.558-.016-7.116-.014-2.934-.047-5.87z"></path><path d="M52.54 150.856a2.893 2.893 0 0 0-.884-.071 19.139 19.139 0 0 0-.863-2.6 17.733 17.733 0 0 0-3.006-4.879 16.813 16.813 0 0 0-5.625-4.17 22.938 22.938 0 0 0-7.577-1.913 4.64 4.64 0 0 0-1.118-.223v-8.1a.387.387 0 0 0-.773 0v8.1a5.192 5.192 0 0 0-.655.1 26.268 26.268 0 0 0-8.653 1.318 21.87 21.87 0 0 0-6.877 3.842 23.164 23.164 0 0 0-4.368 4.849 25.141 25.141 0 0 0-2.1 3.784c-.047-.014-.092-.031-.141-.043a2.876 2.876 0 0 0-2.908.989c-1.363 1.65-1.367 4.614.869 5.51a3.312 3.312 0 0 0 4.259-2.329 3.467 3.467 0 0 0-1.384-3.819c.044-.1.091-.2.14-.3q.518-1.1 1.138-2.144a23.173 23.173 0 0 1 3.679-4.714 21 21 0 0 1 5.969-4.109 23.6 23.6 0 0 1 8.465-2.007 8.741 8.741 0 0 0-2.475 2.573 17.907 17.907 0 0 0-2.42 6.43 2.893 2.893 0 0 0-2.1 1.066c-1.363 1.649-1.368 4.614.869 5.51a3.406 3.406 0 0 0 2.039-6.5L26 147a18.251 18.251 0 0 1 1.785-5.206 7.217 7.217 0 0 1 4.37-3.921c.742 0 1.486.038 2.227.1a4.74 4.74 0 0 1 2.4 1.932 11.266 11.266 0 0 1 1.326 3.515 25.429 25.429 0 0 1 .613 4.19 50.581 50.581 0 0 1 .022 5.548 3.422 3.422 0 0 0-2.116 1.2c-1.613 1.924-1.642 5.447.991 6.5a4.011 4.011 0 0 0 2.45-7.638 3.316 3.316 0 0 0-.551-.091c.069-1.687.1-3.376 0-5.064a27.875 27.875 0 0 0-.568-4.411 13.52 13.52 0 0 0-1.329-3.854 6.082 6.082 0 0 0-1.324-1.6 22.53 22.53 0 0 1 3.722.908 16.832 16.832 0 0 1 6.161 3.644 16.388 16.388 0 0 1 3.411 4.648 18.3 18.3 0 0 1 1.309 3.54 2.945 2.945 0 0 0-1.272.9c-1.363 1.65-1.368 4.614.869 5.51a3.406 3.406 0 0 0 2.039-6.5zm-41.168 3.964a2.562 2.562 0 0 1-3.034 1.886 2.1 2.1 0 0 1-1.483-1.69c-.281-1.476.7-3.511 2.386-3.474a2.091 2.091 0 0 1 .482.068 16.542 16.542 0 0 0-.811 2.3l-.028.109c-.117.483.628.69.745.206a14.091 14.091 0 0 1 .523-1.62c.093-.249.179-.469.267-.682a2.723 2.723 0 0 1 .953 2.897zm16.138-3.847a2.559 2.559 0 0 1-3.033 1.885 2.1 2.1 0 0 1-1.483-1.69c-.265-1.39.588-3.275 2.1-3.458q-.129.8-.215 1.608c-.053.494.72.49.773 0a28.59 28.59 0 0 1 .209-1.556 2.58 2.58 0 0 1 1.649 3.211zm11.8 6.146c.059-1.07.123-2.142.174-3.214a3.109 3.109 0 0 1 2.406 4.012 3.156 3.156 0 0 1-3.7 2.327 2.6 2.6 0 0 1-1.87-2.109c-.308-1.655.658-3.843 2.391-4.2-.052 1.062-.115 2.124-.172 3.184-.029.497.743.496.77 0zm14.705-2.3a2.562 2.562 0 0 1-3.034 1.886 2.1 2.1 0 0 1-1.482-1.69 3.129 3.129 0 0 1 1.584-3.32c.05.232.1.464.139.7q.033.181.06.363l.023.15.012.09c.035.269.062.537.083.807 0 .037 0 .073.005.109.017.5.79.5.773 0a12.574 12.574 0 0 0-.215-1.751c-.037-.207-.084-.412-.128-.618h.049a2.5 2.5 0 0 1 2.13 3.275z"></path><path d="m89.051 143.557-4.09 1.654-6.518 2.635-1.419.573-2.106-.508-5.335-1.288-.5-.121v-7.639a.386.386 0 0 0-.772 0v7.452l-5.211-1.257-5.582-1.347c-.908-.219-1.816-.472-2.731-.659l-.039-.01c-.483-.116-.689.629-.2.745l2.234.54 5.335 1.287 6.483 1.565 5.582 1.348 1.851.447c.207.049.429.127.646.175.069 1.773.075 3.55.087 5.325.019 2.835.019 5.672.015 8.508q-.009 4.551-.035 9.1-.02 3.718-.048 7.436l-.019 2.385c0 .2-.018.42-.025.634l-6.581-2.112-11.208-3.6-2.567-.824c-.474-.152-.678.594-.2.745l7.085 2.274 11.207 3.6 2.567.824a.39.39 0 0 0 .489-.373q.013-1.429.024-2.859.027-3.536.048-7.071.026-4.509.038-9.019.01-4.351-.007-8.7c-.01-2.043-.017-4.087-.085-6.128 0-.072-.006-.144-.008-.215l3.8-1.535 6.518-2.635 1.5-.605c.437-.186.238-.933-.223-.747z"></path><path d="M138.469 60.621c-1.03-.515-1.288 1.03-1.342 3.46s-1.748 3.493-2.263 2.463-.515-10.816-.773-11.588-1.545-1.03-1.545 1.287.515 12.876-.773 12.876-1.03-3.347-1.8-3.139-.515 3.4 0 4.685 2.317.515 2.833.969c.357.316.218 1.214.1 1.735h1.96v-3.477c0-1.03 1.545-1.288 2.832-1.545s1.802-7.211.771-7.726z" fill="#6dd3a8"></path><path d="M131.889 79.06a.391.391 0 0 0 .607.078l1.944-2.023 1.986 2.463c.174.216.473.1.607-.078l2.08-2.724.238-.311a.319.319 0 0 0-.139-.5.419.419 0 0 0-.529.114l-1.992 2.609-1.954-2.424a.388.388 0 0 0-.546 0q-.951.988-1.9 1.978l-1.174-1.9a.4.4 0 0 0-.529-.139l-.869.459q.079.393.161.788l.764-.4zm7.243.734a.412.412 0 0 0-.4.088.564.564 0 0 0-.052.056l-1.992 2.609-1.954-2.424a.387.387 0 0 0-.546 0q-.951.988-1.9 1.978l-1.174-1.9a.4.4 0 0 0-.529-.139l-.157.083.053.261.041.2.031.153.035.171.053-.029 1.246 2.017a.391.391 0 0 0 .613.082l1.944-2.023 1.986 2.463c.174.216.473.1.607-.078l1.521-1.992.46-.6.337-.441a.333.333 0 0 0-.223-.535z" fill="#ffd2d2"></path><path d="M88.668 101.23a24.613 24.613 0 0 0-2.876-.372 20.294 20.294 0 0 0-5.39.087 5.03 5.03 0 0 0-.485.116c-.065.02-.128.041-.192.064a.346.346 0 0 0-.107.043c-.058.029-.113.06-.169.092l-.036.021c.008 0 .016-.007-.021.02a.444.444 0 1 1-.04.032l-.02.025a.905.905 0 0 0 .08.045l.046.026a2.78 2.78 0 0 0 .394.125c.178.045.358.079.54.108a28.181 28.181 0 0 0 5.371.178q.934-.031 1.867-.1a13.717 13.717 0 0 0 1.513-.177c.127-.023.255-.051.381-.084l.056-.017a7.516 7.516 0 0 0-.912-.232z" fill="#e59e70"></path><path d="m141.753 99.765-2.191-.773-7.339-2.592 11.536-4.385.282-.108-3.479-.51-.475.175-14.368 5.3 5.679 2.122 2.068.773 13.019 4.864.654.244.654.244 1.723.644q.048-.535.1-1.069l.041-.4.042-.407q.068-.633.14-1.263zM48.078 89.233h-.772l-4.1-.021.048 1.189.224 5.537.015.385.016.385.023.573.161 3.973a22.332 22.332 0 0 0 2.585.366 12.636 12.636 0 0 0 4.9-.327l.045-1.3.007-.222.027-.773.118-3.432.014-.39.013-.389.056-1.615.135-3.915h-.726z" fill="#61c0ff"></path><path d="M139.866 73.369h-10.82l.079.386.079.386q.258 1.258.514 2.517l.869-.459a.4.4 0 0 1 .529.139l1.174 1.9 1.9-1.978a.388.388 0 0 1 .546 0l1.954 2.424 1.992-2.609a.419.419 0 0 1 .529-.114.319.319 0 0 1 .139.5l-.238.311-2.08 2.724c-.134.176-.433.294-.607.078l-1.986-2.463-1.939 2.027a.391.391 0 0 1-.607-.078l-1.246-2.017-.764.4.551 2.7.157-.083a.4.4 0 0 1 .529.139l1.174 1.9 1.9-1.978a.387.387 0 0 1 .546 0l1.954 2.424 1.992-2.609a.564.564 0 0 1 .052-.056.412.412 0 0 1 .4-.088.333.333 0 0 1 .219.534l-.337.441-.46.6-1.521 1.992c-.134.176-.433.294-.607.078l-1.986-2.463L132.5 83a.391.391 0 0 1-.607-.079l-1.246-2.017-.053.029 1.345 6.634.467 2.309.08.4.05.247a.441.441 0 0 1 0 .145.369.369 0 0 1-.275.33l-.216.047c-.336.071-.672.137-1.009.206l-.45.092-.056.011-.321.066-.377.077.023.133a.37.37 0 0 0 .27.269 23.4 23.4 0 0 0 5.464.218 14.705 14.705 0 0 0 2.231-.316.4.4 0 0 0 .284-.373l.01-.087.047-.381.046-.381.623-5.126 1.157-9.519.265-2.176a.39.39 0 0 0-.386-.389zm-97.381 6.847.332 1.772 1.468-.357-.316-1.8zm5.853-.389-.26 1.484-.056.32.056.014 1.413.343.332-1.772z" fill="#f55555"></path><path d="M30.632 31.247c-.475-3.852-2.689-8.943-7.224-9.042a6.957 6.957 0 0 0-5.17 2.332 11.057 11.057 0 0 0-2.467 6.033c-.5 3.505-.159 7.535 1.993 10.477a6.477 6.477 0 0 0 3.92 2.574 6.877 6.877 0 0 0 5.084-.93c3.116-2.039 4.06-6.266 3.987-9.752a18.084 18.084 0 0 0-.123-1.692zm-2.64 2.015c-1.2.057-2.393.1-3.586.192a1.411 1.411 0 0 1-.846 1.1A1.191 1.191 0 0 1 22.122 34a2.232 2.232 0 0 1-.154-1.631 1.434 1.434 0 0 1 .562-.825 1.1 1.1 0 0 1 .238-.124c-.083-1.81-.129-3.622-.184-5.433-.016-.5.757-.5.772 0 .055 1.808.1 3.617.184 5.423a1.527 1.527 0 0 1 .88 1.274c1.189-.088 2.381-.135 3.572-.192.497-.026.495.746 0 .77zm16.425 49.132-1.457.354.076.409.989 5.277h1.41l-.063-.372q-.479-2.833-.955-5.668zm3.661.046-.187-.046-.083.491-.5 2.982-.433 2.567h1.409l.1-.517.969-5.169z" fill="#ffd35c"></path><path d="M91.451 101.213a2.734 2.734 0 0 0-.8.258.373.373 0 0 0-.028-.162.452.452 0 0 0-.034-.095c-.218-.44-.968-.563-1.391-.659a21.686 21.686 0 0 0-2.72-.408 23.177 23.177 0 0 0-6.1.02 2.478 2.478 0 0 0-1.685.767.764.764 0 0 0-.144.465 7 7 0 0 0 1.568 5.59 6.567 6.567 0 0 0 5.106 1.853 5.033 5.033 0 0 0 4.031-2.374c.072-.113.134-.231.2-.348a4.632 4.632 0 0 0 4.272-1.864 1.82 1.82 0 0 0 .056-1.955 2.387 2.387 0 0 0-2.331-1.088zm-5.723 6.8a5.944 5.944 0 0 1-4.772-1.282 5.375 5.375 0 0 1-1.605-3.2 7.882 7.882 0 0 1-.085-1.352 2.022 2.022 0 0 0 .192.071 11.758 11.758 0 0 0 2.945.359c1.006.041 2.015.041 3.022.016a48.805 48.805 0 0 0 1.91-.089c.578-.038 1.156-.09 1.73-.178a5.832 5.832 0 0 0 .743-.146.313.313 0 0 0 0 .053c-.308 2.491-1.332 5.273-4.08 5.75zm-6.42-6.679c-.023-.019-.008-.027 0 .002zm10.611.265.007.008v.005c-.006 0-.014-.008-.014-.014zm-4.127-.743a24.613 24.613 0 0 1 2.876.372 7.516 7.516 0 0 1 .912.231l-.056.017a5.086 5.086 0 0 1-.381.084 13.717 13.717 0 0 1-1.513.177q-.931.07-1.867.1a28.181 28.181 0 0 1-5.371-.178 6.14 6.14 0 0 1-.749-.166 3.732 3.732 0 0 1-.185-.067l-.046-.026a.905.905 0 0 1-.08-.045l.02-.025a.444.444 0 1 0 .04-.032c.037-.027.029-.024.021-.02l.036-.021c.056-.032.111-.063.169-.092a.346.346 0 0 1 .107-.043c.064-.023.127-.044.192-.064a5.03 5.03 0 0 1 .485-.116 20.294 20.294 0 0 1 5.39-.084zm7.448 2.6a1.09 1.09 0 0 1-.14.337 3.082 3.082 0 0 1-1.35 1.155 4.275 4.275 0 0 1-1.93.428 10.97 10.97 0 0 0 .738-2.927l.037-.031.071-.05a2.411 2.411 0 0 1 .63-.325 1.593 1.593 0 0 1 1.743.554.981.981 0 0 1 .231.566.813.813 0 0 1-.03.292zM29.822 25.963a8.269 8.269 0 0 0-4.745-4.276 7.136 7.136 0 0 0-5.972 1.083 9.634 9.634 0 0 0-3.692 5.655c-1.013 3.851-.913 8.422 1.03 11.975a7.86 7.86 0 0 0 3.781 3.573 7.664 7.664 0 0 0 5.665.033c3.773-1.511 5.353-5.753 5.606-9.53.034-.513.044-1.027.033-1.541a15.878 15.878 0 0 0-1.706-6.972zm-3.054 16.728a6.877 6.877 0 0 1-5.084.93 6.477 6.477 0 0 1-3.92-2.574c-2.152-2.942-2.49-6.972-1.993-10.477a11.057 11.057 0 0 1 2.467-6.033 6.957 6.957 0 0 1 5.17-2.332c4.535.1 6.749 5.19 7.224 9.042.07.562.108 1.127.123 1.692.073 3.486-.871 7.713-3.987 9.752zm-3.277-9.007-.016.018z"></path><path d="M27.992 32.489c-1.191.057-2.383.1-3.572.192a1.527 1.527 0 0 0-.88-1.274c-.083-1.806-.129-3.615-.184-5.423-.015-.5-.788-.5-.772 0 .055 1.811.1 3.623.184 5.433a1.1 1.1 0 0 0-.238.124 1.434 1.434 0 0 0-.562.825A2.232 2.232 0 0 0 22.122 34a1.191 1.191 0 0 0 1.438.554 1.411 1.411 0 0 0 .846-1.1c1.193-.088 2.39-.135 3.586-.192.495-.024.497-.796 0-.773zm-4.318.65c0 .017-.008.067-.009.085a2.441 2.441 0 0 1-.067.268.275.275 0 0 1-.015.036l-.013.026a1.335 1.335 0 0 1-.068.115l-.01.014.01-.011-.011.012c-.01.013-.019.022-.015.017l-.012.014-.041.039-.007.009-.048.031-.022.012-.029.013-.072.02h-.149a.655.655 0 0 0-.096-.022.6.6 0 0 1-.059-.031c-.006 0-.036-.03-.039-.031-.016-.016-.031-.03-.046-.047a.352.352 0 0 1-.025-.033l-.043-.068c-.014-.024-.021-.041-.032-.062l-.009-.021-.013-.034-.018-.056a2.355 2.355 0 0 1-.036-.145c-.005-.022-.007-.045-.012-.067 0-.043-.008-.087-.01-.13a2.266 2.266 0 0 1 .011-.308v-.028c0-.024.008-.049.013-.074a1.81 1.81 0 0 1 .042-.165l.024-.072v-.013l.007-.014c.012-.022.022-.043.035-.065 0 0 .03-.045.035-.055.026-.03.054-.058.083-.086l.01-.011h.006a1.39 1.39 0 0 0 .072-.044l.022-.012.038-.014c.026-.008.053-.012.079-.019h.078l.039.009.039.015a.474.474 0 0 0 .053.03h.007l.01.009c.024.024.047.048.072.071l.016.018c.016.023.033.047.047.071l.036.062s.021.045.029.059a1.487 1.487 0 0 1 .054.159c.017.062.03.124.041.187v.032c0 .045.006.091.008.136s.014.114.01.169zm94.182 55.371a1.572 1.572 0 0 0-.577-.456 1.577 1.577 0 0 0-.126-.051 1.338 1.338 0 0 0-.693-.047 1.579 1.579 0 0 0-.665.306 1.759 1.759 0 0 0-.339.345 1.793 1.793 0 0 0-.169.278c-.535 1.125-.3 3.192 1.213 3.394 1.218.164 1.871-1.133 1.882-2.171a2.854 2.854 0 0 0-.265-1.18 2.111 2.111 0 0 0-.261-.418zm-.85 2.93a.6.6 0 0 1-.329.084h-.057c-.013 0-.045 0-.055-.008a2.014 2.014 0 0 1-.138-.043c-.005-.006-.1-.05-.116-.062a.552.552 0 0 1-.047-.032c.084.054-.016-.014-.033-.03a1.429 1.429 0 0 1-.12-.126l-.011-.023-.05-.075a1.749 1.749 0 0 1-.133-.273 2.742 2.742 0 0 1-.1-.379.952.952 0 0 0-.009-.063v-.032c-.006-.079-.012-.157-.013-.235v-.2c0-.034.005-.067.008-.1l.006-.053a2.461 2.461 0 0 1 .084-.359c.007-.022.049-.127.05-.135.023-.049.047-.1.074-.144s.052-.085.081-.126v-.007l.007-.008c.026-.029.051-.058.079-.085s.043-.038.063-.058l.008-.005c.04-.026.08-.05.122-.073a.266.266 0 0 1 .04-.017c.031-.011.061-.022.093-.03h.008a.6.6 0 0 1 .235-.028h.055a.914.914 0 0 1 .136.038l.022.01c.021.011.04.025.06.037a.574.574 0 0 1 .053.032c.009.009.053.043.054.044a1.415 1.415 0 0 1 .107.112l.018.02.017.027c.031.044.059.089.086.136a1.947 1.947 0 0 1 .238.939 1.844 1.844 0 0 1-.311 1.06.987.987 0 0 1-.282.27zm-39.484-2.014c.031.006.06.016.092.021a1.366 1.366 0 0 0 .846-.148 1.859 1.859 0 0 0 .774-.877 2.844 2.844 0 0 0 .262-1.147 2.179 2.179 0 0 0-1.229-2.105 1.572 1.572 0 0 0-1.865.883 2.986 2.986 0 0 0 .147 2.732 1.5 1.5 0 0 0 .973.641zm-.611-2.315c0-.033 0-.067.008-.1l.006-.053a2.632 2.632 0 0 1 .084-.359c.008-.022.049-.127.05-.135.023-.049.047-.1.074-.144s.052-.085.081-.126v-.007l.007-.008c.026-.029.051-.058.079-.085s.043-.038.063-.058l.008-.005c.04-.026.08-.049.122-.073l.04-.017c.031-.01.061-.021.093-.03a.618.618 0 0 1 .243-.03h.055a.914.914 0 0 1 .136.038l.022.01A1.1 1.1 0 0 1 78.2 86c.009.009.053.043.054.044.038.036.073.073.107.112l.018.02.017.027c.031.044.059.09.086.136a1.947 1.947 0 0 1 .238.939 1.844 1.844 0 0 1-.311 1.06.978.978 0 0 1-.237.23c-.019.013-.036.031-.056.042a.6.6 0 0 1-.329.084h-.057a.427.427 0 0 1-.055-.008c-.036-.009-.071-.021-.106-.032l-.032-.01c0-.007-.1-.051-.116-.062l-.047-.032c.084.054-.016-.015-.033-.03a1.6 1.6 0 0 1-.12-.127l-.007-.011-.05-.075a1.578 1.578 0 0 1-.133-.273 2.742 2.742 0 0 1-.1-.379.952.952 0 0 0-.009-.063v-.032c-.006-.078-.012-.157-.013-.235s-.002-.147.002-.214zm-24.92 1.369-2.931-.015.956-5.1.15-.8.474-2.526a.4.4 0 0 0-.27-.475l-2.235-.586a.356.356 0 0 0-.057-.009h-.016a.347.347 0 0 0-.2.041.341.341 0 0 0-.2.24l-.353 2.019-.1.556-1.018 6.037-.037.22-.91-5.4-.145-.861-.451-2.575a.338.338 0 0 0-.2-.239.348.348 0 0 0-.2-.042.5.5 0 0 0-.073.011l-2.235.586a.4.4 0 0 0-.27.475l.473 2.526 1.043 5.561.058.314h-.443a.367.367 0 0 0-.219.065l-.011.008a.332.332 0 0 0-.155.312l.173 4.291.119 2.935.015.385.016.385.128 3.175.064 1.577a.4.4 0 0 0 .284.372 23.07 23.07 0 0 0 3.061.449 12.643 12.643 0 0 0 5.382-.449.4.4 0 0 0 .284-.372l.062-1.8.026-.773.06-1.723.063-1.822.013-.39.014-.389.145-4.221.055-1.58a.392.392 0 0 0-.389-.393zm-.535 4.686-.056 1.615-.013.389-.014.39-.118 3.432-.027.773-.007.222-.045 1.3a12.636 12.636 0 0 1-4.9.327 22.332 22.332 0 0 1-2.585-.366l-.161-3.973-.03-.575-.016-.385-.015-.385-.224-5.537-.045-1.185 4.1.021h.772l2.787.014h.726zm-7.487-13.339.316 1.8-1.468.357-.332-1.772zm-1.009 2.921 1.457-.354.955 5.668.063.372h-1.41l-.989-5.277zm6.531-.76-1.413-.343-.056-.014.056-.32.26-1.484 1.485.389zm-2.185 3.879.5-2.982.083-.491.187.046 1.27.308-.969 5.169-.1.517h-1.404l.433-2.567z"></path><path d="M183.536 45.527V14.646c0-1.145.062-2.31 0-3.454v-.144a.392.392 0 0 0-.387-.386H53.191c-1.755 0-3.514-.03-5.269 0h-.23a.391.391 0 0 0-.386.386v70.215l.353-2.019a.341.341 0 0 1 .2-.24.347.347 0 0 1 .2-.041h.016V12.374c0-.289.043-.63.027-.94h63.71v33.993H51.181c-.827 0-1.656-.015-2.483 0h-.1a.387.387 0 0 0 0 .773h61.022c.733 0 1.467.009 2.2 0v10.054c0 .613-.017 1.23 0 1.843v.078a.387.387 0 0 0 .773 0V12.969c0-.511.008-1.023 0-1.535h3.732v44.949c0 .613-.018 1.229 0 1.842v.079a.377.377 0 0 0 .046.184l.7-.054a.406.406 0 0 0 .023-.13V46.2h63.5c.722 0 1.445.008 2.168 0v22.35c.274.012.533.029.773.05V46.1a.417.417 0 0 0 .001-.573zm-2.038-.1h-61.72c-.857 0-1.715-.016-2.571 0h-.107V13.1c0-.553.011-1.109 0-1.663h64.011c.542 0 1.111.045 1.656.009v33.981z" fill="#aceac7"></path><path d="M61.642 95.642h-.001.001zm53.71 8.452a.544.544 0 0 1 .084-.022c-.096-.019-.186.059-.084.022zM91.3 102.04a2.411 2.411 0 0 0-.63.325l-.071.05-.037.031a10.97 10.97 0 0 1-.738 2.927 4.275 4.275 0 0 0 1.93-.428 3.082 3.082 0 0 0 1.35-1.155 1.09 1.09 0 0 0 .14-.337.813.813 0 0 0 .033-.3.981.981 0 0 0-.231-.566 1.593 1.593 0 0 0-1.746-.547zm16.509-2.275-.749 1.856.352-.1 6.071-1.754 1.642-.475.125-.3.107-.256 2.007-4.782-7.829 1.534-.256.633-1.158 2.871zM69.071 94.5c-1.972.338-3.952.676-5.9 1.148-.227.055-.452.114-.677.178l.045.009c2.269.418 4.564.711 6.85 1.018q2.026.273 4.055.527l-.321-2.006-.238-1.486c-.366.061-.738.1-1.1.163q-1.358.216-2.714.449z" fill="#cff0fa"></path><path d="m113.284 100.626-5.4 1.56 2.717.684 4.572 1.151c.06.015.181.024.263.051l.074-.014 1.6-.352 6.919-1.52-8.606-2.17c-.173.063-.371.1-.506.136z" fill="#cff0fa"></path><path d="m151.542 92.183-13.334-1.607-.046.381-.047.381-.01.087a.4.4 0 0 1-.284.373 14.705 14.705 0 0 1-2.231.316 23.4 23.4 0 0 1-5.464-.218.37.37 0 0 1-.27-.269l-.023-.133q-1.345.269-2.692.533-4.265.846-8.533 1.683l-.339.066-1.32 3.147-.821 1.956c-.015.036-.029.075-.043.113-.045.116-.088.237-.133.359l.853.215.789.2 8.228 2.074a.389.389 0 0 1 0 .745l-3.824.84-5.227 1.148c-.408.09-.816.192-1.227.269a2.178 2.178 0 0 1-.868-.149l-8.371-2.108a.344.344 0 0 1-.241-.189.31.31 0 0 1-.029-.286l.35-.869.6-1.475.312-.773 1.343-3.328q-3.6.7-7.191 1.407l-3.176.62a.394.394 0 0 1-.475-.27q-.06-.273-.118-.547c-.47-2.232-.864-4.481-1.26-6.728-.065-.37-.127-.742-.192-1.112l-.065-.378-.065-.378-5.816.846-6.793.989.115.37.115.371 1.7 5.46a.393.393 0 0 1-.27.475 11.671 11.671 0 0 1-2.119.436c-2.966.45-5.965.726-8.955.972a.358.358 0 0 1-.163.013.362.362 0 0 1-.143-.015h-.009c-.663-.056-1.327-.17-1.987-.255q-1.83-.237-3.659-.487a225.148 225.148 0 0 1-3.833-.552c-.895-.137-1.8-.263-2.682-.472-.237-.056-.5-.145-.575-.409a.547.547 0 0 1 .339-.6 7.09 7.09 0 0 1 1.81-.559c2.058-.485 4.149-.84 6.233-1.191q1.682-.285 3.367-.545l-.105-.656-.06-.378-.061-.379-5.088.74-15.282 2.215-.014.389-.013.39-.063 1.822-.06 1.723-.027.773-.062 1.8a.4.4 0 0 1-.284.372 12.643 12.643 0 0 1-5.382.449 23.07 23.07 0 0 1-3.061-.449.4.4 0 0 1-.284-.372l-.064-1.577-.128-3.175-.016-.385-.015-.385-.461.067-21.353 3.11-11.271 1.64-.513.074a.306.306 0 0 0-.275.368.32.32 0 0 0 .275.377l8.9 1.63 21.22 3.889 25.345 4.645 21.274 3.9 6.548 1.2a18.79 18.79 0 0 0 2.456.45 9.385 9.385 0 0 0 2.314-.49l6.081-1.416 20.359-4.737 24.2-5.631-.654-.244-.654-.244-13.019-4.864-2.068-.773-5.679-2.122 14.368-5.3.475-.175 3.479.51-.282.108-11.546 4.385 7.339 2.589 2.191.773 8.087 2.852c.112-.962.236-1.915.37-2.852l.113-.773c.323-2.139.7-4.183 1.143-6.046a34.51 34.51 0 0 1 .181-.75zm-57.818 12.073a4.632 4.632 0 0 1-4.272 1.864c-.066.117-.128.235-.2.348a5.033 5.033 0 0 1-4.031 2.374 6.567 6.567 0 0 1-5.106-1.853 7 7 0 0 1-1.568-5.59.764.764 0 0 1 .144-.465 2.478 2.478 0 0 1 1.685-.767 23.177 23.177 0 0 1 6.1-.02 21.686 21.686 0 0 1 2.72.408c.423.1 1.173.219 1.391.659a.452.452 0 0 1 .034.095.373.373 0 0 1 .028.162 2.734 2.734 0 0 1 .8-.258 2.387 2.387 0 0 1 2.331 1.087 1.82 1.82 0 0 1-.056 1.956zM23.491 33.684l-.015.017c-.004.005.005-.001.015-.017zm.009-.012-.01.011z" fill="#cff0fa"></path><path d="m117.286 89.033-.017-.027-.018-.02a1.415 1.415 0 0 0-.107-.112s-.045-.035-.054-.044a.574.574 0 0 0-.053-.032c-.02-.012-.039-.026-.06-.037l-.022-.01a.914.914 0 0 0-.136-.038h-.055a.6.6 0 0 0-.235.028h-.008c-.032.008-.062.019-.093.03a.266.266 0 0 0-.04.017 1.872 1.872 0 0 0-.122.073l-.008.005c-.02.02-.043.038-.063.058s-.053.056-.079.085l-.007.008v.007q-.043.061-.081.126a1.955 1.955 0 0 0-.074.144c0 .008-.043.113-.05.135a2.461 2.461 0 0 0-.084.359l-.006.053c0 .033-.006.066-.008.1 0 .067-.006.134 0 .2s.007.156.013.235v.032c0 .012.008.055.009.063a2.742 2.742 0 0 0 .1.379c0 .012.032.079.033.084s.017.037.026.055c.023.046.047.09.074.134l.05.075.007.011a1.429 1.429 0 0 0 .12.126c.017.016.117.084.033.03a.552.552 0 0 0 .047.032c.02.012.111.056.116.062.045.016.091.03.138.043.01 0 .042.006.055.008h.057a.6.6 0 0 0 .329-.084.987.987 0 0 0 .293-.272 1.844 1.844 0 0 0 .311-1.06 1.947 1.947 0 0 0-.238-.939c-.034-.033-.062-.078-.093-.122zM76.923 87.58c0 .012.008.055.009.063a2.742 2.742 0 0 0 .1.379c0 .012.032.079.033.084s.017.037.026.055c.023.046.047.091.074.134l.05.075.007.011a1.6 1.6 0 0 0 .12.127c.017.015.117.084.033.03.015.01.03.022.047.032s.111.055.116.062l.032.01c.035.011.07.023.106.032a.427.427 0 0 0 .055.008h.057a.6.6 0 0 0 .329-.084c.02-.011.037-.029.056-.042a.978.978 0 0 0 .237-.23 1.844 1.844 0 0 0 .311-1.06 1.947 1.947 0 0 0-.238-.939 1.94 1.94 0 0 0-.086-.136l-.017-.027-.018-.02a1.612 1.612 0 0 0-.107-.112s-.045-.035-.054-.044a1.1 1.1 0 0 0-.113-.069l-.022-.01a.914.914 0 0 0-.136-.038h-.055a.618.618 0 0 0-.243.03c-.032.009-.062.02-.093.03l-.04.017a2.457 2.457 0 0 0-.122.073l-.008.005c-.02.02-.043.038-.063.058s-.053.056-.079.085l-.007.008v.007q-.043.061-.081.126c-.027.047-.051.1-.074.144 0 .008-.042.113-.05.135a2.632 2.632 0 0 0-.084.359l-.006.053c0 .033-.006.067-.008.1 0 .067-.006.135 0 .2s.007.157.013.235z" fill="#cff0fa"></path><path d="m63.514 17.15-3.131 3.465-4.993 5.523-1.147 1.269c-.332.368.212.916.547.546l3.131-3.464 4.993-5.524L64.06 17.7c.333-.372-.212-.92-.546-.55zm-7.468 17.468c-.358.346.189.892.546.546l4.973-4.8q3.954-3.824 7.91-7.645l1.8-1.736c.358-.346-.188-.892-.546-.546l-4.972 4.805-7.911 7.645zm76.141-15.653 1.147-1.269c.333-.368-.212-.916-.546-.546l-3.132 3.465-4.992 5.523-1.147 1.269c-.333.368.212.916.546.546l3.132-3.464zM140 20.432l-4.973 4.805-7.91 7.645-1.8 1.736c-.358.346.188.892.546.546l4.972-4.8 7.911-7.645 1.8-1.736c.354-.351-.19-.897-.546-.551z" fill="#aceac7"></path><path d="m91.222 68.876 3.932-.422.566-.061a.4.4 0 0 0 .386-.386.389.389 0 0 0-.386-.386l-3.932.421-.566.061a.4.4 0 0 0-.387.386.39.39 0 0 0 .387.387zm8.878 20.377a.4.4 0 0 0 .386-.386.389.389 0 0 0-.386-.387l-3.932.422-.566.06a.4.4 0 0 0-.387.387.39.39 0 0 0 .387.386l3.932-.421zm.513 1.547-3.932.421-.566.061a.4.4 0 0 0-.387.386.39.39 0 0 0 .387.387l3.932-.422.566-.06a.4.4 0 0 0 .386-.387.389.389 0 0 0-.386-.386zm56.435 3.037-4.782-1.288c-1.849-.5-3.693-1.031-5.551-1.494a.957.957 0 0 0-.561.052l-1.613.5c-.471.146-.941.287-1.405.454l-5.8 2.09c-1.708.616-3.421 1.217-5.123 1.846l-.093.034a.39.39 0 0 0 0 .745q2.382.855 4.763 1.713 4.255 1.533 8.508 3.076c1.042.38 2.085.757 3.123 1.148.466.175.667-.571.2-.745-2.227-.84-4.471-1.639-6.709-2.448q-3.983-1.44-7.966-2.871l-.684-.246 3.257-1.174 6.267-2.258c.351-.127.7-.259 1.058-.37l1.62-.5.74-.229c.06-.019.123-.035.183-.056.11.039.291.057.36.076l1.057.285 3.29.886c1.849.5 3.692 1.032 5.55 1.494l.1.027a.387.387 0 0 0 .211-.747zm-10.472-2.056z"></path><path d="M147.037 93.81c.453-.187.255-.935-.205-.745l-6.332 2.611-.893.368c-.453.187-.254.935.206.745l6.327-2.611zm-3.615 4.525 6.327-2.612.893-.368c.454-.187.255-.935-.2-.745l-6.327 2.611-.893.369c-.458.187-.26.934.2.745zm11.393-2.435-6.327 2.612-.893.368c-.453.187-.255.935.205.745l6.327-2.611.893-.369c.453-.19.255-.937-.205-.745zm32.864 81.259a3.411 3.411 0 0 0-1.141-.089 22.9 22.9 0 0 0-1.056-3.178 21.275 21.275 0 0 0-3.611-5.862 20.225 20.225 0 0 0-6.744-5 27.473 27.473 0 0 0-9.118-2.3 5.5 5.5 0 0 0-1.411-.274v-9.828a.387.387 0 0 0-.773 0v9.834a6.235 6.235 0 0 0-.862.125 31.565 31.565 0 0 0-10.437 1.594 26.225 26.225 0 0 0-8.229 4.6 27.789 27.789 0 0 0-5.253 5.832 30.252 30.252 0 0 0-2.56 4.6c-.061-.019-.12-.042-.182-.058a3.389 3.389 0 0 0-3.454 1.141c-1.619 1.932-1.647 5.468.994 6.526a3.91 3.91 0 0 0 5.035-2.751 4.079 4.079 0 0 0-1.692-4.548l.2-.439q.627-1.332 1.381-2.6a28.017 28.017 0 0 1 4.459-5.7 25.372 25.372 0 0 1 7.2-4.945 28.687 28.687 0 0 1 10.532-2.442 10.264 10.264 0 0 0-3.255 3.291 21.613 21.613 0 0 0-2.887 7.733 3.416 3.416 0 0 0-2.524 1.244c-1.619 1.931-1.648 5.467.994 6.525a4.026 4.026 0 0 0 2.459-7.666c-.053-.014-.107-.024-.16-.035a22.174 22.174 0 0 1 2.148-6.325c1.153-2.152 2.878-4.236 5.349-4.812q1.352.009 2.7.121a5.759 5.759 0 0 1 2.937 2.337 13.492 13.492 0 0 1 1.611 4.231 30.34 30.34 0 0 1 .751 5.062 61.149 61.149 0 0 1 .028 6.81 4.053 4.053 0 0 0-2.589 1.462c-1.888 2.285-1.921 6.438 1.19 7.683 2.565 1.026 5.172-.775 5.934-3.252a4.642 4.642 0 0 0-3.112-5.822 3.967 3.967 0 0 0-.65-.095c.085-2.03.121-4.062.014-6.093a33.764 33.764 0 0 0-.68-5.348 16.138 16.138 0 0 0-1.608-4.666 7.206 7.206 0 0 0-1.8-2.075 27.414 27.414 0 0 1 4.776 1.138 20.374 20.374 0 0 1 7.462 4.411 19.8 19.8 0 0 1 4.128 5.626 22.188 22.188 0 0 1 1.6 4.346 3.486 3.486 0 0 0-1.556 1.072c-1.62 1.932-1.648 5.468.994 6.526a4.026 4.026 0 0 0 2.459-7.667zm-49.547 4.711a3.172 3.172 0 0 1-3.718 2.337 2.613 2.613 0 0 1-1.879-2.119c-.342-1.84.883-4.337 2.986-4.268a2.726 2.726 0 0 1 .656.105 22.178 22.178 0 0 0-1.007 2.851l-.035.135c-.117.483.628.689.745.205a17.1 17.1 0 0 1 .634-1.961c.124-.33.24-.625.36-.913a3.34 3.34 0 0 1 1.258 3.628zm19.445-4.636a3.171 3.171 0 0 1-3.718 2.337 2.609 2.609 0 0 1-1.879-2.118c-.327-1.756.774-4.107 2.7-4.26-.111.675-.2 1.352-.272 2.026-.053.494.72.49.772 0 .071-.656.16-1.314.268-1.97a3.171 3.171 0 0 1 2.129 3.985zm14.06 7.385c.072-1.321.152-2.642.214-3.965 2.378.187 3.663 2.786 3.05 4.947a3.882 3.882 0 0 1-4.556 2.858 3.2 3.2 0 0 1-2.3-2.57c-.4-2.078.835-4.826 3.036-5.2-.063 1.311-.141 2.622-.212 3.932-.031.494.741.493.768-.002zm17.873-2.749a3.172 3.172 0 0 1-3.718 2.337 2.61 2.61 0 0 1-1.879-2.119 3.817 3.817 0 0 1 2.046-4.116 20.987 20.987 0 0 1 .257 1.362l.028.185c0 .027.015.107.019.141.042.321.079.643.1.966 0 .043.006.086.007.13.017.5.79.5.773 0a15 15 0 0 0-.255-2.08 22.672 22.672 0 0 0-.171-.855h.183c2.022.065 3.116 2.247 2.61 4.049z"></path><path d="M190.039 132.6h-.855a.391.391 0 0 1-.369.386c-2.227.145-4.448.4-6.663.659-4.689.557-9.367 1.215-14.039 1.9q-3.635.532-7.266 1.1c-.45.071-.661-.56-.3-.716A13.739 13.739 0 0 1 149.815 126c-3.063-.033-10.826.2-14.02 3.2-4.022 3.786-2.159 12.284 0 14.216s15.265 8.917 26.481 8.772 26.8-3.356 27.763-4.841 3.928-10.241 0-14.747z" fill="#b26ee6"></path><path d="M193.836 79.163c-1.545-2.318-6.7 0-7.725-.773s0-7.983-.773-9.271c-.158-.264-.827-.43-1.8-.517-.24-.021-.5-.038-.773-.05-4.042-.176-11.469.639-12.619 1.6-1.545 1.287-1.287 6.695-2.317 9.27s-5.923 2.318-11.589 4.121c-1.882.6-3.423 3.985-4.591 8.655l-.092.375-.089.375a76.786 76.786 0 0 0-1.143 6.046l-.113.773c-.134.937-.258 1.89-.37 2.852q-.072.63-.14 1.263l-.042.407-.041.4q-.052.534-.1 1.069a94.542 94.542 0 0 0-.127 18 16.6 16.6 0 0 0 .426 2.233 13.739 13.739 0 0 0 10.73 9.928.381.381 0 0 1 .1-.029q1.28-.2 2.561-.394 6.266-.954 12.544-1.811c3.383-.457 6.777-.925 10.18-1.245q1.172-.109 2.344-.193a5.246 5.246 0 0 0 2.267-3.17c5.845-23.961 4.766-47.704 3.292-49.914zM185.4 92.27a2.339 2.339 0 0 1-1.86 2.225 2.535 2.535 0 0 1-.277.043l-.5.043-6.576.572-1.862.161-1.862.162-2.121.185a2.341 2.341 0 0 1-2.185-1.09 2.26 2.26 0 0 1-.207-.411 2.345 2.345 0 0 1-.143-1.032l.369-4.312a2.34 2.34 0 0 1 2.09-2.128l12.5-1.306.175-.018a2.348 2.348 0 0 1 2.584 2.393z" fill="#dcbeff"></path><path d="M188.815 132.213c-.182.011-.363.027-.544.04q-1.173.083-2.344.193c-3.4.32-6.8.788-10.18 1.245q-6.279.849-12.544 1.811-1.281.195-2.561.394a.381.381 0 0 0-.1.029c-.359.156-.148.787.3.716q3.63-.57 7.266-1.1c4.672-.685 9.35-1.343 14.039-1.9 2.215-.263 4.436-.514 6.663-.659a.391.391 0 0 0 .369-.386.339.339 0 0 0-.364-.383z"></path><path d="M132.83 114.945a42.631 42.631 0 0 1 6.95 1.984 15.169 15.169 0 0 1 4.409 2.341 4.177 4.177 0 0 1 1.109 1.319c.049.1.015.029.026.058l.041.108a5.772 5.772 0 0 1 .245.963 22.726 22.726 0 0 1 .265 3.657c.024 1.666-.022 3.333-.083 5-.118 3.252-.309 6.5-.4 9.755l-.722-.288q-3.135-1.26-6.248-2.57c-1.1-.461-2.211-.933-3.321-1.411l-.158-.069c-.452-.195-.846.47-.39.667q1.192.518 2.392 1.022 2.893 1.224 5.8 2.412 1.308.532 2.618 1.054v.2c-.031 1.482-.042 2.969.054 4.448a9.618 9.618 0 0 0 .507 2.961 2.445 2.445 0 0 0 .239.47c.278.408.948.022.667-.39a1.729 1.729 0 0 1-.113-.19l-.05-.1-.013-.026-.011-.032a4.787 4.787 0 0 1-.173-.565 9.672 9.672 0 0 1-.227-1.452 40.039 40.039 0 0 1-.122-4.243c0-.257.009-.514.013-.771q1.812.717 3.633 1.406c2.062.779 4.136 1.543 6.249 2.174a10.452 10.452 0 0 0 3.587.629c1.55-.092 3.1-.307 4.634-.506 2.321-.3 4.638-.632 6.953-.971q3.711-.543 7.416-1.116 3.123-.481 6.242-.975 1.638-.26 3.276-.523l.15-.024c.489-.079.281-.824-.206-.745q-1.131.183-2.264.362-2.8.447-5.607.882-3.635.564-7.272 1.108c-2.393.356-4.787.7-7.184 1.03-1.755.238-3.513.475-5.276.638a12.464 12.464 0 0 1-1.457.086c-.114 0-.226-.015-.339-.027h-.018l-.089-.013c-.071-.012-.142-.023-.212-.036-.33-.061-.657-.138-.982-.221-1.93-.494-3.815-1.175-5.684-1.858s-3.7-1.39-5.533-2.118c.077-3.069.258-6.135.381-9.2a123.5 123.5 0 0 0 .122-5.129 30.285 30.285 0 0 0-.217-4.062 4.84 4.84 0 0 0-1.051-2.678 11.191 11.191 0 0 0-4.044-2.619 41.143 41.143 0 0 0-8.145-2.5q-.081-.018-.162-.033c-.486-.113-.694.631-.205.727zm25.814 29.727zm-26.162-54.399-.08-.4q-.232-1.155-.467-2.309-.671-3.318-1.345-6.634l-.035-.171-.031-.153-.041-.2-.053-.261q-.274-1.35-.551-2.7l-.161-.788-.514-2.517-.079-.386-.079-.386-.387-1.9q-.837-4.084-1.689-8.166c-.346-1.655-.681-3.315-1.068-4.961a21.634 21.634 0 0 0-.065-.272.392.392 0 0 0-.373-.284l-3.335.257-5.057.389-.7.054-2.247.173-9.651.742-8.369.644c-1.352.1-2.707.186-4.057.312h-.058a.381.381 0 0 0-.333.238.4.4 0 0 0-.039.251q.234 1.5.472 3 .59 3.721 1.189 7.439.768 4.774 1.558 9.544.618 3.724 1.261 7.444l.065.378.065.378c.065.37.127.742.192 1.112.4 2.247.79 4.5 1.26 6.728q.058.275.118.547a.394.394 0 0 0 .475.27l3.176-.62q3.6-.7 7.191-1.407l-1.343 3.328-.312.773-.6 1.475-.35.869a.31.31 0 0 0 .029.286.344.344 0 0 0 .241.189l8.371 2.108a2.178 2.178 0 0 0 .868.149c.411-.077.819-.179 1.227-.269l5.229-1.142 3.824-.84a.389.389 0 0 0 0-.745l-8.228-2.074-.789-.2-.853-.215c.045-.122.088-.243.133-.359.014-.038.028-.077.043-.113l.821-1.956 1.32-3.147.339-.066q4.267-.838 8.533-1.683l2.692-.533.377-.077.321-.066.056-.011.45-.092c.337-.069.673-.135 1.009-.206l.216-.047a.369.369 0 0 0 .275-.33.441.441 0 0 0 0-.145zm-4.694.84q-4.131.82-8.264 1.631l-1.572.309-.032.006-7.889 1.547q-4.019.788-8.037 1.572l-2.633.515c-.29.056-.6.093-.9.155-.424-1.959-.773-3.936-1.124-5.909v-.01l2.043-.425q3.045-.633 6.091-1.259 2.832-.584 5.667-1.158c.4-.081.792-.163 1.189-.243s.792-.163 1.189-.243l.2-.041q4.359-.885 8.724-1.749 3.105-.612 6.215-1.2l.378-.071.378-.072.674-.128.394-.073.571 2.814.494 2.441c.017.084.032.171.046.259.022.13.044.262.068.394l.03.156-.7.15-.53.107-.377.076-.377.075c-.639.124-1.278.247-1.916.374zm-30.8-2.19-.066-.378-.066-.378q-.549-3.175-1.08-6.354-.8-4.818-1.58-9.64-.631-3.907-1.251-7.817-.2-1.245-.394-2.489c-.039-.252-.069-.51-.109-.766l2.88-.221 8.008-.616 9.651-.743 8.369-.643 2.756-.212c.341-.027.714-.02 1.064-.064.327 1.354.6 2.724.884 4.086q.831 3.952 1.64 7.909l.566 2.772.079.386.079.386q.3 1.446.59 2.891l.161.788.359 1.755.192.945q.079.395.16.788l.447 2.2c-.349.064-.7.131-1.045.2l-.378.071-.378.071q-2.624.5-5.243 1.01-4.341.854-8.677 1.733-1.755.355-3.511.716l-1.19.243-1.191.243c-.835.171-1.67.339-2.5.511q-3.222.662-6.443 1.33c-.847.176-1.719.312-2.563.519-.079-.41-.149-.821-.221-1.232zm18.365 15.171c-.1.037-.012-.041.084-.022a.544.544 0 0 0-.085.022zm8.685-1.908-6.919 1.52-1.6.352-.074.014c-.082-.027-.2-.036-.263-.051l-4.572-1.151-2.717-.684 5.4-1.56 1.641-.474c.135-.039.333-.073.506-.136zm-8.68-3.45-.107.256-.125.3-1.642.475-6.071 1.754-.352.1.749-1.856.312-.773 1.158-2.871.256-.633q3.915-.765 7.829-1.534zm-30.214-1.947a.393.393 0 0 0 .27-.475l-1.7-5.46-.115-.371-.115-.37-.149-.478-.3-.956.348-.047 2.774-.375c.431-.059.88-.087 1.306-.177.019 0 .038 0 .057-.008.179-.024.267-.219.284-.372q.156-1.431.309-2.863.373-3.474.739-6.949.452-4.289.887-8.579c.261-2.583.518-5.166.752-7.752.134-1.482.314-2.979.334-4.468v-.2a.394.394 0 0 0-.027-.128.31.31 0 0 0-.359-.258l-2.783.292-6.886.715q-4.452.46-8.907.913-4.367.444-8.733.872c-2.163.21-4.326.421-6.492.6l-.538.044a.4.4 0 0 0-.387.387c-.1.751-.189 1.5-.28 2.256q-.345 2.862-.651 5.728-.414 3.871-.751 7.751a223.226 223.226 0 0 0-.568 8.2c-.117 2.408-.194 4.823-.113 7.234.008.252.019.5.031.754a.4.4 0 0 0 .489.373l3.363-.455 8.008-1.084 7.045-.954.251 1.57.061.379.06.378.105.656q-1.684.26-3.367.545c-2.084.351-4.175.706-6.233 1.191a7.09 7.09 0 0 0-1.81.559.547.547 0 0 0-.339.6c.072.264.338.353.575.409.881.209 1.787.335 2.682.472 1.276.2 2.554.377 3.833.552q1.829.251 3.659.487c.66.085 1.324.2 1.987.255h.009a.362.362 0 0 0 .143.015.358.358 0 0 0 .163-.013c2.99-.246 5.989-.522 8.955-.972a11.671 11.671 0 0 0 2.124-.423zm-10.914.621-.809-5.058-.061-.379-.06-.373-.136-.855-.114-.708-.121-.757-1.535-9.591-.337-2.109c2.52-.243 5.06-.4 7.593-.412q.993 3.2 1.988 6.393l1.395 4.487.231.742.448 1.44.115.371.116.37.978 3.145.637 2.048a13.932 13.932 0 0 1-1.42.272c-.89.142-1.783.255-2.678.36-1.791.211-3.587.386-5.383.546zm-8.03-7.224-8.4 1.137-2.77.377c-.29.04-.595.061-.893.1-.089-2.181-.036-4.368.056-6.548.114-2.723.3-5.444.526-8.16q.325-3.953.744-7.895.316-3.031.678-6.057.114-.953.232-1.9c.022-.179.06-.367.085-.554 1.9-.156 3.805-.339 5.7-.523q4.285-.414 8.568-.85 4.5-.456 9.006-.921 3.624-.373 7.247-.752c1.023-.107 2.048-.208 3.07-.321-.01.307-.036.616-.057.92-.059.851-.131 1.7-.206 2.551-.22 2.5-.466 4.99-.716 7.483q-.432 4.307-.885 8.61-.382 3.64-.773 7.28l-.254 2.359c-.029.275-.084.563-.109.845l-3.1.419-1.148.156q-1.379-4.43-2.755-8.858l-.749-2.409a.4.4 0 0 0-.373-.283c-2.775 0-5.56.18-8.32.457a.4.4 0 0 0-.373.489l1.118 6.981.81 5.064zm-4.56 5.456zm7.75 1.209c-2.286-.307-4.581-.6-6.85-1.018l-.045-.009c.225-.064.45-.123.677-.178 1.945-.472 3.925-.81 5.9-1.148q1.356-.233 2.715-.449c.364-.059.736-.1 1.1-.163l.238 1.486.321 2.006q-2.027-.255-4.054-.527z"></path><path d="m98.061 72.4-.106-.378-1.49-5.321-.7.067-6.525.632.09.39 1.279 5.541.736-.092zm-7.226-3.911a.4.4 0 0 1 .387-.386l.566-.061 3.932-.421a.389.389 0 0 1 .386.386.4.4 0 0 1-.386.386l-.566.061-3.932.422a.39.39 0 0 1-.387-.387zm12.109 23.746q-.851-2.654-1.7-5.309l-.672.093-6.958.964.095.409 1.276 5.529.694-.111 7.391-1.178zm-7.344-2.5a.39.39 0 0 1-.387-.386.4.4 0 0 1 .387-.387l.566-.06 3.932-.422a.389.389 0 0 1 .386.387.4.4 0 0 1-.386.386l-.566.061zm5.013 1.836-.566.06-3.932.422a.39.39 0 0 1-.387-.387.4.4 0 0 1 .387-.386l.566-.061 3.932-.421a.389.389 0 0 1 .386.386.4.4 0 0 1-.386.387zm-.598-8.991-1.067-3.812a.421.421 0 0 1-.138.042l-.905.109-6.209.747.975 4.224.736-.092 6.714-.84zm-1.27-4.535-.22-.786-.7.068-6.525.631.09.39.131.566.862-.1z" fill="#ffd35c"></path><path d="M98.553 73.111a.392.392 0 0 0 .372-.489q-.787-2.815-1.577-5.632l-.225-.806a.392.392 0 0 0-.373-.284l-7 .678-.983.095a.388.388 0 0 0-.191.07.369.369 0 0 0-.181.419l1.352 5.862.193.834a.387.387 0 0 0 .372.283l7.206-.9zm-7.942.22-1.279-5.541-.09-.39 6.525-.632.7-.067 1.49 5.321.106.378-6.714.839zm13.336 19.507-1.8-5.631-.258-.807a.4.4 0 0 0-.475-.27l-7.326 1.014-1.044.145a.3.3 0 0 0-.277.344.422.422 0 0 0 .007.131l1.353 5.862.193.833a.4.4 0 0 0 .475.27l7.792-1.242 1.092-.174a.389.389 0 0 0 .268-.475zm-8.267.972-.694.111-1.276-5.529-.095-.409 6.958-.964.672-.093q.849 2.655 1.7 5.309l.127.4zm4.933-10.14a.394.394 0 0 0 .373-.489l-1.578-5.633-.225-.806a.391.391 0 0 0-.373-.283l-7 .677-.983.095a.409.409 0 0 0-.191.07.371.371 0 0 0-.181.419l1.353 5.863.192.833a.387.387 0 0 0 .372.284l7.206-.9zm-9.221-5.322-.09-.39 6.525-.631.7-.068.22.786-6.36.765-.862.1zm1.279 5.542-.971-4.224 6.209-.747.905-.109a.421.421 0 0 0 .138-.042l1.067 3.812.106.378-6.714.84z"></path></svg>