<svg xmlns="http://www.w3.org/2000/svg" viewBox="0 0 200 200"><defs></defs><path d="M193.514 67.74a2.163 2.163 0 0 0-3.11-.071c-.115.164.529-1.054 1.927-4.7a2.636 2.636 0 0 1-1.012-1 1.8 1.8 0 0 1-2.823.738c-1.193-.915-.966-2.408-.744-3.743a6.927 6.927 0 0 1-4.071 1.644c-.815-.01-1.594-.425-1.614-1.325a2.723 2.723 0 0 1 .273-1.124c.195-.428.066.051-1.674.6a9.416 9.416 0 0 1-2.782.441c-.673.005-1.882.07-2.252-.648-.3-.6.453-1.709.855-2.236a9.388 9.388 0 0 1-4.193.774 48.73 48.73 0 0 0-1.725 4.227c-.359-.587-.851-1.235-1.538-1.2-1.686.075-2.933 4.5.147 6.662-.391 3.471.991 7.568 4.021 9.611a80.131 80.131 0 0 0-.855 4.965c-.363 2.723-.652 4.309 1.781 5.069a6.709 6.709 0 0 0 5-.217 6.429 6.429 0 0 0 2.751-3.228 23.931 23.931 0 0 0 1.928-6.265 9.9 9.9 0 0 0 3.844-3.769c1.9.326 4.875-.608 5.9-1.967a2.629 2.629 0 0 0-.034-3.238z" fill="#fcafb7"></path><path d="M149.808 47.182c1.313-10.021-11.016-19.78-20.458-7.694-1.064-1.562-2.249-1.648-2.923-1.194-1.19.8-1.549 3.907.429 5.625a17.064 17.064 0 0 0-.192 8.478 9.44 9.44 0 0 0 4.872 5.59h-.036c-.727 4.566-1.823 9.415 2.823 8.964a5.408 5.408 0 0 0 4.492-2.742c1-1.672 1.134-3.551 1.285-5.686a15.016 15.016 0 0 0 8.549-7.567 3.818 3.818 0 0 0 4.7-1.452c.851-1.766-.659-3.763-3.541-2.322z" fill="#a76c6c"></path><path d="M159.667 42.1a7.52 7.52 0 0 0-3.015-2.479c2.522-4.537.43-8.249-2.484-8.893.7-1.781-.723-3.784-1.927-5.018-3.044-3.1-6.378-2.589-7.821-.759-3.535-2.514-9.339-1.354-9.925 2.731a5.538 5.538 0 0 0-4.912-.865 3.8 3.8 0 0 0-2.53 3.587 4.976 4.976 0 0 0-4.395 7.244c-3.18 2.507-2.4 6.608.405 7.715a2.481 2.481 0 0 0 .167 2.4 4.315 4.315 0 0 0 3 1.665c0-.248-.015-.5-.015-.744a3.814 3.814 0 0 1-2.226-1.163 1.657 1.657 0 0 1-.07-2.1.386.386 0 0 0-.167-.637c-2.814-.65-3.405-4.611-.42-6.693a.386.386 0 0 0 .136-.521 4.241 4.241 0 0 1 4.011-6.4.388.388 0 0 0 .37-.486c-.511-2.4 2.891-5.02 6.718-2.023.238.187.667.1.653-.268a4 4 0 0 1 3.3-3.83 6.92 6.92 0 0 1 5.717 1.2.392.392 0 0 0 .6-.076c1-1.64 3.807-2.266 6.526.248 1.356 1.265 2.9 3.357 1.9 4.907a.387.387 0 0 0 .328.577 3.89 3.89 0 0 1 3.238 2.858 6.761 6.761 0 0 1-1.057 5.347.388.388 0 0 0 .227.562 6.686 6.686 0 0 1-1.791 12.9.39.39 0 0 0-.368.486 1.979 1.979 0 0 1-1.382 2.276 4.94 4.94 0 0 1-3.657-.6.387.387 0 0 0-.577.329 2.431 2.431 0 0 1-4.633 1.209c-.208.142-.42.283-.638.415a3.18 3.18 0 0 0 6.009-1.047 5.005 5.005 0 0 0 3.961.328 2.813 2.813 0 0 0 1.741-2.681 7.4 7.4 0 0 0 5.003-11.701z" fill="#a76c6c"></path><path d="M130.908 30.7a1.987 1.987 0 0 0-1.355 3.37.383.383 0 0 0 .541-.542 1.235 1.235 0 0 1 .137-1.811 1.27 1.27 0 0 1 .677-.253.382.382 0 1 0 0-.764zm19.573.076c-.731-1.442-2.779-1.192-2.575-.46a.383.383 0 0 0 .47.268c1.18-.486 2.257 1.147.992 2.363-.359.339.182.875.541.541a2.175 2.175 0 0 0 .339-.41c.694.087 2.083 2.991.2 4.5a.383.383 0 0 0 .542.542 3.425 3.425 0 0 0 1.117-3.248c-.126-.8-.642-2.17-1.522-2.489a2.142 2.142 0 0 0-.104-1.607zm4.608 12.273a.388.388 0 0 0 .268.47.636.636 0 0 1 .451.4.039.039 0 0 1 0 .015v.01a1.89 1.89 0 0 1-.416 1.589.381.381 0 0 0 .658.384c.378-.593.222-.559.374-.43a1.923 1.923 0 0 1 .344 2.757c-.364.435.257.882.542.541a2.667 2.667 0 0 0-.5-3.956.341.341 0 0 0-.243-.045c.472-1.539-1.267-2.519-1.478-1.735z" fill="#a76c6c"></path><path d="M29.9 133.7c-.265-.331-.922.652.056 3.066.329.809.89 2.154 1.957 2.059-.531-1.685-1.1-3.349-1.714-5a.3.3 0 0 1-.299-.125z" fill="#cff0fa"></path><path d="M109.733 92.335c-1.5.676-13.878 1.066-13.274 1.042.688 4.113 1.31 8.236 1.942 12.359.481 3.121 1.685 6.945 1.462 10.077-5.67-1.836-7.322-8.308-18.443-12.055a32.463 32.463 0 0 0-8.565-1.71c-5.715-.861-13.024 1.487-19.1 8.4-.025-.1-34.94 16.693-30.084 37.283.155.058.131-3.5 2.99-5.674a6.316 6.316 0 0 1 6.055-.87c-.139-.1-.078-.011-.587-1.689a.375.375 0 0 1-.192.081c-1.649.181-2.479-1.887-2.909-3.132-.485-1.42-.627-3.641.814-3.581a6.162 6.162 0 0 1-.627-2.368c.022-1.958 2.477-2.523 3.789-.369a82.864 82.864 0 0 1 4.007 10.3.372.372 0 0 1 .273-.151c2.168-.238 3.835 3.92 1.8 6.784l-.01.01c.283.485.526.986.758 1.492a48.869 48.869 0 0 1 3.544-9.123 43.761 43.761 0 0 1 5.762-18.7.384.384 0 0 1 .665.384 42.836 42.836 0 0 0-5.703 18.868.406.406 0 0 1-.653.283c-.465 4.406-.855 9.081-1.168 13.254 4.512.631 9.087 1.5 13.547.762a14.124 14.124 0 0 0 8.245-4.073c.248-.268.774.01.638.374a44.529 44.529 0 0 1-4.695 9.1 8.431 8.431 0 0 1 5.327-.359.384.384 0 0 1 .167.637c-.5.516-1.007 1.02-1.518 1.526l-.025.192a2.472 2.472 0 0 1 .243 2.817c1.644-.111 5.3-.318 5.433-.323-1.621-1.466.008-3.272.587-2.838a108.253 108.253 0 0 0 13.309-2.095c.061-1.4.415-8.756.486-11.032.158-4.951-.058-5.134.273-6.035.724-1.96 3.22-1.7 5.129-1.675 1.509.022 6.3-.234 7.836-.324a141.836 141.836 0 0 0-2.2-7.947c7.841 1.346 18.241-2.934 19.223-11.007 1.049-8.579-4.551-28.895-4.551-28.895zM92.69 130.2a97.48 97.48 0 0 0-8.936-17.056c-.273-.415.39-.794.663-.385 2.221 3.39 2.041 3.46 2.008 3.006a3.685 3.685 0 0 0-.228-.931.388.388 0 0 1 .269-.471c.8-.255.842 2.37.612 2.692A98.706 98.706 0 0 1 93.431 130c.182.45-.559.65-.741.2zm16.158-30.949c-2.447-.557-4.878-.187-10.3.268-.49.04-.485-.726 0-.767 5.357-.454 7.9-.824 10.5-.238.488.107.28.846-.2.737zm.118-2.722c-.671.429-1.95.085-2.1-1.406-.189-.324.071-.822.435-1.048 1.355-.826 3.062 1.563 1.665 2.454z" fill="#cff0fa"></path><path d="M17.989 49.539c-6.054-.327-12.468 4.947-12.96 11.361-.614 7.9 8.771 14.976 15.965 12.147 10.641-4.207 8.46-22.88-3.005-23.508zm5.853 20.751c-6.516 6.439-17.536-.141-18.042-8.018-.379-5.928 5-11.4 10.74-11.934 9.914-.938 14.094 13.239 7.302 19.952z" fill="#e59e70"></path><path d="M47.41 86.695a1.042 1.042 0 1 0 2.084 0 1.042 1.042 0 1 0-2.084 0" fill="#000000"></path><path d="M59.389 83.746a1.042 1.042 0 1 0 2.084 0 1.042 1.042 0 1 0-2.084 0" fill="#000000"></path><path d="M61.559 88.9a.381.381 0 0 0-.384-.658 7.15 7.15 0 0 0-3.976 4.78c-.117.481.622.683.738.2a6.455 6.455 0 0 1 3.622-4.322zm.177-7.952a.385.385 0 0 0 0-.769 5.487 5.487 0 0 1-2.944-1.138.383.383 0 0 0-.541.541 6.357 6.357 0 0 0 3.485 1.366zm-13.481 1.219a.138.138 0 0 0 .02-.035.447.447 0 0 0-.066-.764.405.405 0 0 0-.556.324 6.521 6.521 0 0 1-2.393 2.383.381.381 0 0 0 .385.657 7.2 7.2 0 0 0 2.61-2.565z" fill="#000000"></path><path d="M71.449 101.026a17.858 17.858 0 0 0-2.438-7.517c2.257-3.3 2.869-7.341 2.994-11.377 6.961 0 3.862-7.745.188-7.431a17.251 17.251 0 0 0 .834-6.288c-.667-7.357-8.517-12.743-17.169-10.325-6.844 1.912-12.227 8.185-19.324 8.559-1.057.056-2.3.061-2.914.926-.69.975-.312 2.868 2.423 3.562-4.754 3.293-5.151 9.816-2.322 10.83 1.73.617 3.364-1.057 4.447-2.545a6.449 6.449 0 0 0 5.661 7.548 21.083 21.083 0 0 0 2.726 5.858 14.552 14.552 0 0 0 10.79 5.929c1.38 3.455 1.839 4.439 1.811 4.907-.03.526-.385.11-2.7 1.978a18.409 18.409 0 0 0-3.288 3.424.382.382 0 0 0 .137.522c1.836.975 3.925.566 5.837 0a13.927 13.927 0 0 0-.162 6.044.385.385 0 0 0 .562.228 13.935 13.935 0 0 0 5.306-5.094.383.383 0 0 0-.662-.385 13.168 13.168 0 0 1-4.553 4.538 12.991 12.991 0 0 1 .425-5.8.386.386 0 0 0-.471-.471c-1.725.547-3.743 1.164-5.5.466a18.125 18.125 0 0 1 5.089-4.407c.136-.075.237-.207.379-.277.29-.146.229.116.668.819 3.15 5.152 8.185 5.041 10.173 2.15 1.24-1.788 1.246-4.292 1.053-6.371zm-20.386-5.079c-3.821-2.323-5.635-5.855-6.87-10.547a22.3 22.3 0 0 1 .415-7.341 13.71 13.71 0 0 1 8.731-9.166C55.3 68.2 63.826 66.8 63.826 70.659a9.926 9.926 0 0 1-.122 3.49 3.374 3.374 0 0 0 1.042 3.183c.966.662 2.7-.2 2.327-1.311a5.63 5.63 0 0 0 1.31 2.1 1.907 1.907 0 0 0 2.3.263c.874-.652 1.109-2.827 1.33-2.888 2.477-.8 6.414 6.079-.364 5.853a.391.391 0 0 0-.384.384 23.773 23.773 0 0 1-1.74 9.324c-3.446 7.543-12.241 8.692-18.462 4.89zm19.683 7.31c-.075 2.016-.55 4.013-2.358 4.927-1.989 1-5 .429-7.218-2.878a35.707 35.707 0 0 1-2.985-6.506 12.427 12.427 0 0 0 10.32-4.628 17.139 17.139 0 0 1 2.241 9.085z" fill="#000000"></path><path d="M81.936 106.07a14.126 14.126 0 0 0-9.88-6.07c-.486-.06-.48.7 0 .764a13.3 13.3 0 0 1 8.9 5.241 10.645 10.645 0 0 1-5.782-.5.385.385 0 0 0-.43.562 9.221 9.221 0 0 1 1.447 5.767 8.414 8.414 0 0 1-4.968-2.171c-.359-.333-.905.208-.541.542a9.174 9.174 0 0 0 5.858 2.422.394.394 0 0 0 .385-.384 9.892 9.892 0 0 0-1.022-5.7 11.371 11.371 0 0 0 5.812.081.387.387 0 0 0 .221-.554z" fill="#000000"></path><path d="M74.57 138.6c-5.318-25.116-5.778-21.65-5.064-22.486a4.218 4.218 0 0 0 .83-2.519 2.529 2.529 0 0 0-4.76-1.108c-.654 1.134-.349 3.516 1.376 4.143.405 15.555-2.766 24.6-2.529 26.528.109.911.15.931 6.009 12.682.673-.265.516-.279 3.734-9.981a10.509 10.509 0 0 0 .404-7.259z" fill="#b26ee6"></path><path d="M138.937 51.153a12.792 12.792 0 0 0-6.921-1.285c-.485.045-.49.809 0 .764a11.678 11.678 0 0 1 6.946 1.4c.774.455 1.8 1.563 1.062 2.494-.6.767-2.366.918-3.353.789a.385.385 0 0 0 0 .769c1.775.233 4.952-.445 4.244-2.9a3.527 3.527 0 0 0-1.978-2.031zm-4.811-10.846a.383.383 0 0 0 .2-.739 3.008 3.008 0 0 0-2.681.607.384.384 0 0 0 0 .542c.502.454 1.022-.839 2.481-.41zm11.615 4.674a3.82 3.82 0 0 0-1.933-2.378.381.381 0 0 0-.384.658 3.168 3.168 0 0 1 1.017.82 2.97 2.97 0 0 1 .559 1.107.384.384 0 0 0 .741-.207zm-13.482-2.772a1.042 1.042 0 1 1-1.042 1.042 1.042 1.042 0 0 1 1.042-1.042zm9.961 3.905a1.042 1.042 0 1 1-1.043 1.042 1.043 1.043 0 0 1 1.043-1.042zm32.487 14.352a.385.385 0 0 0 0-.769 3.814 3.814 0 0 0-2.727 1.381c-.371.454.275.868.541.541a3.038 3.038 0 0 1 2.186-1.153zm12.383 4.553a3.507 3.507 0 0 0-2.043-2.681.381.381 0 0 0-.385.657 2.808 2.808 0 0 1 1.695 2.231.381.381 0 0 0 .733-.207zm-13.233-2.236a1.042 1.042 0 1 1-1.043 1.042 1.042 1.042 0 0 1 1.043-1.042zm9.833 3.317a1.042 1.042 0 1 1-1.042 1.042 1.042 1.042 0 0 1 1.042-1.042zm-8.432 7.594a1.086 1.086 0 1 0-.294-1.27.941.941 0 0 0 .294 1.27zm7.831 2.899a9.649 9.649 0 0 1-9.541-.39c-.314-.192-.6.3-.289.5a10.6 10.6 0 0 0 2.1.946 9.4 9.4 0 0 0 8.023-.551.291.291 0 0 0-.293-.505z" fill="#000000"></path><path d="M36.145 162.236c-.435.26-.719.516-1.235.314-.946-.369-1.715-1.315-2.812-.84-.451.2-.061.854.384.663.884-.389 2.095 1.772 3.749.718.166-.107.389-.319.6-.314.252.011.505.339.743.435 1.062.42 2.445-.934 8.529.956 1.325.41 2.99.618 4.007-.551.323-.369-.218-.91-.542-.541-1.3 1.486-3.214.111-6.379-.45a.385.385 0 0 1-.576.329c-.8-.6-.646-.5-.876-.537a13.488 13.488 0 0 0-3.187.071.243.243 0 0 1-.06 0 1.038 1.038 0 0 1-.855-.147 1.1 1.1 0 0 0-1.49-.106zm6.765-2.336c.822.164 1.579.8 2.492.7.485-.05.814-.379 1.259-.516.415-.132.769.435 1.164.536a2.116 2.116 0 0 0 1.447-.339c1.011-.465 2 .253 3.035.193.865-.051 1.907-.577 1.841-1.579-.03-.49-.794-.49-.764 0 .051.79-1.1.876-1.644.764a11.731 11.731 0 0 0-1.578-.308c-1.021-.07-1.651.6-2.084.541s-.784-.942-1.836-.466c-.4.183-.719.466-1.184.405-.777-.1-1.236-.63-2.307-.708.049.265.109.521.159.777zm6.19-2.394c.48.117.683-.622.2-.739-3.266-.788-4.651.388-5.919-.374a.383.383 0 0 0-.384.663c1.531.914 2.929-.312 6.103.45z" fill="#76d3de"></path><path d="M65.51 159.972a.384.384 0 0 0-.167-.637 8.44 8.44 0 0 0-5.327.359 44.658 44.658 0 0 0 4.7-9.1c.136-.359-.39-.642-.638-.374a14.168 14.168 0 0 1-8.245 4.073c-4.921.811-9.957-.327-15.151-.965l.349.805c7.491 1.07 16.179 2.784 22.339-2.211a43.826 43.826 0 0 1-4.578 8.236c-7.259 10.282-11.22 8.311-30.4 5.5-2.439-.359-5.484-.8-7.725.425 4.016-5.078 12.385-3.766 16.762-9.085-.523-.88-.156-.543-.6-.131a1.024 1.024 0 0 1-.511.243 12.2 12.2 0 0 1-3.971 2.554 1.055 1.055 0 0 1-1.361.511c-3.783 1.3-9.9 2.366-11.946 7.138a.362.362 0 0 0-.02.227c-.177.365.42.684.693.314 1.367-1.814 3.992-1.952 6.263-1.74a18.1 18.1 0 0 1-3.1 1.71c-.314.136-.2.617.091.7.829.228 1.669.425 2.509.612-.557.678-1.113 1.361-1.665 2.039a.389.389 0 0 0 .269.653c.768.07 1.537.131 2.311.2-.663.074-2.651 2.366-1.684 2.591 8.626 1.921 17.732 1.954 26.715 1.881 3.226-.023 3.649-.715 7.385-3.48 2.124-1.572 5.622-3.67 4.735-6.384-.138-.442-.9-.283-.738.2.7 2.136-2.329 4-4.128 5.331-5.43 4.027-4.15 3.551-10.659 3.582-7.639.016-15.29-.2-22.637-1.781a3.561 3.561 0 0 1 1.254-1.245.387.387 0 0 0-.081-.693c7.529.639 16.186 1.216 24.353 1.524a6.986 6.986 0 0 0 4.254-.7c.676-.416.8-.546 7.335-6.409a9.854 9.854 0 0 0 1.533-1.6 2.511 2.511 0 0 0-.128-3.245c.424-.429.684-.681 1.61-1.628zm-1.765 3.64c-.245 1.115-.82 1.433-7.335 7.254-1.184 1.068-1.962 1.817-3.577 1.942-1.156.092-16.529-.668-28.01-1.679 1.5-1.827 1.424-1.731 1.457-1.831 7.945 1.615 16.021 1.489 24.13 1.249 3.307-.095 3.749-.028 5.843-1.831 1.9-1.656 4.179-3.7 7.082-6.556a1.482 1.482 0 0 1 .41 1.452zm-4.361 1.254c-5.251 4.851-4.972 4.8-8.119 4.893-9.154.277-18.291.49-27.079-1.711a18.453 18.453 0 0 0 2.848-1.76c.149-.115 4.529.657 13.294 1.882 10.556 1.487 13.782-.489 18.459-6.733.229-.307.9-1.231.982-1.376 0 .256.188.473.455.359a7.8 7.8 0 0 1 4.249-.5q-2.488 2.549-5.089 4.946z" fill="#76d3de"></path><path d="M120.68 117.022c-1.932.112-4.477 9-5.646 13.517a.391.391 0 0 0 .714.3c2.236-3.764 6.495-10.917 6.677-11.175.248-.364.845-2.793-1.745-2.642zm-6.951 15.019a1.052 1.052 0 0 0 .7 1.659 1.037 1.037 0 0 0 1.143-.911 1.05 1.05 0 0 0-1.843-.748zm12.627-5.408c-1.31-.5-5.61 4.613-7.715 7.239a.283.283 0 0 0 .38.41c2.584-1.821 7.507-5.277 7.7-5.393a1.241 1.241 0 0 0-.365-2.256zm-9.02 7.846a.758.758 0 0 0-.025 1.3.749.749 0 0 0 1.022-.263.758.758 0 0 0-.997-1.037zM86.225 70.963a.381.381 0 0 0-.657.384c.905 1.249 1.811 2.5 2.716 3.754a.381.381 0 0 0 .658-.385q-1.359-1.873-2.717-3.753zm3.314-8.524c-.2-.451-.855-.061-.663.384l2.686 6.212c.2.45.855.061.663-.384-.896-2.069-1.786-4.145-2.686-6.212zm7.396-3.83c-.147-.47-.886-.268-.739.2q1.1 3.535 2.206 7.077c.146.47.885.268.738-.2q-1.099-3.543-2.205-7.077zm7.932 1.315a40.215 40.215 0 0 0-1.245 5.747.383.383 0 0 0 .739.2 41.272 41.272 0 0 1 1.244-5.746.383.383 0 0 0-.738-.201zm5.033 4.189a12.545 12.545 0 0 1-2.479 4.811c-.314.374.222.921.542.541a13.379 13.379 0 0 0 2.676-5.145.384.384 0 0 0-.739-.207z" fill="#e59e70"></path><path d="M166.663 78.707a2.273 2.273 0 0 0-2.074-1.487 4.286 4.286 0 0 0-2.656.946 11.819 11.819 0 0 0-.131-1.341c.845-2.3 3.06-4.234 2.9-6.692a1.218 1.218 0 0 0-.177-.628 1.026 1.026 0 0 0-1.1-.328 3 3 0 0 0-1.053.617 5.525 5.525 0 0 0 .845-1.634 1.68 1.68 0 0 0-2.1-2.191 5.578 5.578 0 0 0-1.721.805 5.747 5.747 0 0 0 .775-2.019c.172-1.54-.883-2.669-2.9-1.9a7.072 7.072 0 0 0-2.276 1.412 3.614 3.614 0 0 0 .485-3.288c-.264-.755-.679-.886-1.386-.693-4.788 1.264-5.8 5.135-4.674 2.079.421-1.142-.476-1.958-1.851-.779a30.054 30.054 0 0 0-6.668 8.286 19.808 19.808 0 0 0-2.377 3.217 3.973 3.973 0 0 0-1.968-1.381c-3.373-.817-3.931 4.951-.426 7.037a.377.377 0 0 0 .249.045 16.374 16.374 0 0 0-.071 3.268c.354 5.052 2.079 8.868 7.011 10.76-.116 4.024-.72 10.273 4.4 9.3a6.327 6.327 0 0 0 5.079-4.108 13.711 13.711 0 0 0 .537-5.853 16.345 16.345 0 0 0 7.916-9.288c2.929 1.057 6.37-1.543 5.412-4.162zm-30.2-.647a4.173 4.173 0 0 1-1.942-3.911c.075-.8.409-1.725 1.345-1.755 1.053-.04 1.714.864 2.236 1.386a14.6 14.6 0 0 0-1.634 4.28zm13.76 22.192c-1.025.762-3.072 1.456-4.24 1.093-2.5-.773-2.029-5.37-1.943-8.276a12.061 12.061 0 0 0 8.545-.592c.172 2.716.03 5.999-2.357 7.775zm8.792-14.5c-2.547 4.184-7.114 7.276-11.944 7.082a10.432 10.432 0 0 1-8.5-4.816c-1.337-2.265-1.7-5.934-1.542-8.347.374-5.776 6.161-13.776 13.329-13.213 6.948.553 14.606 9.526 8.662 19.291zm5.058-3.723a3.492 3.492 0 0 1-2.64.106 12.914 12.914 0 0 0 .5-3.045 5.1 5.1 0 0 1 2.135-1.09c2.359-.365 2.926 2.786.01 4.026z" fill="#ff8684"></path><path d="M164.311 113.2c-1.1-3.2-3.793-8.906-6.177-11.787a12.5 12.5 0 0 0-5.22-3.814 5.08 5.08 0 0 1-.273.709 11.291 11.291 0 0 1 4.35 2.99c-.087.115-.082.228-.035.429a2.124 2.124 0 0 1-1.65 1.493 6.332 6.332 0 0 1-3.353-.425.387.387 0 0 0-.486.369c.114 1.36-.242 3.39-1.214 4.279a1.155 1.155 0 0 1-1.518-.029 3.127 3.127 0 0 1-1.133-1.134c.83-1.5.23-2.985-.708-3.2l-.182-.121a3.1 3.1 0 0 0-3.754 2.7.5.5 0 0 0-.4-.076 7.771 7.771 0 0 1-1.7-.122 5.516 5.516 0 0 1 1.8-3.591.385.385 0 0 0-.375-.637 10.521 10.521 0 0 1-3.045.875c-.29 0-.179-.066-.106-.213a5.54 5.54 0 0 1 1.442-1.624c3.353-2.048 2.876-.875 2.741-2.226-6.531 2.632-14.135 9.939-17.159 19.76-.146.47.592.672.739.2a32.491 32.491 0 0 1 11.448-16.208.728.728 0 0 0 .192.84c.455.4 1.249.207 1.77.071 1.268-.336.9-.581.324.673-.272.6-.765 1.967-.425 2.534.223.379.906.375 1.285.4.222.019 1.237.132 1.462-.055a1.693 1.693 0 0 0 1.133 1.588c-1.33 2.758-6.834 14.514-8.129 22.663 0 0 .779 7.467 2.17 9.03s7.545-10.841 7.545-10.841l.42-20.993a3.362 3.362 0 0 0 1.016-.744c.657.93 2.258 2.027 3.39 1.25 1.225-.832 1.773-3.027 1.745-4.528a5.753 5.753 0 0 0 3.521.192 2.963 2.963 0 0 0 1.9-1.806 44.783 44.783 0 0 1 5.66 10.618A33.749 33.749 0 0 1 165.3 128.4c-.055.486.709.486.764 0a34.6 34.6 0 0 0-1.753-15.2z" fill="#b26ee6"></path><path d="M139.164 63.521a6.019 6.019 0 0 1-2.321 2.681c-1.151.666-3.368 1.1-4.539.491-1.631-.848-1.545-2.859-1.436-4.548-10.787 2.188-17.3 15.02-19.491 25.926-.1.48.638.688.739.2 1.97-9.546 7.063-20.688 16.005-24.469a5.868 5.868 0 0 0 2.924 5.621c3.25 1.624 8.872.255 10.2-2.09a11.064 11.064 0 0 1 .425 1.149c.176-.289.364-.567.551-.85a9.06 9.06 0 0 0-3.057-4.111z" fill="#dcbeff"></path><path d="M124.519 74.377a.824.824 0 1 0 1.609.344.833.833 0 0 0-1.609-.344zm-6.119 6.177a.824.824 0 1 0 1.608.344.832.832 0 0 0-1.608-.344zm2.007-4.943a.824.824 0 1 0-.794-1.047.83.83 0 0 0 .794 1.047zm9.277 10.674a.824.824 0 1 0 1.609.344.833.833 0 0 0-1.609-.344zm-3.126-5.645a.824.824 0 1 0 1.609.344.833.833 0 0 0-1.609-.344zm-6.42 8.852a.825.825 0 1 0 1.61.344.834.834 0 0 0-1.61-.344zm6.901-21.352a.824.824 0 1 0-.815.7.827.827 0 0 0 .815-.7z" fill="#dcbeff"></path><path d="M190.535 95.239c-1.581-6.541-5-10.885-8.347-12.983a7.128 7.128 0 0 1-3.065 3.951 6.733 6.733 0 0 1-5 .217c-2.441-.762-2.144-2.344-1.781-5.069-8.335 2.237-13.829 9.493-17.28 17.329.218.136.43.283.637.435 2.253-5.079 5.124-9.742 9.434-13.178a26.735 26.735 0 0 0 4.007 6.131c1.3 1.494 1.091-1.6 6.035-4.062.507-.253.7-.171 1.007.187a12.038 12.038 0 0 1 2.569 5.555 38.688 38.688 0 0 0 7.619-2.879 2.743 2.743 0 0 0 1.32-1.138c3.088 5.988 3.3 12.912 3.121 19.663a.383.383 0 0 0 .765 0 54.7 54.7 0 0 0-1.041-14.159z" fill="#7d4ab4"></path><path d="M174.767 91.814a.845.845 0 1 0 0 1.69.847.847 0 0 0 0-1.69zm-.647 4.427a.845.845 0 1 0 .844.844.846.846 0 0 0-.844-.844zm-.911 5.079a.845.845 0 1 0 .845.845.847.847 0 0 0-.845-.845z" fill="#7d4ab4"></path><path d="M79.978 165.974q1.662.776 3.328 1.543c.006-.764 0-1.525.023-2.289-.129.031-2.36.529-3.351.746zm-.304-2.848-3.94.85c-.1.033-.347-.127 3.1 1.472.105-.024 2.469-.544 4.024-.9-.1-.043-3.082-1.377-3.184-1.422zM78.5 162.6q-1.3-.585-2.616-1.173c-1.5.207-3 .389-4.5.561 3.716 1.7 3.064 1.5 3.354 1.424a355.64 355.64 0 0 1 3.762-.812zm-1.229-1.388c.825.369 1.655.738 2.479 1.112 1.229-.262 2.464-.531 3.693-.794l.061-1.474c-1.415.333-2.851.644-6.233 1.156zm3.658 1.641c.688.309 2.317 1.037 2.438 1.093 0-.01.034-1.234.051-1.632-.238.051-1.897.413-2.489.539zm-41.443-10.345c-1.324.323-2.615-.883-4.4-2.145a10.293 10.293 0 0 1 2.028 4.432 14.616 14.616 0 0 0 .794 1.532c2.374 4.02.385 2.508 4.477 5.519-.229-3.293-1.551-6.319-2.899-9.338zm154.737-92.771c-.282-12.475-11.4-17.433-21.393-9.96a13.653 13.653 0 0 0-2.83 2.676c-.59.8-1.2 2.2-.536 2.833a5.016 5.016 0 0 0 3.171 1.092 13.946 13.946 0 0 0 5.98-1.856c.44-.213.824.43.384.663a5.847 5.847 0 0 0-2.479 2.488c-.313.571-.359.616.253.709a8.724 8.724 0 0 0 6.273-1.7l.046-.03c.232-.178.445-.011.526.207.227.682-2.3 3.438.693 2.954a9.033 9.033 0 0 0 3.758-2.018.386.386 0 0 1 .577.329c-.133 1.133-.775 2.8.111 3.809a1.075 1.075 0 0 0 1.346.308 2.69 2.69 0 0 0 .855-1.269.388.388 0 0 1 .663 0c.374.748.93 1.682 1.72 1.381.983-.39.901-1.776.882-2.616zM37.51 144.829c-.806-3-1.647-5.6-2.716-8.468a21.245 21.245 0 0 1-2.469 1.239c.344 1.058.673 2.125.987 3.192a.333.333 0 0 1-.112.37l.38.4a12.5 12.5 0 0 1 3.93 3.267zm-3.784-11.207c-.661-1.623-1.581-4.605-3.176-4.042-1.317.46-.045 2.82.738 4.983.278.769.536 1.548.794 2.322a20.228 20.228 0 0 0 2.434-1.237 77.437 77.437 0 0 0-.79-2.026z" fill="#ffd35c"></path><path d="M20.938 62.681c-1.521-.209-3.962-.472-4.133-.546-.238-.1-.154.014-.632-5.215-.046-.486-.809-.491-.764 0 .518 5.579.452 5.131.572 5.4.3.694 1.164.643 2.114.764s1.9.243 2.848.359a.382.382 0 1 0-.005-.762zm76.209 30.671c.223-.01.488-.02.792-.03-1.864-5.869-3.5-11.928-3.468-18.055a1.817 1.817 0 0 1 .152-.839c.162-.324.364-.208.581.025a12.863 12.863 0 0 1 2.783 4.78.383.383 0 0 0 .738-.2 21.6 21.6 0 0 1-.561-3.728c-.063-1-.228-2.629.551-2.646.76-.016 1.625 1.608 1.968 2.292a11.754 11.754 0 0 1 1.062 3.257c.086.486.819.279.739-.2a7.392 7.392 0 0 1 .152-4.4 2.266 2.266 0 0 1 .6-.835c.314-.227.465.157.547.41a130.068 130.068 0 0 1 3.556 19.565c.268-.026.521-.056.754-.086a132.529 132.529 0 0 0-3.5-19.413 2.2 2.2 0 0 0-.471-1.017c-.667-.7-1.466-.081-1.891.536a4.5 4.5 0 0 0-.729 2.125 7.523 7.523 0 0 0-1.578-2.453c-.663-.607-1.715-.84-2.266.05-.473.777-.3 2.611-.182 3.774-.378-.643-1.624-2.566-2.342-2.787a.935.935 0 0 0-.926.227 2.782 2.782 0 0 0-.5 2.11c.074 6.009 1.64 11.843 3.439 17.538z" fill="#000000"></path><path d="M98.138 81.732c.163-.366.143-.4.415-.151 1.427 1.386 1.943 3.556 2.439 5.407a.383.383 0 0 0 .738-.2 14.514 14.514 0 0 0-2.079-5.088 2.936 2.936 0 0 0-.961-.956.817.817 0 0 0-1.073.349c-.947 1.5-.4 3.9-.1 6.288a.385.385 0 0 0 .769 0c-.271-2.172-.727-4.341-.148-5.649zM92.69 130.2c.182.449.923.255.741-.2a98.644 98.644 0 0 0-6.353-12.944c.206-.294.2-2.95-.612-2.692a.388.388 0 0 0-.269.471 4.3 4.3 0 0 1 .218.819c.1.679.16.4-2-2.894-.268-.409-.931-.025-.663.385A97.676 97.676 0 0 1 92.69 130.2zm5.858-30.681c5.113-.459 7.933-.8 10.3-.268.48.106.683-.63.2-.737-2.683-.6-5.438-.191-10.5.238-.485.048-.491.811 0 .767zm8.319-4.396c.138 1.388 1.344 1.886 2.1 1.406.911-.577.569-2.113-.644-2.545-1.053-.35-1.752.679-1.456 1.139zm1.855.179a.577.577 0 1 1-.576-.577.576.576 0 0 1 .576.575zM40.171 152.18a1.671 1.671 0 0 0 .349-1.872 17.878 17.878 0 0 0-1.441-3.235 5.123 5.123 0 0 0 .829-4.012c-.515-2.576-2.459-3.169-2.893-2.631a85.215 85.215 0 0 0-4.007-10.3c-1.334-2.17-3.767-1.569-3.789.369a6.346 6.346 0 0 0 .627 2.368c-1.432-.06-1.313 2.137-.814 3.581.425 1.245 1.26 3.314 2.909 3.132a.426.426 0 0 0 .192-.081c.5 1.647.437 1.578.587 1.689-4.644-1.669-9.523 1.919-9.1 8.82a11.637 11.637 0 0 0 6.8 9.951 1.726 1.726 0 0 0 1.414.2c1.412-.628.268-3.409-.417-4.8a10.837 10.837 0 0 0 3.779 1.649c.817.18 1.587.252 1.9-.583 2.528 4.455.779 3.036 5.522 6.531a.385.385 0 0 0 .576-.328c-.039-3.755-1.594-7.202-3.023-10.448zm-2.883-11.14c1.4-.206 2.766 2.794 1.391 5.241-1.194-4.781-1.579-5.213-1.391-5.241zm-7.335-4.279c-.973-2.408-.322-3.406-.056-3.066a.3.3 0 0 0 .3.121q.918 2.482 1.714 5c-1.068.099-1.631-1.246-1.958-2.055zm2.129.124c-.258-.774-.516-1.553-.794-2.322-.716-1.988-2.07-4.517-.738-4.983.875-.309 1.588.541 1.947 1.214.611 1.15 1.564 3.671 2.014 4.844a19.116 19.116 0 0 1-2.429 1.247zm.243.715a21.245 21.245 0 0 0 2.469-1.239 90.642 90.642 0 0 1 2.716 8.468 11.535 11.535 0 0 0-4.6-3.566.378.378 0 0 0 .405-.471q-.466-1.6-.99-3.192zm4.1 18.384c-.07.607-.764.354-1.174.257a10.118 10.118 0 0 1-5.539-3.455c-.319-.379-.85.167-.541.542a12.079 12.079 0 0 1 2.514 4.982 1.651 1.651 0 0 1 0 .952c-.157.394-.6.161-.885.035-9.154-4.089-7.921-17.638-.435-17.751 5.761-.106 10.132 8.9 9.434 9.92a.914.914 0 0 1-.637.339c-.735.094-.892-.144-5.762-3.536-.38-.268-.724.289-.466.6 1.57 1.892 2.932 3.6 3.4 5.934a3.837 3.837 0 0 1 .089 1.181zm2.734 2.772c-.866-2.012-1.493-2.671-2.039-3.961a10.357 10.357 0 0 0-2.028-4.432c1.761 1.248 3.059 2.458 4.4 2.145 1.37 3.067 2.67 6.042 2.9 9.338-2.519-1.852-2.692-1.872-3.235-3.09zm9.984-38.016a44.006 44.006 0 0 0-5.815 19.253c-.038.479.729.5.764 0a42.984 42.984 0 0 1 5.708-18.869.38.38 0 0 0-.657-.384zM150.49 80.422a13.6 13.6 0 0 0-6.9 2.484c-.4.283-.016.946.384.663a13.062 13.062 0 0 1 5.382-2.246 6.079 6.079 0 0 1 2.955.02 1.5 1.5 0 0 1 1.057 2 4.817 4.817 0 0 1-2.474 2.094c-.45.182-.253.926.2.739 1.741-.713 4.4-2.939 2.53-4.877a3.833 3.833 0 0 0-3.134-.877zm-7.602-9.156a3.1 3.1 0 0 0-2.641.971.383.383 0 0 0 .541.542 2.386 2.386 0 0 1 2.089-.744.385.385 0 0 0 .011-.769zm9.287-.278a.383.383 0 0 0-.2.738 3.293 3.293 0 0 1 1.937 1.852c.16.393.892.151.658-.385a4.081 4.081 0 0 0-2.395-2.205zm-10.598 4.32a1.112 1.112 0 1 0 1.25.956 1.113 1.113 0 0 0-1.25-.956zm9.95 2.403a1.113 1.113 0 1 0-1.249-.956 1.114 1.114 0 0 0 1.249.956zm43.454-18.206a17.941 17.941 0 0 0-1.335-6.349.344.344 0 0 0-.031-.051c0-.015 0-.025-.009-.04A11.939 11.939 0 0 0 180 45.74a18.709 18.709 0 0 0-10.593 6.237c-.784 1.042-1.6 2.924-.359 3.941 2.018 1.671 5 1.356 7.441.4-.394.509-1.155 1.636-.855 2.236.364.718 1.579.653 2.252.648a9.3 9.3 0 0 0 4.527-1.2 3.079 3.079 0 0 0-.344 1.285c.02.9.8 1.315 1.614 1.325a6.959 6.959 0 0 0 4.071-1.644c-.222 1.335-.449 2.828.744 3.743a1.79 1.79 0 0 0 2.823-.738 2.715 2.715 0 0 0 1.169 1.08 1.747 1.747 0 0 0 2.073-.8 4.819 4.819 0 0 0 .418-2.748zm-1.633 2.832c-.793.3-1.343-.635-1.72-1.381a.389.389 0 0 0-.663 0 2.671 2.671 0 0 1-.855 1.27 1.075 1.075 0 0 1-1.346-.309c-.885-1-.253-2.656-.111-3.809a.384.384 0 0 0-.577-.328 8.941 8.941 0 0 1-3.758 2.018c-3.011.482-.463-2.272-.693-2.954-.076-.218-.294-.38-.527-.208a8.73 8.73 0 0 1-6.317 1.735c-.614-.092-.568-.135-.253-.708a5.9 5.9 0 0 1 2.478-2.489c.441-.232.051-.875-.384-.662-1.839.9-3.942 1.881-5.98 1.856a5.026 5.026 0 0 1-3.171-1.093c-.674-.637-.042-2.052.536-2.832a13.646 13.646 0 0 1 2.827-2.676c10.046-7.5 21.133-2.442 21.394 9.96.015.85.097 2.237-.88 2.61zm-71.601 75.486a307.86 307.86 0 0 1-32.314 2.7c-1.9-.028-4.407-.31-5.13 1.675-.328.891-.116 1.084-.273 6.035-.071 2.281-.425 9.631-.486 11.033a108.4 108.4 0 0 1-13.309 2.094.352.352 0 0 0-.309-.046 1.667 1.667 0 0 0-.278 2.884c1.11 1 11.27 5.091 12.642 5.63.46.182.657-.562.2-.739a191.525 191.525 0 0 1-9.252-3.9c-1.922-.864-3.754-1.432-3.486-2.666a.676.676 0 0 1 .193-.359c.241.1 11.891 5.518 13.354 6.2 0 .116 0 1.432.011 1.978 0 .187.172.41.384.384.814-.1 25.44-3.115 26.513-3.252.511 0 .552-.828.045-.774-.881.106-25.936 3.161-26.174 3.192v-1.133c9.558-.838 18.791-2.674 28.127-3.471.485-.04.49-.8 0-.764-9.4.8-18.56 2.644-28.132 3.476.031-8.512.787-16.125.815-24.211.024-3.184 1.772-2.356 6.531-2.524 10.017-.353 19.973-1.305 29.982-2.611.174 2.83-.445 3.772-8.084 26.73-.152.464.583.674.734.208 7.962-23.97 8.419-24.4 8.078-27.362-.023-.21-.159-.437-.382-.407zM74.59 163.47c-.627-.293-2.767-1.279-3.207-1.487 1.5-.167 3-.349 4.5-.561l2.616 1.173c-4.062.876-3.83.805-3.909.875zm4.245 1.978c-3.416-1.6-3.2-1.439-3.1-1.472l3.94-.85c.526.238 3.053 1.371 3.185 1.427zm4.471 2.069a893.03 893.03 0 0 1-3.328-1.543c.991-.222 3.225-.716 3.351-.746-.015.772-.017 1.525-.023 2.289zm.061-3.571c-.121-.056-1.75-.784-2.438-1.093.592-.126 2.246-.483 2.489-.539a67.641 67.641 0 0 0-.051 1.632zm.076-2.416c-1.229.264-2.464.531-3.693.794-.824-.369-1.654-.738-2.479-1.112 3.014-.456 4.746-.822 6.233-1.171-.015.5-.041.999-.061 1.489z" fill="#000000"></path><path d="M104.654 154.289a4.585 4.585 0 0 1-5.266-.957c-.344-.354-.885.188-.541.542a5.355 5.355 0 0 0 6.237 1.047c1.329-.762 1.861-3.234.941-4.351a2.723 2.723 0 0 0-1.569-.788c-1.224-.289-2.635-.481-3.657.414-.369.324.172.866.541.541a2.984 2.984 0 0 1 2.59-.293c1.04.226 1.763.349 1.791 1.488a2.66 2.66 0 0 1-1.067 2.357z" fill="#000000"></path></svg>